<svg width="36" height="36" viewBox="0 0 36 36" fill="none" xmlns="http://www.w3.org/2000/svg">
<g id="solar-energy (2)" clip-path="url(#clip0_2091_3131)">
<g id="Group">
<path id="Vector" d="M8.08301 17.4169L6.33301 20.3335H8.08301V17.4169Z" fill="white"/>
<path id="Vector_2" d="M9.83301 20.3336H8.08301V23.2503L9.83301 20.3336Z" fill="white"/>
<path id="Vector_3" d="M33.75 15.0836H26.75C26.2863 15.085 25.842 15.2698 25.5141 15.5977C25.1862 15.9256 25.0014 16.3699 25 16.8336V29.6669C25.0014 30.1306 25.1862 30.5749 25.5141 30.9028C25.842 31.2307 26.2863 31.4155 26.75 31.4169H28.5V33.1669C28.5 33.3216 28.5615 33.47 28.6709 33.5794C28.7802 33.6888 28.9286 33.7502 29.0833 33.7502H29.6667V34.3336H18.5833V12.1669H19.75C19.9047 12.1669 20.0531 12.1055 20.1625 11.9961C20.2719 11.8867 20.3333 11.7383 20.3333 11.5836V9.83358H30.25C30.3336 9.83294 30.4161 9.81499 30.4924 9.78086C30.5687 9.74672 30.6371 9.69714 30.6933 9.63524C30.7477 9.57154 30.7878 9.49693 30.8109 9.41644C30.8341 9.33595 30.8397 9.25143 30.8275 9.16858L29.6608 1.00191C29.6412 0.862749 29.5719 0.73537 29.4658 0.643199C29.3597 0.551029 29.2239 0.500265 29.0833 0.500244H6.91667C6.77612 0.500265 6.64031 0.551029 6.5342 0.643199C6.4281 0.73537 6.35884 0.862749 6.33917 1.00191L5.1725 9.16858C5.16027 9.25143 5.16591 9.33595 5.18905 9.41644C5.21219 9.49693 5.2523 9.57154 5.30667 9.63524C5.36285 9.69714 5.43125 9.74672 5.50755 9.78086C5.58386 9.81499 5.66641 9.83294 5.75 9.83358H15.6667V11.5836C15.6667 11.7383 15.7281 11.8867 15.8375 11.9961C15.9469 12.1055 16.0953 12.1669 16.25 12.1669H17.4167V34.3336H8.66667V27.9169H11V26.7502H9.83333V25.5836H13.9167C14.3804 25.5822 14.8247 25.3974 15.1526 25.0695C15.4805 24.7416 15.6653 24.2973 15.6667 23.8336V16.8336C15.6653 16.3699 15.4805 15.9256 15.1526 15.5977C14.8247 15.2698 14.3804 15.085 13.9167 15.0836H2.25C1.7863 15.085 1.34198 15.2698 1.01409 15.5977C0.686204 15.9256 0.501385 16.3699 0.5 16.8336V23.8336C0.501385 24.2973 0.686204 24.7416 1.01409 25.0695C1.34198 25.3974 1.7863 25.5822 2.25 25.5836H6.33333V26.7502H5.16667V27.9169H7.5V34.9169C7.5 35.0716 7.56146 35.22 7.67085 35.3294C7.78025 35.4388 7.92862 35.5002 8.08333 35.5002H30.25C30.4047 35.5002 30.5531 35.4388 30.6625 35.3294C30.7719 35.22 30.8333 35.0716 30.8333 34.9169V33.7502H31.4167C31.5714 33.7502 31.7197 33.6888 31.8291 33.5794C31.9385 33.47 32 33.3216 32 33.1669V31.4169H33.75C34.2137 31.4155 34.658 31.2307 34.9859 30.9028C35.3138 30.5749 35.4986 30.1306 35.5 29.6669V16.8336C35.4986 16.3699 35.3138 15.9256 34.9859 15.5977C34.658 15.2698 34.2137 15.085 33.75 15.0836ZM2.25 24.4169C2.09529 24.4169 1.94692 24.3555 1.83752 24.2461C1.72812 24.1367 1.66667 23.9883 1.66667 23.8336V16.8336C1.66667 16.6789 1.72812 16.5305 1.83752 16.4211C1.94692 16.3117 2.09529 16.2502 2.25 16.2502H13.9167C14.0714 16.2502 14.2197 16.3117 14.3291 16.4211C14.4385 16.5305 14.5 16.6789 14.5 16.8336V23.8336C14.5 23.9883 14.4385 24.1367 14.3291 24.2461C14.2197 24.3555 14.0714 24.4169 13.9167 24.4169H2.25ZM7.5 26.7502V25.5836H8.66667V26.7502H7.5ZM29.5792 8.66691H23.7692L23.565 6.91691H29.3283L29.5792 8.66691ZM29.1592 5.75024H23.4308L23.2208 4.00024H28.9083L29.1592 5.75024ZM28.5758 1.66691L28.745 2.83358H23.0867L22.9525 1.66691H28.5758ZM14.2258 1.66691H21.7742L21.9142 2.83358H14.0858L14.2258 1.66691ZM13.9517 4.00024H22.0483L22.2525 5.75024H13.7475L13.9517 4.00024ZM12.2308 8.66691H6.42083L6.67167 6.91691H12.435L12.2308 8.66691ZM12.5692 5.75024H6.84083L7.09167 4.00024H12.7792L12.5692 5.75024ZM12.9133 2.83358H7.255L7.42417 1.66691H13.0475L12.9133 2.83358ZM13.4033 8.66691L13.6075 6.91691H22.3925L22.5967 8.66691H13.4033ZM16.8333 11.0002V9.83358H19.1667V11.0002H16.8333ZM30.8333 32.5836H29.6667V31.4169H30.8333V32.5836ZM34.3333 29.6669C34.3333 29.8216 34.2719 29.97 34.1625 30.0794C34.0531 30.1888 33.9047 30.2502 33.75 30.2502H26.75C26.5953 30.2502 26.4469 30.1888 26.3375 30.0794C26.2281 29.97 26.1667 29.8216 26.1667 29.6669V16.8336C26.1667 16.6789 26.2281 16.5305 26.3375 16.4211C26.4469 16.3117 26.5953 16.2502 26.75 16.2502H33.75C33.9047 16.2502 34.0531 16.3117 34.1625 16.4211C34.2719 16.5305 34.3333 16.6789 34.3333 16.8336V29.6669Z" fill="white"/>
<path id="Vector_4" d="M33.1667 16.8336H27.3333C27.1786 16.8336 27.0303 16.8951 26.9209 17.0045C26.8115 17.1139 26.75 17.2622 26.75 17.417V27.917C26.75 28.0717 26.8115 28.22 26.9209 28.3294C27.0303 28.4388 27.1786 28.5003 27.3333 28.5003H33.1667C33.3214 28.5003 33.4697 28.4388 33.5791 28.3294C33.6885 28.22 33.75 28.0717 33.75 27.917V17.417C33.75 17.2622 33.6885 17.1139 33.5791 17.0045C33.4697 16.8951 33.3214 16.8336 33.1667 16.8336ZM32.5833 27.3336H27.9167V18.0003H32.5833V27.3336Z" fill="white"/>
<path id="Vector_5" d="M30.25 19.7502L28.5 22.6669H30.25V19.7502Z" fill="white"/>
<path id="Vector_6" d="M32 22.6669H30.25V25.5835L32 22.6669Z" fill="white"/>
<path id="Vector_7" d="M24.4167 31.417L22.0833 29.667V30.8336H20.9167V27.3336H19.75V31.417C19.75 31.5717 19.8115 31.72 19.9209 31.8294C20.0303 31.9388 20.1786 32.0003 20.3333 32.0003H22.0833V33.167L24.4167 31.417Z" fill="white"/>
<path id="Vector_8" d="M11.583 31.417L13.9163 33.167V32.0003H15.6663C15.8211 32.0003 15.9694 31.9388 16.0788 31.8294C16.1882 31.72 16.2497 31.5717 16.2497 31.417V27.3336H15.083V30.8336H13.9163V29.667L11.583 31.417Z" fill="white"/>
</g>
</g>
<defs>
<clipPath id="clip0_2091_3131">
<rect width="35" height="35" fill="white" transform="translate(0.5 0.500244)"/>
</clipPath>
</defs>
</svg>
