<svg width="45" height="45" viewBox="0 0 45 45" fill="none" xmlns="http://www.w3.org/2000/svg">
<g id="040-research" clip-path="url(#clip0_2147_2)">
<g id="Group">
<g id="Group_2">
<path id="Vector" d="M44.2277 36.2862L37.5648 29.6233C40.3597 25.1348 39.8095 19.1414 35.9138 15.2457C34.713 14.0449 33.3022 13.1402 31.7206 12.5568C31.2651 12.3888 30.7598 12.6218 30.5918 13.0772C30.4239 13.5327 30.6568 14.038 31.1122 14.206C32.4538 14.7009 33.6511 15.4688 34.6708 16.4887C38.1505 19.9685 38.4857 25.4197 35.6773 29.2798C35.0614 30.1223 34.3163 30.8672 33.4711 31.4797C29.6123 34.2711 24.175 33.9308 20.7017 30.4575C18.8566 28.6128 17.8082 26.0824 17.8082 23.473C17.8082 20.8346 18.8358 18.3542 20.7018 16.4886C21.7086 15.4817 22.8895 14.7198 24.2113 14.2241C24.6659 14.0537 24.8962 13.5471 24.7258 13.0926C24.5554 12.6381 24.0489 12.4078 23.5943 12.5782C22.0358 13.1626 20.6444 14.0599 19.4589 15.2455C17.2609 17.4431 16.0504 20.3649 16.0504 23.4729C16.0504 24.8169 16.2773 26.1261 16.7119 27.357L15.0746 28.2832C14.2122 28.771 13.4653 29.409 12.8587 30.1517V14.9233C15.9563 12.7656 17.3247 10.1357 17.9272 8.27461C18.6141 6.15266 18.4868 4.5411 18.4811 4.47351C18.4191 3.74455 17.5025 3.4081 16.9839 3.92657C16.9839 3.92657 12.3882 8.52703 12.3269 8.59567C12.0347 7.95328 11.6276 7.36133 11.1137 6.84744L5.37716 1.11073C4.85861 0.59235 3.942 0.928532 3.87995 1.65767C3.87274 1.7424 3.71322 3.76327 4.58008 6.44086C5.34878 8.8154 7.10325 12.181 11.101 14.9262V22.567C10.6362 21.9975 10.0885 21.4893 9.46671 21.063L9.08422 20.8008C9.71492 19.2062 9.21869 17.3225 7.77043 16.2663C7.38248 15.9833 6.92518 15.8055 6.44794 15.752L0.976744 15.1389C0.663062 15.1031 0.354742 15.2394 0.168853 15.4944C-0.0171232 15.7494 -0.0521916 16.0845 0.0771834 16.3724L2.33307 21.3949C3.31481 23.5796 6.45233 23.7215 8.08209 22.2449L8.47276 22.5128C10.1184 23.641 11.1009 25.5057 11.1009 27.5009V36.5624C10.699 36.2937 10.227 36.1493 9.73267 36.1493C8.29531 36.1493 6.91323 36.6765 5.84123 37.634L0.293482 42.5884C-0.296176 43.115 0.0902792 44.1229 0.878922 44.1229H28.3033C28.7886 44.1229 29.1822 43.7293 29.1822 43.244C29.1822 42.7587 28.7886 42.3651 28.3033 42.3651H23.4161L18.1184 37.634C17.0464 36.6765 15.6643 36.1493 14.227 36.1493C13.7326 36.1493 13.2604 36.2936 12.8588 36.5624V35.054C12.8588 32.8965 14.0395 30.8884 15.9402 29.8133L17.4264 28.9726C17.9595 29.9637 18.6407 30.8824 19.4589 31.7005C23.2335 35.4751 29.2991 36.1763 33.8357 33.3522L40.4988 40.0152C41.0129 40.5293 41.6879 40.7862 42.3633 40.7862C43.0385 40.7862 43.7137 40.5291 44.2277 40.0152C44.7258 39.5173 45.0001 38.8551 45.0001 38.1507C45.0001 37.4464 44.7257 36.7842 44.2277 36.2862ZM16.4831 6.91336C16.417 7.19584 16.334 7.49589 16.23 7.80896C15.5991 9.70784 14.468 11.3516 12.8588 12.7124V11.8119C12.8588 10.9902 13.1788 10.2177 13.7597 9.63673L16.4831 6.91336ZM6.27743 5.97609C6.03977 5.25644 5.88693 4.58926 5.78919 4.00883L9.87075 8.09039C10.664 8.8836 11.1009 9.93829 11.1009 11.0602V12.744C8.77273 10.8985 7.15335 8.62801 6.27743 5.97609ZM5.8233 21.4546C5.17352 21.5561 4.23309 21.3347 3.93655 20.6747L2.3118 17.0574L6.25212 17.4989C6.42614 17.5185 6.59304 17.5833 6.73455 17.6866C7.40524 18.1757 7.70064 18.9908 7.56239 19.7575L6.26477 18.8679C5.86434 18.5935 5.31749 18.6954 5.04292 19.0959C4.76843 19.4962 4.87047 20.0432 5.2709 20.3177L6.55165 21.1958C6.32972 21.3245 6.08442 21.4137 5.8233 21.4546ZM14.227 37.9072C15.2319 37.9072 16.1981 38.2758 16.9475 38.9453L20.777 42.3652H3.18262L7.0121 38.9452C7.76155 38.2759 8.72782 37.9072 9.73267 37.9072C9.92234 37.9072 10.1008 37.981 10.2348 38.1151C11.186 39.0665 12.7738 39.0663 13.725 38.1151C13.859 37.9809 14.0373 37.9072 14.227 37.9072ZM42.9847 38.7722C42.6421 39.115 42.0843 39.115 41.7416 38.7722L35.2685 32.2991C35.7129 31.9168 36.1293 31.5004 36.5116 31.056L42.9848 37.5292C43.1508 37.6952 43.2422 37.9159 43.2422 38.1507C43.2422 38.3854 43.1508 38.6063 42.9847 38.7722Z" fill="#1D8F2C"/>
<path id="Vector_2" d="M32.9191 42.5303C32.256 42.0891 31.3702 42.7283 31.5844 43.4952C31.6854 43.8569 32.0129 44.1192 32.3883 44.1386C32.7624 44.1578 33.116 43.9257 33.2503 43.5772C33.3955 43.2001 33.2594 42.7534 32.9191 42.5303Z" fill="#1D8F2C"/>
<path id="Vector_3" d="M21.9959 17.7833C19.625 20.1551 19.0477 23.65 20.261 26.57C21.1083 29.1201 23.7876 30.9597 26.3484 31.3798C28.885 31.7959 31.551 30.9865 33.3748 29.1623C36.4747 26.0632 36.477 20.8855 33.3749 17.7832C30.2382 14.6464 25.1337 14.6465 21.9959 17.7833ZM32.1321 27.9191C29.6274 30.254 25.7217 30.4021 23.2389 27.9192C22.8499 27.5301 22.5231 27.1021 22.2575 26.6479L24.7082 25.2676L29.7164 26.1381C30.1883 26.22 30.6508 25.8947 30.7329 25.4227C30.8159 24.9445 30.4957 24.4894 30.0174 24.4062L27.129 23.9041L33.2161 20.4758C34.5321 22.896 34.0761 25.9758 32.1321 27.9191ZM32.132 19.0262C32.1411 19.0353 32.1495 19.0449 32.1585 19.0541L28.3924 21.1752L28.9068 19.657C29.0624 19.1972 28.816 18.6983 28.3563 18.5424C27.8964 18.3867 27.3976 18.6331 27.2418 19.0929L26.0986 22.4671L21.5895 25.0067C21.0716 22.933 21.6208 20.6448 23.2388 19.0264C24.465 17.8005 26.0752 17.1877 27.6858 17.1877C29.2959 17.1876 30.9064 17.8006 32.132 19.0262Z" fill="#1D8F2C"/>
<path id="Vector_4" d="M26.8957 13.0527C27.0317 13.3848 27.3701 13.6046 27.7286 13.5952C28.1118 13.5852 28.4511 13.32 28.5538 12.9511C28.7616 12.2051 27.9293 11.5726 27.2634 11.9591C26.8894 12.1761 26.7293 12.6536 26.8957 13.0527Z" fill="#1D8F2C"/>
</g>
</g>
</g>
<defs>
<clipPath id="clip0_2147_2">
<rect width="45" height="45" fill="white"/>
</clipPath>
</defs>
</svg>
