<svg width="45" height="45" viewBox="0 0 45 45" fill="none" xmlns="http://www.w3.org/2000/svg">
<g id="017-waste" clip-path="url(#clip0_2118_415)">
<g id="Group">
<g id="Group_2">
<path id="Vector" d="M44.1172 0H39.5007C39.0153 0 38.6218 0.393486 38.6218 0.878906V1.3957H34.6688C34.1833 1.3957 33.7899 1.78919 33.7899 2.27461C33.7899 2.76003 34.1833 3.15352 34.6688 3.15352H38.6218V13.0197H32.8629C30.5955 13.0197 28.7507 14.8643 28.7507 17.1318V20.0145H16.2483V18.0105C16.2483 15.7431 14.4036 13.8984 12.1361 13.8984H6.3772V3.15352H26.756C27.3234 3.27217 27.8333 2.81092 27.815 2.24385C27.7985 1.77073 27.4101 1.3957 26.9367 1.3957H6.3772V0.878906C6.3772 0.393486 5.98371 0 5.49829 0H0.881836C0.396416 0 0.00292969 0.393486 0.00292969 0.878906V16.1731C0.00292969 16.6585 0.396416 17.052 0.881836 17.052H5.49829C5.98371 17.052 6.3772 16.6585 6.3772 16.1731V15.6563H12.1361C13.4343 15.6563 14.4905 16.7125 14.4905 18.0106V20.0145H14.0884C13.603 20.0145 13.2095 20.4079 13.2095 20.8934V25.4965C13.2095 25.982 13.603 26.3755 14.0884 26.3755H16.9411V30.7025C16.9411 32.2025 18.1616 33.423 19.6616 33.423C21.1616 33.423 22.3821 32.2026 22.3821 30.7025C22.3821 30.0481 22.9144 29.5159 23.5687 29.5159H24.8397C26.7539 29.5159 28.3589 28.1703 28.761 26.3755H31.249C31.7344 26.3755 32.1279 25.9821 32.1279 25.4966V20.8934C32.1279 20.4079 31.7344 20.0145 31.249 20.0145H30.5086V17.1318C30.5086 15.8337 31.5648 14.7775 32.863 14.7775H38.6219V15.2943C38.6219 15.7797 39.0154 16.1732 39.5008 16.1732H44.1173C44.6027 16.1732 44.9962 15.7797 44.9962 15.2943V0.878906C44.9961 0.393486 44.6026 0 44.1172 0ZM4.61939 15.2942H1.76074V1.75781H4.61939V15.2942ZM24.8396 27.758H23.5686C21.945 27.758 20.6242 29.0789 20.6242 30.7024C20.6242 31.2333 20.1924 31.6651 19.6615 31.6651C19.1307 31.6651 18.6989 31.2333 18.6989 30.7024V26.3754H26.9233C26.5797 27.1871 25.7751 27.758 24.8396 27.758ZM30.37 24.6176H14.9673V21.7723H30.37V24.6176ZM43.2383 14.4155H40.3796V1.75781H43.2383V14.4155Z" fill="#1D8F2C"/>
<path id="Vector_2" d="M44.3132 37.3249L41.4106 36.6609C40.128 36.3675 38.9497 36.2407 37.8072 36.2743C37.302 36.289 36.8023 36.1767 36.3626 35.9496L34.8066 35.1461C33.5092 34.4762 31.9456 34.4498 30.6235 35.0753C29.9509 35.3935 29.1551 35.4444 28.4401 35.2146L27.9631 35.0612C26.0775 34.4554 24.034 34.5353 22.2091 35.2867L20.3095 36.0688C17.9108 37.0564 15.1054 36.7791 12.9882 35.345C11.8321 34.5619 10.3323 34.3385 8.97621 34.7476C8.94167 34.7581 8.90792 34.7706 8.87496 34.7851L0.526846 38.4711C0.208418 38.6117 0.00292969 38.927 0.00292969 39.2751V44.1212C0.00292969 44.6066 0.396416 45.0001 0.881836 45.0001H6.87677C7.36219 45.0001 7.75568 44.6066 7.75568 44.1212C7.75568 43.6358 7.36219 43.2423 6.87677 43.2423H1.76074V39.8478L9.53247 36.4165C10.374 36.1782 11.2938 36.3203 12.0026 36.8005C14.602 38.5612 18.0414 38.9037 20.9789 37.6943L22.8786 36.9122C24.3199 36.3187 25.9346 36.2557 27.4253 36.7348L27.9024 36.8882C29.0379 37.2531 30.3038 37.1714 31.3754 36.6643C32.2054 36.2716 33.1867 36.288 34.0002 36.708L35.5561 37.5115C36.2599 37.875 37.0559 38.0548 37.8584 38.0314C38.8499 38.0029 39.8833 38.1148 41.0187 38.3745L43.2384 38.8823V43.2423H14.5981C14.1127 43.2423 13.7192 43.6358 13.7192 44.1212C13.7192 44.6066 14.1127 45.0001 14.5981 45.0001H44.1173C44.6027 45.0001 44.9962 44.6066 44.9962 44.1212V38.1817C44.9961 37.7718 44.7128 37.4163 44.3132 37.3249Z" fill="#1D8F2C"/>
<path id="Vector_3" d="M30.0678 2.61123C30.3775 3.35443 31.4856 3.30345 31.7202 2.52958C31.9506 1.76923 31.0926 1.1177 30.42 1.52648C30.0544 1.74876 29.9064 2.21695 30.0678 2.61123Z" fill="#1D8F2C"/>
<path id="Vector_4" d="M11.5537 43.7853C11.3722 43.3426 10.8471 43.1263 10.4058 43.3098C9.96374 43.4938 9.74744 44.0139 9.93034 44.4568C10.1131 44.8992 10.6364 45.1157 11.0782 44.9323C11.5198 44.749 11.738 44.2278 11.5537 43.7853Z" fill="#1D8F2C"/>
<path id="Vector_5" d="M22.3736 5.50903C19.3578 5.50903 16.9043 7.9625 16.9043 10.9783C16.9043 13.9941 19.3578 16.4475 22.3736 16.4475C23.7532 16.4475 25.0707 15.9323 26.0836 14.9968C26.4402 14.6674 26.4622 14.1114 26.1329 13.7548C25.8035 13.3983 25.2475 13.3762 24.8909 13.7055C24.2038 14.3402 23.3098 14.6897 22.3736 14.6897C20.3271 14.6897 18.6621 13.0248 18.6621 10.9783C18.6621 8.93176 20.327 7.26685 22.3736 7.26685C23.9507 7.26685 25.3003 8.25614 25.8368 9.6464L25.3447 9.47202C24.8872 9.30995 24.3848 9.54937 24.2227 10.0068C24.0605 10.4644 24.3 10.9667 24.7575 11.1288L26.6703 11.8067C26.991 11.9202 27.3586 11.8342 27.5952 11.5897L29.1047 10.031C29.4423 9.68226 29.4335 9.12591 29.0847 8.78814C28.736 8.45047 28.1796 8.45943 27.8418 8.8081L27.5231 9.13733C26.7655 7.02471 24.7436 5.50903 22.3736 5.50903Z" fill="#1D8F2C"/>
</g>
</g>
</g>
<defs>
<clipPath id="clip0_2118_415">
<rect width="45" height="45" fill="white"/>
</clipPath>
</defs>
</svg>
