<svg width="45" height="45" viewBox="0 0 45 45" fill="none" xmlns="http://www.w3.org/2000/svg">
<g id="009-green energy" clip-path="url(#clip0_2120_3871)">
<g id="Group">
<g id="Group_2">
<path id="Vector" d="M44.9234 26.8055C45.1821 26.2348 44.7522 25.5642 44.1237 25.5642H32.6841C33.2822 24.2008 33.6151 22.6955 33.6151 21.1138C33.6151 19.8347 33.28 18.5714 32.6462 17.4603L30.4077 13.5377C30.1671 13.1161 29.6301 12.9693 29.2086 13.21C28.7869 13.4505 28.6401 13.9875 28.8808 14.4091L31.1192 18.3316C31.602 19.1777 31.8572 20.1398 31.8572 21.1138C31.8572 26.2066 27.5902 30.4698 22.5011 30.4698C17.4102 30.4698 13.145 26.2062 13.145 21.1138C13.145 20.1398 13.4001 19.1778 13.883 18.3317L22.5011 3.22964L25.024 7.65054C25.2646 8.07221 25.8016 8.21883 26.2231 7.97833C26.6448 7.73765 26.7916 7.20083 26.5509 6.77916L23.2646 1.02038C23.1081 0.746212 22.8167 0.577087 22.5011 0.577087C22.1854 0.577087 21.8941 0.7463 21.7375 1.02038L12.3559 17.4604C11.722 18.5714 11.387 19.8347 11.387 21.1138C11.387 22.6955 11.7199 24.2007 12.318 25.5642H0.875642C0.208108 25.5642 -0.220682 26.3164 0.119238 26.891L7.74894 39.7784C9.06599 42.0433 11.8566 43.1285 14.3831 43.1285C17.2141 43.1285 19.9429 41.7616 21.6208 39.4808V43.5439C21.6208 44.0294 22.0144 44.4229 22.4998 44.4229C22.9852 44.4229 23.3788 44.0294 23.3788 43.5439V39.4808C24.5702 41.1003 26.2591 42.2651 28.2276 42.8048C29.017 43.0213 29.8191 43.1284 30.6163 43.1284C33.1556 43.1284 35.9092 42.0398 37.2474 39.7838C37.2473 39.7838 44.909 26.834 44.9234 26.8055ZM36.0741 38.3144L28.9457 36.1032L41.6784 28.8481L36.0741 38.3144ZM23.9405 36.9318C23.5724 36.0527 23.3795 35.1079 23.3788 34.1563V34.1461C23.3792 33.4748 23.472 32.8118 23.6553 32.1683C26.903 31.8322 29.8958 30.0291 31.7198 27.3222H34.105L32.972 31.7857L23.9405 36.9318ZM11.9132 31.7205L10.7967 27.3221H13.2822C15.1057 30.0286 18.0973 31.8301 21.344 32.1679C21.5278 32.8131 21.6206 33.4779 21.6206 34.151C21.6206 35.1044 21.4276 36.0511 21.0588 36.9317L11.9132 31.7205ZM8.91128 38.2908L3.32083 28.848L16.0198 36.0839L8.91128 38.2908ZM8.98292 27.3222L9.79277 30.5123L4.19415 27.3222H8.98292ZM40.8053 27.3222L35.0925 30.5773L35.9188 27.3222H40.8053ZM16.307 41.1093C14.2307 41.6786 11.596 41.333 9.98888 39.797L18.1111 37.2755L20.1876 38.4586C19.2305 39.7487 17.8804 40.678 16.307 41.1093ZM28.6924 41.1093C27.1189 40.6779 25.7689 39.7487 24.8118 38.4587L26.854 37.2951L34.9876 39.818C33.3766 41.3353 30.7614 41.6768 28.6924 41.1093Z" fill="#1D8F2C"/>
<path id="Vector_2" d="M22.0691 28.4123C22.4575 28.5072 22.8737 28.3177 23.0577 27.9629L28.2423 17.9638C28.5406 17.3887 28.1084 16.6802 27.4619 16.6802H23.1563V11.1206C23.1563 10.2218 21.9043 9.9179 21.4944 10.721L16.2559 20.9848C15.9625 21.5598 16.3947 22.2634 17.0388 22.2634H21.3983V27.5582C21.3983 27.9636 21.6754 28.3162 22.0691 28.4123ZM18.4745 20.5054L21.3984 14.7766V17.5591C21.3984 18.0446 21.792 18.4381 22.2774 18.4381H26.0161L23.1564 23.9533V21.3844C23.1564 20.8989 22.7628 20.5054 22.2774 20.5054H18.4745Z" fill="#1D8F2C"/>
<path id="Vector_3" d="M26.8977 10.9205C27.0819 11.3622 27.6025 11.58 28.0457 11.3961C28.4877 11.2126 28.705 10.6907 28.5213 10.2481C28.3378 9.80602 27.8161 9.58881 27.3733 9.77253C26.9314 9.95589 26.7133 10.478 26.8977 10.9205Z" fill="#1D8F2C"/>
</g>
</g>
</g>
<defs>
<clipPath id="clip0_2120_3871">
<rect width="45" height="45" fill="white"/>
</clipPath>
</defs>
</svg>
