<svg width="36" height="36" viewBox="0 0 36 36" fill="none" xmlns="http://www.w3.org/2000/svg">
<g id="solar-energy" clip-path="url(#clip0_2091_3243)">
<g id="Solar Power">
<path id="Vector" d="M18 18.5602C17.994 18.4096 17.9299 18.2672 17.8211 18.1628C17.7124 18.0584 17.5675 18.0001 17.4167 18.0002H1.66701C1.51626 18.0001 1.37132 18.0584 1.26257 18.1628C1.15383 18.2672 1.08972 18.4096 1.08369 18.5602L0.500365 31.3933C0.497593 31.4716 0.510627 31.5497 0.538689 31.6229C0.566751 31.696 0.609266 31.7628 0.663695 31.8191C0.717745 31.8762 0.782862 31.9217 0.855072 31.9528C0.927282 31.9839 1.00507 31.9999 1.08369 32H8.08355V34.3333H6.91691V35.4999H12.7501V34.3333H11.5835V32H18C18.0786 31.9999 18.1564 31.9839 18.2286 31.9528C18.3009 31.9217 18.366 31.8762 18.42 31.8191C18.4745 31.7628 18.517 31.696 18.545 31.6229C18.5731 31.5497 18.5861 31.4716 18.5834 31.3933L18 18.5602ZM5.7736 30.8333H1.69618L1.85367 27.3334H5.93693L5.7736 30.8333ZM5.98943 26.1668H1.90617L2.06367 22.6668H6.14692L5.98943 26.1668ZM6.19942 21.5002H2.11617L2.227 19.1669H6.30442L6.19942 21.5002ZM7.4769 19.1669H11.6068L11.7177 21.5002H7.36607L7.4769 19.1669ZM7.31357 22.6668H11.7701L11.9276 26.1668H7.15607L7.31357 22.6668ZM10.4168 34.3333H9.2502V32H10.4168V34.3333ZM6.94607 30.8333L7.10357 27.3334H11.9801L12.1376 30.8333H6.94607ZM12.7793 19.1669H16.8567L16.9676 21.5002H12.8843L12.7793 19.1669ZM12.9368 22.6668H17.02L17.1775 26.1668H13.0943L12.9368 22.6668ZM13.3101 30.8333L13.1468 27.3334H17.23L17.3875 30.8333H13.3101Z" fill="white"/>
<path id="Vector_2" d="M34.916 20.3044C34.9076 20.1551 34.8425 20.0147 34.7341 19.9118C34.6257 19.8088 34.4822 19.751 34.3327 19.7502H20.333C20.1835 19.751 20.0399 19.8088 19.9315 19.9118C19.8231 20.0147 19.7581 20.1551 19.7496 20.3044L19.1663 31.3875C19.1614 31.5463 19.2178 31.7009 19.3238 31.8192C19.379 31.8764 19.4452 31.9219 19.5183 31.953C19.5915 31.984 19.6702 32 19.7496 32H25.5829V34.3333H24.4162V35.4999H30.2494V34.3333H29.0828V32H34.916C34.9955 32 35.0742 31.984 35.1473 31.953C35.2205 31.9219 35.2867 31.8764 35.3418 31.8192C35.4479 31.7009 35.5043 31.5463 35.4993 31.3875L34.916 20.3044ZM24.4162 30.8334H20.3621L20.4846 28.5001H24.4162V30.8334ZM24.4162 27.3334H20.5488L20.7005 24.4168H24.4162V27.3334ZM24.4162 23.2502H20.7646L20.8871 20.9169H24.4162V23.2502ZM27.9162 34.3333H26.7495V32H27.9162V34.3333ZM29.0828 30.8334H25.5829V28.5001H29.0828V30.8334ZM29.0828 27.3334H25.5829V24.4168H29.0828V27.3334ZM29.0828 23.2502H25.5829V20.9169H29.0828V23.2502ZM30.2494 20.9169H33.7785L33.901 23.2502H30.2494V20.9169ZM30.2494 24.4168H33.9652L34.1169 27.3334H30.2494V24.4168ZM30.2494 30.8334V28.5001H34.181L34.3035 30.8334H30.2494Z" fill="white"/>
<path id="Vector_3" d="M27.333 11.5837L25.583 14.5004H27.333V11.5837Z" fill="white"/>
<path id="Vector_4" d="M29.083 14.5004H27.333V17.417L29.083 14.5004Z" fill="white"/>
<path id="Vector_5" d="M8.66696 10.4171L6.91699 13.3337H8.66696V10.4171Z" fill="white"/>
<path id="Vector_6" d="M10.417 13.3337H8.66699V16.2504L10.417 13.3337Z" fill="white"/>
<path id="Vector_7" d="M18.0002 11.0004C18.8078 11.0004 19.5973 10.7609 20.2688 10.3122C20.9403 9.86355 21.4636 9.22583 21.7727 8.47971C22.0817 7.7336 22.1626 6.91259 22.005 6.12052C21.8475 5.32844 21.4586 4.60088 20.8875 4.02982C20.3165 3.45877 19.5889 3.06988 18.7969 2.91232C18.0048 2.75477 17.1838 2.83563 16.4377 3.14468C15.6915 3.45374 15.0538 3.9771 14.6051 4.64858C14.1565 5.32007 13.917 6.10953 13.917 6.91712C13.9182 7.99969 14.3488 9.03756 15.1143 9.80305C15.8798 10.5685 16.9177 10.9991 18.0002 11.0004ZM18.0002 4.00051C18.5771 4.00051 19.141 4.17157 19.6206 4.49205C20.1003 4.81253 20.4741 5.26804 20.6948 5.80098C20.9156 6.33392 20.9734 6.92036 20.8608 7.48612C20.7483 8.05189 20.4705 8.57158 20.0626 8.97948C19.6547 9.38737 19.135 9.66515 18.5693 9.77769C18.0035 9.89023 17.417 9.83247 16.8841 9.61172C16.3512 9.39097 15.8957 9.01714 15.5752 8.5375C15.2547 8.05787 15.0836 7.49397 15.0836 6.91712C15.0846 6.14387 15.3921 5.40256 15.9389 4.85579C16.4857 4.30902 17.227 4.00143 18.0002 4.00051Z" fill="white"/>
<path id="Vector_8" d="M17.417 0.50061H18.5836V1.66725H17.417V0.50061Z" fill="white"/>
<path id="Vector_9" d="M21.2969 2.79456L22.1218 1.96961L22.9468 2.79456L22.1218 3.6195L21.2969 2.79456Z" fill="white"/>
<path id="Vector_10" d="M23.25 6.33386H24.4166V7.50051H23.25V6.33386Z" fill="white"/>
<path id="Vector_11" d="M21.2949 11.0389L22.1199 10.214L22.9448 11.0389L22.1199 11.8639L21.2949 11.0389Z" fill="white"/>
<path id="Vector_12" d="M17.417 12.1671H18.5836V13.3338H17.417V12.1671Z" fill="white"/>
<path id="Vector_13" d="M13.0479 11.0421L13.8728 10.2172L14.6977 11.0421L13.8728 11.8671L13.0479 11.0421Z" fill="white"/>
<path id="Vector_14" d="M11.583 6.33386H12.7497V7.50051H11.583V6.33386Z" fill="white"/>
<path id="Vector_15" d="M13.0479 2.79126L13.8728 1.96632L14.6977 2.79126L13.8728 3.6162L13.0479 2.79126Z" fill="white"/>
</g>
</g>
<defs>
<clipPath id="clip0_2091_3243">
<rect width="35" height="35" fill="white" transform="translate(0.5 0.500244)"/>
</clipPath>
</defs>
</svg>
