<svg width="36" height="35" viewBox="0 0 36 35" fill="none" xmlns="http://www.w3.org/2000/svg">
<g id="solar-energy (3)" clip-path="url(#clip0_2091_3260)">
<g id="Solar power-light">
<path id="Vector" d="M30.6177 9.92076C30.0688 9.42783 29.4207 9.05824 28.717 8.83686C28.0132 8.61548 27.2702 8.54746 26.538 8.63738C25.8058 8.72729 25.1013 8.97306 24.472 9.35813C23.8428 9.74319 23.3033 10.2586 22.89 10.8697C22.4767 11.4808 22.1991 12.1733 22.0759 12.9007C21.9528 13.6281 21.9869 14.3734 22.176 15.0865C22.3651 15.7996 22.7048 16.4639 23.1722 17.0346C23.6397 17.6054 24.2239 18.0694 24.8858 18.3953V20.656C24.8874 21.1635 25.0573 21.6562 25.3687 22.0569C25.6802 22.4577 26.1157 22.7439 26.6071 22.8708V30.9839H12.8366V30.4101C12.8366 30.2579 12.7761 30.112 12.6685 30.0044C12.5609 29.8968 12.415 29.8363 12.2628 29.8363H10.5415V29.2626H16.2792C16.3574 29.2626 16.4348 29.2468 16.5067 29.2163C16.5787 29.1857 16.6438 29.141 16.6981 29.0847C16.8024 28.9683 16.8579 28.8163 16.853 28.6601L16.2792 17.7585C16.2709 17.6117 16.2069 17.4735 16.1003 17.3723C15.9937 17.271 15.8525 17.2142 15.7054 17.2134H1.93495C1.7879 17.2142 1.64669 17.271 1.54009 17.3723C1.43348 17.4735 1.3695 17.6117 1.36118 17.7585L0.787406 28.6601C0.782529 28.8163 0.83801 28.9683 0.942324 29.0847C0.996606 29.141 1.06167 29.1857 1.13364 29.2163C1.2056 29.2468 1.28299 29.2626 1.36118 29.2626H7.09888V33.8527H5.95134V35.0003H11.689V33.8527H10.5415V33.279H12.2628C12.415 33.279 12.5609 33.2185 12.6685 33.1109C12.7761 33.0033 12.8366 32.8574 12.8366 32.7052V32.1314H27.1808C27.333 32.1314 27.479 32.071 27.5866 31.9634C27.6942 31.8558 27.7546 31.7098 27.7546 31.5576V22.8708C28.246 22.7439 28.6815 22.4577 28.993 22.0569C29.3044 21.6562 29.4743 21.1635 29.4759 20.656V18.3953C30.2324 18.0206 30.8853 17.466 31.3775 16.7801C31.8696 16.0943 32.186 15.2981 32.2987 14.4614C32.4114 13.6248 32.3171 12.7733 32.024 11.9816C31.7309 11.19 31.2481 10.4823 30.6177 9.92076ZM5.95134 28.115H1.96364L2.08413 25.8199H5.95134V28.115ZM5.95134 24.6724H2.14724L2.29642 21.8035H5.95134V24.6724ZM5.95134 20.656H2.35954L2.48003 18.3609H5.95134V20.656ZM11.689 18.3609H15.1604L15.2808 20.656H11.689V18.3609ZM11.689 21.8035H15.344L15.4931 24.6724H11.689V21.8035ZM11.689 25.8199H15.5563L15.6768 28.115H11.689V25.8199ZM7.09888 18.3609H10.5415V20.656H7.09888V18.3609ZM7.09888 21.8035H10.5415V24.6724H7.09888V21.8035ZM9.39396 33.8527H8.24642V29.2626H9.39396V33.8527ZM7.09888 28.115V25.8199H10.5415V28.115H7.09888ZM11.689 32.1314H10.5415V30.9839H11.689V32.1314ZM27.1808 21.8035C26.9804 21.803 26.7837 21.7497 26.6105 21.649C26.4372 21.5483 26.2936 21.4037 26.194 21.2298H28.1677C28.0681 21.4037 27.9245 21.5483 27.7512 21.649C27.578 21.7497 27.3813 21.803 27.1808 21.8035ZM28.3284 20.0822H26.0333V18.9347H28.3284V20.0822ZM28.6841 17.4945C28.5502 17.5492 28.443 17.6543 28.3858 17.7872H25.9759C25.9187 17.6543 25.8115 17.5492 25.6776 17.4945C24.8513 17.1602 24.1598 16.5605 23.7118 15.7899C23.2639 15.0194 23.085 14.1217 23.2033 13.2383C23.3216 12.3548 23.7304 11.5359 24.3654 10.9103C25.0003 10.2848 25.8253 9.88819 26.7104 9.78305C26.8685 9.76492 27.0274 9.75534 27.1866 9.75436C28.1181 9.75608 29.0201 10.0816 29.7381 10.6751C30.4561 11.2686 30.9455 12.0932 31.1224 13.0078C31.2994 13.9224 31.1529 14.8701 30.7081 15.6886C30.2633 16.5071 29.5478 17.1455 28.6841 17.4945Z" fill="white"/>
<path id="Vector_2" d="M32.9189 13.197H35.214V14.3446H32.9189V13.197Z" fill="white"/>
<path id="Vector_3" d="M30.8271 18.2357L31.6386 17.4243L33.2615 19.0472L32.45 19.8586L30.8271 18.2357Z" fill="white"/>
<path id="Vector_4" d="M21.0908 19.0453L22.7137 17.4224L23.5251 18.2339L21.9023 19.8567L21.0908 19.0453Z" fill="white"/>
<path id="Vector_5" d="M19.1484 13.197H21.4435V14.3446H19.1484V13.197Z" fill="white"/>
<path id="Vector_6" d="M21.0918 8.4978L21.9032 7.68637L23.5261 9.30924L22.7147 10.1207L21.0918 8.4978Z" fill="white"/>
<path id="Vector_7" d="M26.6074 5.73792H27.755V8.033H26.6074V5.73792Z" fill="white"/>
<path id="Vector_8" d="M30.8281 9.30994L32.451 7.68707L33.2624 8.4985L31.6396 10.1214L30.8281 9.30994Z" fill="white"/>
<path id="Vector_9" d="M30.0492 14.3446V15.4921H28.9017C28.7735 15.492 28.6491 15.449 28.5483 15.37C28.4474 15.2909 28.3759 15.1804 28.3451 15.056L28.0181 13.7478L27.5878 14.1782C27.4794 14.2857 27.333 14.346 27.1804 14.346C27.0278 14.346 26.8813 14.2857 26.773 14.1782L26.3427 13.7478L26.0156 15.056C25.9849 15.1804 25.9134 15.2909 25.8125 15.37C25.7116 15.449 25.5872 15.492 25.4591 15.4921H24.3115V14.3446H25.0115L25.4763 12.4855C25.5008 12.3874 25.5509 12.2975 25.6215 12.2249C25.692 12.1524 25.7805 12.0998 25.8779 12.0724C25.976 12.0449 26.0796 12.0436 26.1783 12.0688C26.277 12.094 26.3673 12.1447 26.4402 12.2159L27.1804 12.9618L27.9205 12.2159C27.9934 12.1447 28.0838 12.094 28.1825 12.0688C28.2812 12.0436 28.3848 12.0449 28.4828 12.0724C28.5803 12.0998 28.6687 12.1524 28.7393 12.2249C28.8098 12.2975 28.8599 12.3874 28.8845 12.4855L29.3492 14.3446H30.0492Z" fill="white"/>
<path id="Vector_10" d="M8.8201 10.3281C9.61447 10.3281 10.391 10.0926 11.0515 9.65125C11.712 9.20993 12.2268 8.58265 12.5308 7.84875C12.8348 7.11485 12.9143 6.30729 12.7593 5.52818C12.6044 4.74908 12.2218 4.03343 11.6601 3.47173C11.0984 2.91002 10.3828 2.5275 9.60366 2.37252C8.82456 2.21755 8.017 2.29709 7.2831 2.60108C6.5492 2.90507 5.92192 3.41986 5.4806 4.08036C5.03927 4.74085 4.80371 5.51738 4.80371 6.31174C4.80493 7.37659 5.22847 8.39746 5.98143 9.15042C6.73438 9.90338 7.75526 10.3269 8.8201 10.3281ZM8.8201 3.44289C9.38751 3.44289 9.94217 3.61115 10.414 3.92638C10.8857 4.24161 11.2534 4.68967 11.4706 5.21388C11.6877 5.7381 11.7445 6.31493 11.6338 6.87143C11.5231 7.42793 11.2499 7.93911 10.8487 8.34033C10.4475 8.74155 9.93629 9.01478 9.37979 9.12547C8.82329 9.23617 8.24646 9.17935 7.72224 8.96222C7.19803 8.74508 6.74997 8.37737 6.43474 7.90559C6.11951 7.43381 5.95125 6.87915 5.95125 6.31174C5.95216 5.55116 6.25471 4.82198 6.79253 4.28417C7.33034 3.74635 8.05952 3.4438 8.8201 3.44289Z" fill="white"/>
<path id="Vector_11" d="M8.24609 0.000244141H9.39363V1.14779H8.24609V0.000244141Z" fill="white"/>
<path id="Vector_12" d="M12.0645 2.25555L12.8759 1.44412L13.6873 2.25555L12.8759 3.06699L12.0645 2.25555Z" fill="white"/>
<path id="Vector_13" d="M13.9844 5.73792H15.1319V6.88546H13.9844V5.73792Z" fill="white"/>
<path id="Vector_14" d="M12.0635 10.3689L12.8749 9.55746L13.6863 10.3689L12.8749 11.1803L12.0635 10.3689Z" fill="white"/>
<path id="Vector_15" d="M8.24609 11.4757H9.39363V12.6232H8.24609V11.4757Z" fill="white"/>
<path id="Vector_16" d="M3.9502 10.3679L4.76163 9.55649L5.57306 10.3679L4.76163 11.1794L3.9502 10.3679Z" fill="white"/>
<path id="Vector_17" d="M2.50879 5.73798H3.65633V6.88552H2.50879V5.73798Z" fill="white"/>
<path id="Vector_18" d="M3.95117 2.25458L4.76261 1.44314L5.57404 2.25458L4.76261 3.06601L3.95117 2.25458Z" fill="white"/>
</g>
</g>
<defs>
<clipPath id="clip0_2091_3260">
<rect width="35" height="35" fill="white" transform="translate(0.5 0.000244141)"/>
</clipPath>
</defs>
</svg>
