<svg width="36" height="35" viewBox="0 0 36 35" fill="none" xmlns="http://www.w3.org/2000/svg">
<g id="solar-energy (1)" clip-path="url(#clip0_2091_3280)">
<g id="house-solar power">
<path id="Vector" d="M7.49935 25.6669C6.88051 25.6669 6.28702 25.9128 5.84943 26.3503C5.41185 26.7879 5.16602 27.3814 5.16602 28.0003V30.3336C5.16602 30.4883 5.22747 30.6367 5.33687 30.7461C5.44627 30.8555 5.59464 30.9169 5.74935 30.9169H9.24935C9.40406 30.9169 9.55243 30.8555 9.66183 30.7461C9.77122 30.6367 9.83268 30.4883 9.83268 30.3336V28.0003C9.83268 27.3814 9.58685 26.7879 9.14926 26.3503C8.71168 25.9128 8.11819 25.6669 7.49935 25.6669ZM8.66602 29.7503H6.33268V28.0003C6.33268 27.6908 6.4556 27.3941 6.67439 27.1753C6.89318 26.9565 7.18993 26.8336 7.49935 26.8336C7.80877 26.8336 8.10551 26.9565 8.32431 27.1753C8.5431 27.3941 8.66602 27.6908 8.66602 28.0003V29.7503Z" fill="white"/>
<path id="Vector_2" d="M14.4993 25.6669C13.8805 25.6669 13.287 25.9128 12.8494 26.3503C12.4118 26.7879 12.166 27.3814 12.166 28.0003V30.3336C12.166 30.4883 12.2275 30.6367 12.3369 30.7461C12.4463 30.8555 12.5946 30.9169 12.7493 30.9169H16.2493C16.4041 30.9169 16.5524 30.8555 16.6618 30.7461C16.7712 30.6367 16.8327 30.4883 16.8327 30.3336V28.0003C16.8327 27.3814 16.5868 26.7879 16.1493 26.3503C15.7117 25.9128 15.1182 25.6669 14.4993 25.6669ZM15.666 29.7503H13.3327V28.0003C13.3327 27.6908 13.4556 27.3941 13.6744 27.1753C13.8932 26.9565 14.1899 26.8336 14.4993 26.8336C14.8088 26.8336 15.1055 26.9565 15.3243 27.1753C15.5431 27.3941 15.666 27.6908 15.666 28.0003V29.7503Z" fill="white"/>
<path id="Vector_3" d="M8.08333 10.5003C8.89094 10.5003 9.68041 10.2608 10.3519 9.81212C11.0234 9.36344 11.5468 8.72571 11.8558 7.97958C12.1649 7.23345 12.2458 6.41242 12.0882 5.62033C11.9307 4.82825 11.5417 4.10067 10.9707 3.5296C10.3996 2.95854 9.67204 2.56964 8.87995 2.41208C8.08786 2.25452 7.26684 2.33539 6.52071 2.64445C5.77458 2.9535 5.13685 3.47687 4.68817 4.14838C4.23948 4.81988 4 5.60935 4 6.41695C4.00139 7.49949 4.43204 8.5373 5.19752 9.30277C5.96299 10.0682 7.00079 10.4989 8.08333 10.5003ZM8.08333 3.50029C8.6602 3.50029 9.2241 3.67135 9.70375 3.99183C10.1834 4.31232 10.5572 4.76784 10.778 5.30079C10.9987 5.83374 11.0565 6.42019 10.944 6.98597C10.8314 7.55174 10.5536 8.07144 10.1457 8.47935C9.73782 8.88725 9.21812 9.16504 8.65235 9.27758C8.08657 9.39012 7.50012 9.33236 6.96717 9.1116C6.43422 8.89085 5.9787 8.51701 5.65821 8.03737C5.33773 7.55772 5.16667 6.99382 5.16667 6.41695C5.16759 5.64369 5.47518 4.90236 6.02196 4.35558C6.56874 3.8088 7.31007 3.50121 8.08333 3.50029Z" fill="white"/>
<path id="Vector_4" d="M7.5 0.000244141H8.66667V1.16691H7.5V0.000244141Z" fill="white"/>
<path id="Vector_5" d="M11.3809 2.29315L12.2058 1.46819L13.0308 2.29315L12.2058 3.11811L11.3809 2.29315Z" fill="white"/>
<path id="Vector_6" d="M13.333 5.83356H14.4997V7.00022H13.333V5.83356Z" fill="white"/>
<path id="Vector_7" d="M11.3799 10.5422L12.2048 9.71728L13.0298 10.5422L12.2048 11.3672L11.3799 10.5422Z" fill="white"/>
<path id="Vector_8" d="M7.5 11.6669H8.66667V12.8335H7.5V11.6669Z" fill="white"/>
<path id="Vector_9" d="M3.13184 10.5406L3.95679 9.71569L4.78175 10.5406L3.95679 11.3656L3.13184 10.5406Z" fill="white"/>
<path id="Vector_10" d="M1.66602 5.83356H2.83268V7.00022H1.66602V5.83356Z" fill="white"/>
<path id="Vector_11" d="M3.13281 2.29211L3.95777 1.46716L4.78273 2.29211L3.95777 3.11707L3.13281 2.29211Z" fill="white"/>
<path id="Vector_12" d="M32.5829 5.8336H24.3637C24.2252 5.019 23.8032 4.27956 23.1724 3.74587C22.5416 3.21218 21.7425 2.91858 20.9162 2.91693H18.5829C18.4282 2.91693 18.2798 2.97839 18.1704 3.08779C18.061 3.19718 17.9995 3.34555 17.9995 3.50026V4.0836H15.6662V5.25026H17.9995V7.5836H15.6662V8.75026H17.9995V9.3336C17.9995 9.48831 18.061 9.63668 18.1704 9.74608C18.2798 9.85547 18.4282 9.91693 18.5829 9.91693H20.9162C21.7425 9.91528 22.5416 9.62168 23.1724 9.088C23.8032 8.55431 24.2252 7.81486 24.3637 7.00026H32.5829C33.0466 7.00165 33.4909 7.18647 33.8188 7.51436C34.1467 7.84225 34.3315 8.28656 34.3329 8.75026V29.1669C34.3315 29.6306 34.1467 30.0749 33.8188 30.4028C33.4909 30.7307 33.0466 30.9155 32.5829 30.9169H28.4995V24.5003C28.5958 24.5002 28.6906 24.4763 28.7754 24.4307C28.8602 24.3851 28.9323 24.3192 28.9855 24.2389C29.0386 24.1586 29.0711 24.0664 29.0799 23.9705C29.0888 23.8747 29.0737 23.7781 29.0362 23.6894L25.5362 15.5228H25.5304C25.5208 15.489 25.5049 15.4574 25.4837 15.4294C25.4315 15.3485 25.3598 15.2821 25.2752 15.2362C25.1906 15.1903 25.0958 15.1665 24.9995 15.1669H4.58286C4.46836 15.167 4.35641 15.2008 4.26098 15.2641C4.16555 15.3274 4.09085 15.4173 4.04619 15.5228L0.546192 23.6894C0.508642 23.7781 0.493621 23.8747 0.502468 23.9705C0.511316 24.0664 0.543756 24.1586 0.596897 24.2389C0.650037 24.3192 0.722224 24.3851 0.807018 24.4307C0.891813 24.4763 0.986577 24.5002 1.08286 24.5003H1.66619V34.4169C1.66619 34.5716 1.72765 34.72 1.83705 34.8294C1.94644 34.9388 2.09482 35.0003 2.24953 35.0003H27.9162C28.0709 35.0003 28.2193 34.9388 28.3287 34.8294C28.4381 34.72 28.4995 34.5716 28.4995 34.4169V32.0836H32.5829C33.3564 32.0836 34.0983 31.7763 34.6453 31.2293C35.1922 30.6823 35.4995 29.9405 35.4995 29.1669V8.75026C35.4995 7.97672 35.1922 7.23485 34.6453 6.68787C34.0983 6.14089 33.3564 5.8336 32.5829 5.8336ZM20.9162 8.75026H19.1662V4.0836H20.9162C21.535 4.0836 22.1285 4.32943 22.5661 4.76702C23.0037 5.2046 23.2495 5.79809 23.2495 6.41693C23.2495 7.03577 23.0037 7.62926 22.5661 8.06685C22.1285 8.50443 21.535 8.75026 20.9162 8.75026ZM19.1662 33.8336H2.83286V24.5003H19.1662V33.8336ZM1.96952 23.3336L4.96786 16.3336H24.1129L21.1145 23.3336H1.96952ZM24.9995 33.8336H22.6662V29.1669C22.6662 28.8575 22.7891 28.5608 23.0079 28.342C23.2267 28.1232 23.5234 28.0003 23.8329 28.0003C24.1423 28.0003 24.439 28.1232 24.6578 28.342C24.8766 28.5608 24.9995 28.8575 24.9995 29.1669V33.8336ZM27.3329 33.8336H26.1662V29.1669C26.1662 28.5481 25.9204 27.9546 25.4828 27.517C25.0452 27.0794 24.4517 26.8336 23.8329 26.8336C23.214 26.8336 22.6205 27.0794 22.1829 27.517C21.7454 27.9546 21.4995 28.5481 21.4995 29.1669V33.8336H20.3329V24.5003H27.3329V33.8336ZM22.3862 23.3336L24.9995 17.2319L27.6129 23.3336H22.3862Z" fill="white"/>
</g>
</g>
<defs>
<clipPath id="clip0_2091_3280">
<rect width="35" height="35" fill="white" transform="translate(0.5 0.000244141)"/>
</clipPath>
</defs>
</svg>
