<svg width="80" height="80" viewBox="0 0 80 80" fill="none" xmlns="http://www.w3.org/2000/svg">
<g id="042-trees">
<g clip-path="url(#clip0_2120_3901)">
<g id="Group">
<g id="Group_2">
<path id="Vector" d="M75.4437 58.5536C78.4352 52.8534 80 46.4362 80 40C80 39.1372 79.3005 38.4375 78.4375 38.4375H74.2734C74.5852 37.4087 75.1947 36.5003 76.0117 35.8688C76.7572 35.4367 77.0123 34.4825 76.5813 33.7359C76.1497 32.9888 75.1939 32.7328 74.4469 33.1641H74.4466C74.3703 33.208 73.387 33.7909 72.4775 35.0317C71.568 33.7909 70.5847 33.208 70.5084 33.1641V33.1642L70.5083 33.1641C69.7612 32.7328 68.8055 32.9888 68.3739 33.7359C67.943 34.4825 68.1981 35.4367 68.9434 35.8688C69.7731 36.4862 70.3802 37.4002 70.6877 38.4375H57.2905V36.0797H57.7016C61.8011 36.0797 65.2884 33.0173 65.8134 28.9581C65.825 28.8695 65.8673 28.7909 65.9339 28.7361C67.8248 27.1747 68.9094 24.8744 68.9094 22.425C68.9094 19.1928 66.9994 16.2564 64.0441 14.9441C63.9645 14.9086 63.9091 14.7981 63.9094 14.6753C63.9094 14.6741 63.9094 14.6591 63.9094 14.6578C63.9094 12.4208 63.0233 10.3317 61.4144 8.77594C59.8055 7.22031 57.6841 6.40391 55.4439 6.48047C53.2717 6.55437 51.2553 7.49188 49.7961 9.03219C49.5342 4.02922 45.3267 0.00203125 40.2855 0C40.2841 0 40.2828 0 40.2814 0C37.7364 0 35.3434 0.990781 33.5434 2.79C31.8364 4.49625 30.8578 6.73625 30.7602 9.13359C29.2953 7.53359 27.2405 6.55703 25.0164 6.48047C22.7766 6.40547 20.6555 7.22031 19.0464 8.77594C17.4375 10.3317 16.5514 12.4206 16.5514 14.6578V14.675C16.5516 14.8002 16.498 14.9078 16.4172 14.9438C13.4622 16.2559 11.553 19.1925 11.553 22.425C11.553 24.8752 12.6369 27.1753 14.528 28.7369C14.5934 28.7909 14.6358 28.8694 14.6472 28.9564C15.1723 33.0172 18.6598 36.0795 22.7592 36.0795H23.1706V38.4375H23.1608H9.41C9.72172 37.4087 10.3313 36.5003 11.1483 35.8688C11.8938 35.4367 12.1489 34.4825 11.7178 33.7359C11.2863 32.9888 10.3305 32.7328 9.58344 33.1641C9.58344 33.1641 9.58328 33.1641 9.58328 33.1642L9.58344 33.1641C9.50719 33.208 8.52375 33.7909 7.61422 35.0317C6.70469 33.7909 5.72141 33.208 5.64516 33.1641V33.1642L5.645 33.1641C4.89797 32.7328 3.94219 32.9888 3.51063 33.7359C3.07969 34.4825 3.33484 35.4367 4.08016 35.8688C4.90984 36.4862 5.51688 37.4002 5.82438 38.4375H1.5625C0.699531 38.4375 0 39.1372 0 40C0 50.6844 4.16063 60.7292 11.7156 68.2844C19.2708 75.8392 29.3156 80 40 80C42.6889 80 45.3792 79.7306 47.9963 79.1995C48.8419 79.028 49.3883 78.2033 49.2167 77.3575C49.045 76.5119 48.2209 75.9647 47.3747 76.137C44.9619 76.6267 42.4806 76.875 40 76.875C32.8667 76.875 26.0434 74.8619 20.1766 71.1067V58.4859C20.1766 57.4556 19.7752 56.4852 19.0437 55.7509L16 52.7092C15.2695 51.9787 14.2984 51.5766 13.2656 51.5766H4.97047C3.91516 48.3727 3.3 45.01 3.15734 41.5625H21.5984V46.0775C21.5984 47.7042 22.232 49.2337 23.3823 50.3844L28.6202 55.622C29.1803 56.1823 29.4889 56.9273 29.4889 57.7195V63.0402C29.4889 66.3988 32.2214 69.1312 35.58 69.1312H43.625C44.643 69.1312 45.6397 68.7183 46.3595 67.9986L53.377 60.9811C54.5275 59.8306 55.1609 58.3011 55.1609 56.6742V47.5548C55.1609 46.5342 54.7473 45.5366 54.0283 44.8202L50.7706 41.5625H76.8419C76.7355 44.0731 76.3719 46.5603 75.7652 48.9828H68.6484C66.4506 48.9828 64.6625 50.7708 64.6625 52.9688V55.0656C64.6625 56.1155 65.0878 57.143 65.8295 57.8847L69.74 61.7952C66.9567 65.5825 63.4608 68.8344 59.4588 71.3258C58.7263 71.7819 58.502 72.7455 58.9581 73.478C59.4141 74.2105 60.3775 74.4347 61.1103 73.9786C67.1398 70.2248 72.1456 64.8448 75.4437 58.5536ZM13.2656 54.7016C13.4639 54.7016 13.6503 54.7788 13.7908 54.9194L16.832 57.9591C16.9716 58.0991 17.0516 58.2911 17.0516 58.4861V68.8631C12.3452 65.1059 8.57641 60.203 6.17391 54.7016H13.2656ZM54.1655 38.4375H41.8438V34.9978H42.6566C44.535 34.9978 46.2998 34.4461 47.7892 33.4917C49.3213 35.117 51.4853 36.0797 53.7547 36.0797H54.1653V38.4375H54.1655ZM55.5494 9.60375C56.9375 9.55609 58.2475 10.0611 59.242 11.0227C60.2366 11.9844 60.7844 13.2755 60.7844 14.6684C60.7814 16.0319 61.5625 17.2608 62.7752 17.8C64.6031 18.6116 65.7844 20.427 65.7844 22.4252C65.7844 23.9389 65.1136 25.3608 63.9453 26.3256C63.2659 26.8855 62.8289 27.6769 62.7145 28.5559C62.3902 31.0636 60.2352 32.9547 57.7016 32.9547H57.2905V30.31C57.2905 29.4472 56.5909 28.7475 55.728 28.7475C54.865 28.7475 54.1655 29.4472 54.1655 30.31V32.9547H53.7548C52.3514 32.9547 51.052 32.3909 50.1103 31.4069C51.1947 30.0453 51.8975 28.3848 52.1131 26.6573C52.1317 26.5073 52.2086 26.3584 52.3261 26.2623C54.9123 24.1487 56.223 20.7559 55.7206 17.4522C55.3503 14.9586 54.0223 12.7392 52.0073 11.2422C52.9141 10.2533 54.183 9.65031 55.5494 9.60375ZM33.8756 9.54703C33.8563 6.04656 36.7928 3.125 40.2841 3.125C43.7348 3.12656 46.6063 5.93281 46.6852 9.38078C46.7228 10.9597 47.4395 12.3639 48.9327 13.0384C52.1503 14.492 53.6044 18.4308 52.0878 21.6261C51.6859 22.4723 51.0967 23.2305 50.3478 23.8427C49.6123 24.4448 49.1294 25.3273 49.0117 26.27C48.618 29.4252 45.8405 31.8728 42.6566 31.8728H41.8438V27.9286L46.5625 23.2097C47.1727 22.5995 47.1727 21.6102 46.5625 20.9998C45.9523 20.3898 44.963 20.3898 44.3528 20.9998L41.8438 23.5091V14.0784C41.8438 13.2156 41.1442 12.5159 40.2812 12.5159C39.4183 12.5159 38.7188 13.2156 38.7188 14.0784V17.9242L38.0311 17.2366C37.4208 16.6267 36.4316 16.6266 35.8214 17.2366C35.2113 17.8467 35.2111 18.8361 35.8214 19.4464L38.7188 22.3438V31.8728H37.9061C34.7233 31.8727 31.945 29.4292 31.5509 26.27C31.4333 25.3272 30.9498 24.4442 30.2137 23.8417C29.6523 23.3828 29.1806 22.8417 28.8103 22.2428C26.8092 19.0042 28.1666 14.6034 31.6295 13.0387C32.997 12.4205 33.8786 11.0486 33.8756 9.54703ZM22.7594 32.9547C20.2259 32.9547 18.0708 31.0634 17.7463 28.5542C17.6319 27.6767 17.1947 26.8852 16.5167 26.3264C15.3481 25.3614 14.678 23.9395 14.678 22.425C14.678 20.4267 15.8586 18.6112 17.685 17.8002C18.8977 17.2622 19.6794 16.033 19.6766 14.6578C19.6766 13.2753 20.2242 11.9844 21.2189 11.0225C22.1712 10.1016 23.4139 9.60047 24.7342 9.60047C26.1627 9.60047 27.5452 10.2245 28.4969 11.2887C26.2911 12.955 24.9089 15.5661 24.7513 18.323C24.5777 21.3583 25.8809 24.3369 28.2366 26.2619C28.3533 26.3573 28.4311 26.5089 28.4497 26.658C28.6628 28.36 29.3483 29.9937 30.405 31.3439C29.4573 32.3563 28.1172 32.9545 26.7064 32.9545H26.2961V30.3098C26.2961 29.447 25.5966 28.7473 24.7336 28.7473C23.8706 28.7473 23.1711 29.447 23.1711 30.3098V32.9545H22.7594V32.9547ZM26.2958 36.0797H26.7061C28.9997 36.0797 31.1766 35.1022 32.71 33.4514C34.2125 34.4308 36.0009 34.9977 37.9058 34.9978H38.7186V38.4375H26.2956L26.2958 36.0797ZM51.8206 47.0319C51.9575 47.1683 52.0359 47.3589 52.0359 47.5548V56.6742C52.0359 57.4664 51.7273 58.2114 51.1672 58.7716L44.1497 65.7889C44.0116 65.9272 43.8203 66.0064 43.625 66.0064H35.5802C33.9447 66.0064 32.6141 64.6758 32.6141 63.0403V57.7197C32.6141 56.0928 31.9805 54.5633 30.8302 53.4127L25.5923 48.175C25.0322 47.6147 24.7236 46.8697 24.7236 46.0777V41.5625H46.3514L51.8206 47.0319ZM68.0392 55.6748C67.8792 55.515 67.7875 55.2928 67.7875 55.0656V52.9688C67.7875 52.4941 68.1738 52.1078 68.6484 52.1078H74.8341C73.982 54.5647 72.8694 56.9309 71.5159 59.1517L68.0392 55.6748Z" fill="white"/>
<path id="Vector_2" d="M55.5282 75.1766C55.201 74.3905 54.2752 74.0052 53.4875 74.3312C52.6999 74.6573 52.3192 75.5864 52.6438 76.3719C52.9691 77.1591 53.8958 77.5422 54.6828 77.2172C55.4725 76.8909 55.8508 75.9645 55.5282 75.1766Z" fill="white"/>
</g>
</g>
</g>
</g>
<defs>
<clipPath id="clip0_2120_3901">
<rect width="80" height="80" rx="30" fill="white"/>
</clipPath>
</defs>
</svg>
