<svg width="45" height="45" viewBox="0 0 45 45" fill="none" xmlns="http://www.w3.org/2000/svg">
<g id="020-trees" clip-path="url(#clip0_2118_439)">
<g id="Group">
<g id="Group_2">
<path id="Vector" d="M40.1605 41.488H36.0257L37.1259 40.0913C37.4263 39.71 37.3607 39.1574 36.9793 38.857C36.5981 38.5568 36.0454 38.6224 35.7451 39.0036L34.2094 40.9533L32.6456 38.9985C32.3426 38.6195 31.7893 38.558 31.4103 38.8611C31.0312 39.1643 30.9697 39.7174 31.2729 40.0965L32.3861 41.488H26.3926V36.3532H28.9682C32.2368 36.3532 34.9195 33.7265 34.9483 30.4979C34.9659 28.5501 34.0232 26.7196 32.4262 25.6013C32.1267 25.3917 31.9481 25.0453 31.9486 24.6735V24.6621C31.9486 20.9983 28.9683 18.0176 25.3049 18.0176C23.7105 18.0176 22.1919 18.5845 20.9995 19.6007C20.5757 19.0987 20.067 18.6597 19.484 18.3041C18.9518 17.9795 18.6452 17.3843 18.6839 16.7508C18.8885 13.3839 16.1964 10.3728 12.8206 10.2221C9.24175 10.062 6.21736 13.096 6.39173 16.6741C6.42249 17.3045 6.09379 17.8948 5.53401 18.2145C3.61818 19.3087 2.42806 21.3573 2.42806 23.561C2.42806 24.3269 2.56763 25.0749 2.84281 25.7839C3.01754 26.2341 2.983 26.746 2.75044 27.1535C2.23514 28.0566 1.9567 29.0853 1.94519 30.1287C1.92717 31.7596 2.55928 33.3071 3.72532 34.4861C4.899 35.6728 6.52269 36.3535 8.17995 36.3535H11.554V41.4882H6.88928L7.2774 40.9955C7.57781 40.6141 7.51216 40.0616 7.1308 39.7613C6.74945 39.4608 6.19688 39.5266 5.89656 39.9078L5.07285 40.9535L4.23227 39.9026C3.92922 39.5236 3.37604 39.4621 2.99697 39.7652C2.6179 40.0684 2.55638 40.6215 2.8596 41.0006L3.24966 41.4882H0.878903C0.393573 41.4882 0 41.8817 0 42.3671C0 42.8525 0.393573 43.246 0.878903 43.246H40.1605C40.6458 43.246 41.0394 42.8525 41.0394 42.3671C41.0394 41.8817 40.6459 41.488 40.1605 41.488ZM25.3049 19.7754C27.9989 19.7754 30.1908 21.9675 30.1908 24.6621V24.6723C30.1895 25.6171 30.6484 26.5027 31.4181 27.0414C32.5405 27.8273 33.203 29.1135 33.1904 30.4821V30.4823C33.1703 32.7503 31.2762 34.5955 28.9682 34.5955H26.3926V31.6652L28.8144 29.2433C29.1576 28.9001 29.1576 28.3436 28.8144 28.0003C28.4711 27.6571 27.9147 27.6571 27.5714 28.0003L26.3926 29.1791V26.2946C26.3926 25.8092 25.999 25.4157 25.5137 25.4157C25.0283 25.4157 24.6348 25.8092 24.6348 26.2946V31.3005V31.3014V34.5954H21.6416C21.4514 34.5954 21.2616 34.5826 21.0739 34.5573C22.2569 33.4015 22.9388 31.7837 22.9205 30.1286C22.9089 29.0851 22.6304 28.0563 22.1152 27.1534C21.8827 26.7459 21.8481 26.234 22.0228 25.7838C22.3392 24.9685 22.4767 24.0884 22.4275 23.2155C22.3872 22.4809 22.2194 21.7739 21.9381 21.1199C22.842 20.2596 24.0412 19.7754 25.3049 19.7754ZM8.17986 34.5955C6.97146 34.5955 5.83337 34.1176 4.97512 33.2498C4.14192 32.4073 3.68999 31.3057 3.70273 30.148C3.71099 29.4028 3.90962 28.6685 4.27709 28.0246C4.77666 27.1491 4.85119 26.1006 4.48144 25.1477C4.28527 24.6423 4.18578 24.1084 4.18578 23.5608C4.18578 21.9865 5.03638 20.5228 6.40562 19.7407C7.5431 19.0911 8.21054 17.8832 8.14734 16.5882C8.02236 14.03 10.1845 11.8636 12.7422 11.978C15.1552 12.0856 17.0752 14.2382 16.9293 16.6435C16.8508 17.9287 17.4789 19.1399 18.5685 19.8045C19.2114 20.1966 19.7271 20.7309 20.0884 21.3534C20.0961 21.3693 20.104 21.3852 20.1128 21.4007C20.4369 21.9732 20.6274 22.6155 20.6705 23.2736C20.7111 23.9103 20.6144 24.5526 20.3837 25.1477C20.014 26.0994 20.0885 27.1477 20.588 28.0241C20.9554 28.6679 21.154 29.4024 21.1626 30.1482C21.191 32.5753 19.0929 34.5953 16.6856 34.5953H13.3115V31.8398L16.8625 28.2888C17.2057 27.9456 17.2057 27.389 16.8625 27.0458C16.5192 26.7026 15.9628 26.7026 15.6194 27.0458L13.3114 29.3538V27.2629C13.3114 27.2626 13.3114 27.2623 13.3114 27.262V21.7731C13.3114 21.2877 12.9179 20.8942 12.4325 20.8942C11.9472 20.8942 11.5536 21.2877 11.5536 21.7731V25.1406L9.62698 23.214C9.28368 22.8708 8.72733 22.8708 8.38394 23.214C8.04073 23.5572 8.04073 24.1137 8.38394 24.4569L11.5535 27.6265V34.5952H8.17986V34.5955ZM13.3117 36.3533H16.6858C17.5459 36.3533 18.3964 36.1685 19.1802 35.8261C19.951 36.1716 20.7931 36.3531 21.6416 36.3531H24.6348V41.488H13.3117V36.3533Z" fill="#1D8F2C"/>
<path id="Vector_2" d="M44.9835 42.1954C44.8885 41.7272 44.4197 41.411 43.9499 41.5055C43.4821 41.5996 43.1638 42.0691 43.2591 42.5391C43.3538 43.0068 43.8236 43.324 44.2928 43.229C44.76 43.1343 45.0788 42.6653 44.9835 42.1954Z" fill="#1D8F2C"/>
<path id="Vector_3" d="M44.1372 6.49648C44.1372 3.88147 42.0101 1.75391 39.3955 1.75391C37.9758 1.75391 36.65 2.38777 35.7589 3.45266C34.9365 3.02015 34.0019 2.77678 33.0155 2.77678C30.6009 2.77678 28.4602 4.23066 27.5589 6.43733C25.5537 6.65609 23.959 8.35555 23.9197 10.4129C23.8772 12.632 25.6755 14.4957 27.9281 14.5676C28.4171 14.5838 28.8192 14.2023 28.8346 13.7171C28.8501 13.232 28.4693 12.8261 27.9842 12.8106C26.6879 12.7693 25.653 11.7088 25.6771 10.4466C25.701 9.19209 26.7419 8.17142 27.9986 8.17142H27.9996C28.494 8.17142 28.9281 7.85826 29.08 7.39183C29.6363 5.68288 31.2178 4.53468 33.0154 4.53468C35.0856 4.53468 36.8856 6.13306 37.1252 8.18979C37.2087 8.90724 37.8352 9.43889 38.5573 9.40136C39.4856 9.35179 40.311 10.0942 40.3525 11.027C40.3953 11.9865 39.6089 12.8129 38.6473 12.8129H35.689C35.2037 12.8129 34.8101 13.2064 34.8101 13.6918C34.8101 14.1772 35.2037 14.5707 35.689 14.5707H38.6473C40.5976 14.5707 42.1952 12.8962 42.1086 10.9489C42.1008 10.7719 42.0787 10.5983 42.0448 10.4288C43.336 9.55648 44.1372 8.08555 44.1372 6.49648ZM41.2576 8.82831C40.6443 8.12817 39.7514 7.69224 38.8216 7.6453C38.6147 6.45843 38.0325 5.34688 37.1794 4.49706C37.7385 3.87752 38.54 3.51181 39.3955 3.51181C41.0409 3.51181 42.3794 4.85073 42.3794 6.49657C42.3794 7.41406 41.9552 8.26933 41.2576 8.82831Z" fill="#1D8F2C"/>
<path id="Vector_4" d="M31.1443 14.1794C31.4066 14.5796 31.9666 14.6874 32.3625 14.4229C32.7619 14.1559 32.8697 13.6029 32.6051 13.2038C32.3402 12.8044 31.7846 12.6973 31.387 12.9612C30.9909 13.224 30.8745 13.7847 31.1443 14.1794Z" fill="#1D8F2C"/>
</g>
</g>
</g>
<defs>
<clipPath id="clip0_2118_439">
<rect width="45" height="45" fill="white"/>
</clipPath>
</defs>
</svg>
