<svg width="45" height="45" viewBox="0 0 45 45" fill="none" xmlns="http://www.w3.org/2000/svg">
<g id="018-green energy">
<g id="Group">
<g id="Group_2">
<path id="Vector" d="M16.457 33.5689C16.457 36.6001 18.7022 39.1159 21.6168 39.5429V40.5095C21.6168 40.995 22.0103 41.3884 22.4957 41.3884C22.9811 41.3884 23.3746 40.995 23.3746 40.5095V39.5429C26.2892 39.1159 28.5343 36.6001 28.5343 33.5689C28.5343 32.8484 28.3456 32.1368 27.9886 31.5111L23.2591 23.2233C22.9285 22.6442 22.063 22.6444 21.7323 23.2233L17.0027 31.5111C16.6458 32.1369 16.457 32.8485 16.457 33.5689ZM18.2148 33.5689C18.2148 33.4618 18.2224 33.355 18.2366 33.2492L21.6167 36.4374V37.7586C19.6766 37.3521 18.2148 35.6282 18.2148 33.5689ZM23.3746 26.9724L24.7663 29.411L23.3746 30.6946V26.9724ZM21.6168 34.0212L19.0019 31.5547L21.6168 26.9724V34.0212ZM23.3746 37.7586V33.0862L25.6603 30.9778L26.4619 32.3824C26.6677 32.7431 26.7765 33.1534 26.7765 33.5689C26.7765 35.6282 25.3148 37.3521 23.3746 37.7586Z" fill="#1D8F2C"/>
<path id="Vector_2" d="M32.133 23.0658C29.9227 20.6613 26.9203 19.1774 23.6794 18.8873C23.5106 18.8723 23.3784 18.7262 23.3784 18.5549V14.7588H25.4879C27.5304 14.7588 29.1921 13.0971 29.1921 11.0545V5.19398C29.1921 4.70856 28.7985 4.31508 28.3132 4.31508H26.5048V0.878906C26.5048 0.393486 26.1112 0 25.6259 0C25.1405 0 24.747 0.393486 24.747 0.878906V4.31508H20.2427V0.878906C20.2427 0.393486 19.8493 0 19.3638 0C18.8784 0 18.4849 0.393486 18.4849 0.878906V4.31508H16.6765C16.1911 4.31508 15.7976 4.70856 15.7976 5.19398V11.0546C15.7976 13.0971 17.4592 14.7589 19.5018 14.7589H21.6207V18.5549C21.6207 19.6457 22.4384 20.5413 23.5228 20.6383C26.3271 20.8891 28.9254 22.1738 30.839 24.2555C32.7641 26.3496 33.8244 29.0707 33.8244 31.9173C33.8244 34.9392 32.6456 37.7822 30.505 39.9228C28.3645 42.0634 25.5215 43.2422 22.4994 43.2422C16.2551 43.2421 11.1748 38.1618 11.1748 31.9175C11.1748 28.1646 13.0299 24.6617 16.1372 22.5474C16.5385 22.2743 16.6425 21.7276 16.3694 21.3263C16.0964 20.925 15.5497 20.8211 15.1483 21.0941C11.5595 23.5361 9.41699 27.5822 9.41699 31.9175C9.41699 39.1311 15.2857 44.9999 22.4994 45H22.4996C25.9908 45 29.2755 43.6382 31.748 41.1658C34.2205 38.6932 35.5822 35.4088 35.5821 31.9173C35.5821 28.6288 34.3572 25.4853 32.133 23.0658ZM17.5554 11.0546V6.07289H27.4343V11.0546C27.4343 12.1279 26.5611 13.001 25.4879 13.001H19.5017C18.4286 13.001 17.5554 12.1279 17.5554 11.0546Z" fill="#1D8F2C"/>
<path id="Vector_3" d="M25.0248 9.29639C25.0248 8.81097 24.6312 8.41748 24.1459 8.41748H20.6934C20.2079 8.41748 19.8145 8.81097 19.8145 9.29639C19.8145 9.78181 20.2079 10.1753 20.6934 10.1753H24.1459C24.6313 10.1753 25.0248 9.78181 25.0248 9.29639Z" fill="#1D8F2C"/>
<path id="Vector_4" d="M18.399 20.6726C18.604 20.9773 18.9868 21.1266 19.3436 21.0369C19.7301 20.9399 20.008 20.5831 20.0091 20.1848C20.0114 19.4261 19.0685 19.0282 18.5227 19.5501C18.2188 19.8408 18.1656 20.3223 18.399 20.6726Z" fill="#1D8F2C"/>
</g>
</g>
</g>
</svg>
