<svg width="45" height="45" viewBox="0 0 45 45" fill="none" xmlns="http://www.w3.org/2000/svg">
<g id="002-recycle" clip-path="url(#clip0_2118_294)">
<g id="Group">
<g id="Group_2">
<path id="Vector" d="M10.5056 14.5897L13.6487 16.6082C14.7493 17.3149 16.2649 16.8996 16.8536 15.735L18.7872 11.9095C19.6274 10.2854 20.7667 8.86952 22.1735 7.70154L23.0262 6.99357L23.2651 7.20521C24.6159 8.40326 25.7258 9.87913 26.5061 11.5075L25.7647 11.9075C24.4982 12.5921 24.6872 14.5256 26.0602 14.9533L32.5288 16.9675C33.3968 17.239 34.3458 16.7347 34.611 15.8675L36.6237 9.27391C37.0472 7.88453 35.5268 6.6377 34.2464 7.32826L33.6682 7.64072C32.6641 5.51647 31.1724 3.63472 29.3307 2.17485L28.2268 1.29858C28.0704 1.17448 27.8679 1.1046 27.6682 1.10829H18.7056C18.5275 1.10829 18.3536 1.16235 18.207 1.26342L16.6196 2.35679C14.5853 3.75795 12.9016 5.65376 11.7504 7.83926L9.73521 11.6652C9.18994 12.7003 9.52111 13.9575 10.5056 14.5897ZM32.2723 8.82013C32.3511 9.00294 32.4165 9.20948 32.532 9.37296C32.7848 9.73085 33.2804 9.84819 33.6669 9.63945L34.8731 8.98765L32.9584 15.2602L26.8043 13.344L28.0563 12.6684C28.4516 12.4552 28.6225 11.9782 28.4526 11.5625C27.5696 9.40161 26.179 7.44015 24.4312 5.88992L24.3946 5.85749L27.6928 3.11907L28.2382 3.55202C29.992 4.94211 31.3869 6.76374 32.2723 8.82013ZM11.2904 12.4843L13.3056 8.65841C14.3248 6.7234 15.8156 5.04494 17.6167 3.80435L18.9789 2.86612H25.2456L21.0506 6.34907C19.4616 7.6684 18.1748 9.2674 17.222 11.1092L15.2847 14.9421C15.1582 15.1921 14.8348 15.281 14.5983 15.129L11.4552 13.1106C11.2446 12.9753 11.1736 12.7061 11.2904 12.4843Z" fill="#1D8F2C"/>
<path id="Vector_2" d="M40.7011 39.3598C40.7284 39.309 44.9008 31.2937 44.9008 31.2937C44.9829 31.1356 45.0151 30.9565 44.993 30.7798L44.7546 28.867C44.449 26.4159 43.5428 24.0478 42.1341 22.0186L39.6716 18.4719C39.0119 17.5218 37.7118 17.2324 36.7112 17.8131L33.5175 19.667C32.9762 19.9813 32.589 20.5122 32.4553 21.1236C32.3217 21.7351 32.4518 22.3791 32.8125 22.8906L35.2781 26.3868C36.3321 27.881 37.0632 29.5447 37.4512 31.3316L37.6864 32.4149L37.3882 32.5293C35.7031 33.1759 33.8816 33.4802 32.0764 33.4222L32.063 32.5806C32.0409 31.1425 30.2388 30.4143 29.224 31.4383L24.4542 36.2503C23.8146 36.8954 23.8224 37.9683 24.4711 38.6042L29.3945 43.4292C30.434 44.4485 32.2387 43.6671 32.2167 42.2173L32.2064 41.5602C34.5542 41.6484 36.9113 41.192 39.0561 40.2307L40.3428 39.655C40.4853 39.5913 40.6107 39.487 40.7011 39.3598ZM36.7146 25.3738L34.2491 21.8776C34.0887 21.6504 34.1601 21.3266 34.4001 21.1873L37.5938 19.3335C37.8057 19.2104 38.0881 19.2735 38.2277 19.4745L40.6901 23.0213C41.9374 24.8178 42.7397 26.9144 43.0102 29.0846L43.2148 30.7261L40.3261 36.2866L39.5647 32.7787C39.5638 32.7746 39.5624 32.7709 39.5614 32.7668L39.1689 30.9588C38.7307 28.9405 37.9049 27.0614 36.7146 25.3738ZM31.8045 39.7781C31.5958 39.7626 31.3664 39.7207 31.1584 39.7577C30.74 39.8322 30.4269 40.2116 30.4337 40.6369L30.4554 42.0077L25.7719 37.4178L30.3091 32.8406L30.3317 34.263C30.3388 34.712 30.6834 35.0835 31.1306 35.1242C33.4563 35.3367 35.8379 35.0068 38.018 34.1704L38.0637 34.1528L38.9733 38.3419L38.3376 38.6263C36.2954 39.5419 34.0359 39.9401 31.8045 39.7781Z" fill="#1D8F2C"/>
<path id="Vector_3" d="M17.5929 33.4149L13.7773 33.4148C11.9487 33.4147 10.1677 33.0531 8.48398 32.3401L7.46278 31.9077L7.541 31.5988C7.98468 29.8484 8.7858 28.1846 9.87407 26.7432L10.569 27.2169C11.7596 28.0289 13.3913 26.9725 13.1391 25.5561L11.9569 18.8842C11.7984 17.9903 10.9168 17.3773 10.0226 17.5412L3.24189 18.7831C1.81393 19.0446 1.40409 20.9681 2.60626 21.7879L3.14961 22.1584C1.72392 24.0261 0.73761 26.2153 0.286729 28.5221L0.0160241 29.9055C-0.0216812 30.0984 0.00776233 30.3037 0.0979386 30.478L4.22091 38.4496C4.30274 38.6077 4.43062 38.7373 4.58768 38.8212L6.28811 39.7289C6.72625 39.9627 7.18926 40.1806 7.66422 40.3764C8.113 40.5614 8.62681 40.3476 8.81182 39.8988C8.99683 39.4501 8.78299 38.9363 8.33422 38.7512C7.91287 38.5775 7.50294 38.3846 7.11587 38.1781L5.65661 37.3992L2.77783 31.8332L6.08254 33.233C6.08614 33.2345 6.08992 33.2355 6.09352 33.237L7.79852 33.959C9.70031 34.7642 11.7119 35.1727 13.7772 35.1728L17.5928 35.1729C17.8559 35.1729 18.0707 35.3869 18.0718 35.65L18.0866 39.328C18.0877 39.5935 17.8671 39.8069 17.6041 39.8089L15.6345 39.7942C15.6323 39.7942 15.6301 39.7942 15.6279 39.7942C15.1455 39.7942 14.7527 40.1834 14.7491 40.6666C14.7454 41.1519 15.136 41.5484 15.6214 41.552L17.591 41.5667C18.8202 41.5759 19.8495 40.5501 19.8444 39.3209L19.8296 35.643C19.8246 34.4143 18.8212 33.415 17.5929 33.4149ZM4.83835 22.8566C4.96834 22.698 5.12804 22.5394 5.21883 22.3541C5.40841 21.9668 5.28202 21.485 4.92545 21.2419L3.79253 20.4694L10.2433 19.288L11.3677 25.6341L10.1926 24.8332C9.82169 24.5802 9.31957 24.6476 9.02847 24.9894C7.51455 26.7666 6.41098 28.9028 5.83697 31.1672L5.82501 31.2144L1.878 29.5431L2.01177 28.8595C2.4412 26.6633 3.41847 24.5876 4.83835 22.8566Z" fill="#1D8F2C"/>
<path id="Vector_4" d="M27.6456 22.2334C27.3322 21.7129 26.7823 21.4021 26.1747 21.4021H24.398L25.9076 17.893C26.153 17.3226 25.72 16.6667 25.1003 16.6667H20.344C19.9691 16.6667 19.6355 16.9045 19.5131 17.2589L16.9853 24.5815C16.6067 25.6785 17.4494 26.8587 18.6083 26.8587H20.9571L20.0493 29.6774C19.716 30.7124 20.2781 31.8646 21.3034 32.2321C22.2511 32.5718 23.3356 32.1515 23.8063 31.2623L27.692 23.9223C27.9764 23.3854 27.959 22.754 27.6456 22.2334ZM22.2529 30.4399C22.0931 30.7415 21.6165 30.5457 21.7226 30.2162L23.0002 26.2493C23.1801 25.6906 22.7494 25.101 22.1636 25.101H18.6658L20.9704 18.4247H23.7655L22.2559 21.9338C22.0105 22.5042 22.4435 23.1601 23.0632 23.1601H26.1069L22.2529 30.4399Z" fill="#1D8F2C"/>
<path id="Vector_5" d="M12.5074 40.2065C12.3257 39.7633 11.8012 39.5482 11.3595 39.731C10.9176 39.9139 10.7011 40.4373 10.8849 40.8788C11.069 41.3209 11.5889 41.5372 12.0319 41.3543C12.4738 41.1719 12.6913 40.648 12.5074 40.2065Z" fill="#1D8F2C"/>
</g>
</g>
</g>
<defs>
<clipPath id="clip0_2118_294">
<rect width="45" height="45" fill="white"/>
</clipPath>
</defs>
</svg>
