<svg width="45" height="45" viewBox="0 0 45 45" fill="none" xmlns="http://www.w3.org/2000/svg">
<g id="003-grow plant">
<g id="Group">
<g id="Group_2">
<path id="Vector" d="M40.4827 43.2422H35.8971L29.5795 34.1804C28.6674 32.8721 27.1708 32.091 25.5759 32.091C25.0268 32.091 24.4939 32.275 24.062 32.6044V30.5828C24.0658 30.5755 24.0706 30.569 24.0742 30.5616L24.929 28.7804C25.7632 27.0422 27.0571 25.6187 28.6653 24.6382C29.4349 25.893 30.7562 26.7623 32.2115 26.9816C32.9377 27.091 33.6895 27.0368 34.3929 26.826C34.7411 26.7216 35.6479 26.3796 36.1203 25.7349L41.1623 19.9195C41.5985 19.4165 41.3066 18.5979 40.656 18.4792L33.0845 17.0965C31.6188 16.829 30.124 17.5761 29.1702 18.6642C28.1442 19.8346 27.7057 21.454 28.0139 22.981C26.4151 23.8979 25.0654 25.1782 24.0621 26.736V11.8449C28.6177 10.9126 30.6085 8.07801 31.4758 5.80094C32.4484 3.24771 32.2283 0.891101 32.2183 0.79196C32.1864 0.471247 31.9816 0.193601 31.6844 0.0687082C31.3874 -0.0561844 31.0456 -0.0085477 30.794 0.193161L25.5084 4.43046C24.6657 5.10607 23.9723 5.91888 23.448 6.82442C23.0298 5.92899 22.4076 5.12963 21.6107 4.49084L17.7156 1.36808C17.4642 1.16655 17.1224 1.11874 16.8253 1.24354C16.5281 1.36843 16.3232 1.64608 16.2912 1.96679C16.2838 2.04203 16.1166 3.83139 16.8524 5.76332C17.5011 7.46646 18.9727 9.57944 22.3043 10.3237V22.502C21.4511 21.3814 20.3521 20.4652 19.069 19.8191C19.4216 18.5847 19.3641 17.2757 18.8905 16.0586C18.3172 14.5847 17.2042 13.4225 15.7566 12.7858C15.109 12.501 14.3948 12.3892 13.6914 12.4628C13.6914 12.4628 13.6914 12.4628 13.6913 12.4628L4.41836 13.4325C4.10451 13.4653 3.83231 13.6639 3.70522 13.9527C3.57822 14.2416 3.61575 14.5765 3.80366 14.8299L9.35562 22.3203C9.77688 22.8886 10.3418 23.3396 10.9894 23.6245C11.7625 23.9645 12.5696 24.1253 13.3646 24.1253C15.3395 24.1253 17.2372 23.1313 18.3421 21.4233C19.9979 22.2772 21.271 23.6862 21.9524 25.4376L22.3043 26.3424V32.6042C21.8725 32.2749 21.3397 32.091 20.7905 32.091C19.1956 32.091 17.6989 32.872 16.7869 34.1803L10.4695 43.2422H5.88376C5.39834 43.2422 5.00486 43.6357 5.00486 44.1211C5.00486 44.6065 5.39834 45 5.88376 45H15.3484C15.8339 45 16.2273 44.6065 16.2273 44.1211C16.2273 43.6357 15.8339 43.2422 15.3484 43.2422H12.6123L18.229 35.1857C18.8126 34.3486 19.7701 33.8489 20.7906 33.8489C20.995 33.8489 21.1918 33.9349 21.33 34.0841L21.3537 34.1096C21.824 34.6176 22.491 34.909 23.1833 34.909H23.1834H23.1835C23.8759 34.909 24.5428 34.6176 25.0132 34.1095L25.0361 34.0848C25.175 33.9349 25.3718 33.8489 25.5762 33.8489C26.5965 33.8489 27.5542 34.3486 28.1378 35.1857L33.7543 43.2422H23.2819C22.7966 43.2422 22.403 43.6357 22.403 44.1211C22.403 44.6065 22.7966 45 23.2819 45H40.4827C40.968 45 41.3616 44.6065 41.3616 44.1211C41.3616 43.6357 40.9681 43.2422 40.4827 43.2422ZM29.9974 20.5735C30.4669 19.5955 31.6127 18.6147 32.7688 18.8257L38.8253 19.9316L34.7922 24.5833C33.5853 25.9749 31.1577 25.1747 30.2528 23.8558C30.3498 23.8183 30.4473 23.7817 30.5459 23.747L33.9074 22.5656C34.3654 22.4047 34.6062 21.9029 34.4452 21.445C34.2842 20.9871 33.7827 20.7462 33.3246 20.9072L29.9631 22.0886C29.868 22.122 29.7735 22.1567 29.6796 22.1924C29.6455 21.6404 29.7516 21.0858 29.9974 20.5735ZM11.6971 22.0154C11.3288 21.8535 11.0073 21.5969 10.7678 21.2736L6.13302 15.0207L13.8742 14.2112C14.2744 14.1694 14.6806 14.2329 15.0491 14.395C16.8902 15.2048 17.853 17.1948 17.4411 19.0886L13.6471 17.4198C13.2027 17.2244 12.6841 17.4261 12.4887 17.8704C12.2934 18.3147 12.4951 18.8334 12.9394 19.0288L16.7127 20.6886C15.5806 22.2112 13.5056 22.811 11.6971 22.0154ZM26.6079 5.8019L30.4162 2.74893C30.3341 3.45294 30.1658 4.3017 29.8331 5.17515C28.8674 7.71045 26.9569 9.3388 24.1456 10.027C24.4094 8.37165 25.2745 6.87092 26.6079 5.8019ZM18.5163 5.19256C18.3534 4.77675 18.2436 4.36515 18.1702 3.98547L20.5113 5.86228C21.3516 6.53596 21.9274 7.45363 22.1712 8.47492C20.3903 7.94573 19.1634 6.84525 18.5163 5.19256Z" fill="#1D8F2C"/>
<path id="Vector_2" d="M20.1252 43.7854C19.9437 43.3427 19.4184 43.1268 18.9774 43.3099C18.5351 43.4935 18.3184 44.0148 18.5019 44.4577C18.6849 44.8995 19.2083 45.1167 19.6497 44.9324C20.091 44.748 20.3098 44.2284 20.1252 43.7854Z" fill="#1D8F2C"/>
</g>
</g>
</g>
</svg>
