<svg width="323" height="323" viewBox="0 0 323 323" fill="none" xmlns="http://www.w3.org/2000/svg">
<g opacity="0.1">
<path d="M206.3 138.292C207.288 138.328 208.464 138.355 209.807 138.355C222.421 138.355 249.311 136.018 264.529 117.529C284.581 93.1666 271.966 56.0929 271.42 54.5264C270.643 52.302 268.692 50.6952 266.359 50.3609C264.718 50.1262 225.909 44.8755 205.858 69.2368C189.124 89.5663 194.268 119.984 196.634 130.182L177.407 152.44C177.376 152.475 177.346 152.511 177.316 152.547C176.782 153.193 176.267 153.851 175.76 154.517V44.2825C185.156 41.5452 192.045 32.8608 192.045 22.593C192.045 10.1348 181.909 0 169.452 0C156.994 0 146.859 10.1348 146.859 22.593C146.859 32.8608 153.747 41.5452 163.143 44.2825V119.092C162.374 118.034 161.584 116.989 160.747 115.976C160.702 115.921 160.656 115.867 160.608 115.813L147.552 101.049C149.241 93.0846 151.889 73.3828 140.757 59.8585C126.693 42.771 99.784 46.4111 98.6453 46.5732C96.3131 46.9075 94.3612 48.5143 93.5846 50.7388C93.2054 51.8251 84.4617 77.5326 98.5255 94.6194C109.202 107.591 127.893 109.216 136.586 109.216C137.065 109.216 137.502 109.209 137.918 109.201L151.084 124.089C158.59 133.219 162.723 144.749 162.723 156.569V163.155H144.455C127.334 163.155 111.076 169.656 98.675 181.462L92.5191 187.326H53.4727C49.9891 187.326 47.1641 190.15 47.1641 193.634C47.1641 197.118 49.9891 199.943 53.4727 199.943H88.7333V284.994H59.7812V249.819C59.7812 246.335 56.9563 243.51 53.4727 243.51C49.9891 243.51 47.1641 246.335 47.1641 249.819V291.302C47.1641 294.787 49.9891 297.611 53.4727 297.611H92.4288L98.3684 303.551C110.904 316.093 127.578 323 145.32 323L223.766 322.998C235.568 322.998 245.171 313.396 245.171 301.593C245.171 297.973 244.267 294.56 242.674 291.566C250.955 288.609 256.898 280.685 256.898 271.4C256.898 266.229 255.049 261.476 251.979 257.77C252.523 257.323 253.049 256.846 253.553 256.342C257.598 252.303 259.825 246.93 259.825 241.21C259.825 236.197 257.893 231.455 254.76 227.714C259.653 223.788 262.791 217.759 262.791 211.013C262.791 199.811 252.589 189.609 241.387 189.609H209.783C211.041 188.558 212.259 187.444 213.433 186.271C215.994 183.699 217.404 180.319 217.404 176.753C217.404 169.255 211.321 163.155 203.845 163.155H185.069C185.689 162.299 186.327 161.453 187.002 160.633L206.3 138.292ZM206.689 110.499C206.002 92.8051 211.155 82.6546 215.599 77.2557C227.906 62.3043 251.289 61.9775 260.606 62.5093C262.916 71.5502 267.093 94.5608 254.787 109.512C245.349 120.979 229.007 124.45 217.442 125.394L236.466 103.37C238.743 100.733 238.453 96.7492 235.816 94.4725C233.177 92.1938 229.195 92.4865 226.919 95.1222L207.283 117.853C207.009 115.598 206.79 113.122 206.689 110.499ZM108.267 86.6012C101.306 78.1433 103.001 65.2264 104.449 58.7986C111.035 58.6371 124.097 59.4711 131.016 67.8767C135.883 73.7904 136.663 82.2155 136.462 88.2427C136.458 88.3279 136.453 88.4099 136.45 88.4944L126.093 76.7819C123.785 74.172 119.797 73.9273 117.188 76.2349C114.578 78.5433 114.334 82.5303 116.641 85.1402L125.898 95.6086C119.602 94.4365 112.64 91.9137 108.267 86.6012ZM159.477 22.593C159.477 17.0925 163.952 12.6172 169.452 12.6172C174.952 12.6172 179.428 17.0919 179.428 22.593C179.428 28.0941 174.952 32.5687 169.452 32.5687C163.951 32.5687 159.477 28.0934 159.477 22.593ZM241.387 202.227C245.576 202.227 250.174 206.825 250.174 211.014C250.174 215.777 246.15 219.8 241.387 219.8H238.422C234.938 219.8 232.113 222.625 232.113 226.109C232.113 229.593 234.938 232.417 238.422 232.417C242.938 232.417 247.208 236.69 247.208 241.21C247.208 243.558 246.295 245.761 244.637 247.415C244.636 247.417 244.634 247.419 244.632 247.421C242.971 249.082 240.765 249.996 238.422 249.996H235.529C232.047 249.996 229.225 252.816 229.221 256.297C229.216 259.778 232.033 262.605 235.515 262.613C240.348 262.625 244.281 266.567 244.281 271.401C244.281 276.246 240.339 280.189 235.493 280.189H223.766C220.282 280.189 217.457 283.013 217.457 286.497C217.457 289.981 220.282 292.806 223.766 292.806C228.611 292.806 232.553 296.748 232.553 301.594C232.553 306.439 228.611 310.382 223.766 310.382L145.32 310.383C130.95 310.383 117.444 304.789 107.291 294.63L101.352 288.69V196.337L107.376 190.598C117.419 181.038 130.588 175.773 144.455 175.773H162.723V189.61H153.193C149.71 189.61 146.885 192.434 146.885 195.918C146.885 199.403 149.71 202.227 153.193 202.227H241.387ZM203.846 175.773C204.675 175.773 205.081 176.778 204.504 177.358C196.729 185.128 186.438 189.455 175.476 189.597C175.807 184.861 176.789 180.207 178.39 175.773H203.846V175.773Z" fill="white"/>
<path d="M49.9704 226.851C54.7265 230.02 61.0868 225.426 59.5507 219.926C58.8283 217.339 56.4733 215.438 53.7846 215.304C51.0959 215.17 48.5592 216.829 47.5934 219.337C46.5512 222.043 47.5271 225.251 49.9704 226.851Z" fill="white"/>
</g>
</svg>
