<svg width="74" height="53" viewBox="0 0 74 53" fill="none" xmlns="http://www.w3.org/2000/svg">
<mask id="path-1-inside-1_2078_1170" fill="white">
<path d="M15.75 0.25C24.4453 0.25 31.5 7.30469 31.5 16V31.75C31.5 43.3984 21.9844 52.75 10.5 52.75C7.54688 52.75 5.25 50.4531 5.25 47.5C5.25 44.7109 7.54688 42.25 10.5 42.25C16.2422 42.25 21 37.6562 21 31.75V30.9297C19.1953 31.4219 17.5547 31.75 15.75 31.75C6.89062 31.75 0 24.8594 0 16C0 7.30469 6.89062 0.25 15.75 0.25ZM73.5 16V31.75C73.5 43.3984 63.9844 52.75 52.5 52.75C49.5469 52.75 47.25 50.4531 47.25 47.5C47.25 44.7109 49.5469 42.25 52.5 42.25C58.2422 42.25 63 37.6562 63 31.75V30.9297C61.1953 31.4219 59.5547 31.75 57.75 31.75C48.8906 31.75 42 24.8594 42 16C42 7.30469 48.8906 0.25 57.75 0.25C66.4453 0.25 73.5 7.30469 73.5 16Z"/>
</mask>
<path d="M21 30.9297H22V29.6204L20.7369 29.9649L21 30.9297ZM63 30.9297H64V29.6204L62.7369 29.9649L63 30.9297ZM15.75 1.25C23.893 1.25 30.5 7.85697 30.5 16H32.5C32.5 6.7524 24.9976 -0.75 15.75 -0.75V1.25ZM30.5 16V31.75H32.5V16H30.5ZM30.5 31.75C30.5 42.8411 21.4372 51.75 10.5 51.75V53.75C22.5316 53.75 32.5 43.9558 32.5 31.75H30.5ZM10.5 51.75C8.09916 51.75 6.25 49.9008 6.25 47.5H4.25C4.25 51.0054 6.99459 53.75 10.5 53.75V51.75ZM6.25 47.5C6.25 45.2428 8.11932 43.25 10.5 43.25V41.25C6.97442 41.25 4.25 44.179 4.25 47.5H6.25ZM10.5 43.25C16.7843 43.25 22 38.2187 22 31.75H20C20 37.0938 15.7001 41.25 10.5 41.25V43.25ZM22 31.75V30.9297H20V31.75H22ZM20.7369 29.9649C18.9714 30.4464 17.4279 30.75 15.75 30.75V32.75C17.6815 32.75 19.4192 32.3973 21.2631 31.8945L20.7369 29.9649ZM15.75 30.75C7.44291 30.75 1 24.3071 1 16H-1C-1 25.4117 6.33834 32.75 15.75 32.75V30.75ZM1 16C1 7.85015 7.4497 1.25 15.75 1.25V-0.75C6.33155 -0.75 -1 6.75922 -1 16H1ZM72.5 16V31.75H74.5V16H72.5ZM72.5 31.75C72.5 42.8411 63.4372 51.75 52.5 51.75V53.75C64.5316 53.75 74.5 43.9558 74.5 31.75H72.5ZM52.5 51.75C50.0992 51.75 48.25 49.9008 48.25 47.5H46.25C46.25 51.0054 48.9946 53.75 52.5 53.75V51.75ZM48.25 47.5C48.25 45.2428 50.1193 43.25 52.5 43.25V41.25C48.9744 41.25 46.25 44.179 46.25 47.5H48.25ZM52.5 43.25C58.7843 43.25 64 38.2187 64 31.75H62C62 37.0938 57.7001 41.25 52.5 41.25V43.25ZM64 31.75V30.9297H62V31.75H64ZM62.7369 29.9649C60.9714 30.4464 59.4279 30.75 57.75 30.75V32.75C59.6815 32.75 61.4192 32.3973 63.2631 31.8945L62.7369 29.9649ZM57.75 30.75C49.4429 30.75 43 24.3071 43 16H41C41 25.4117 48.3383 32.75 57.75 32.75V30.75ZM43 16C43 7.85015 49.4497 1.25 57.75 1.25V-0.75C48.3315 -0.75 41 6.75922 41 16H43ZM57.75 1.25C65.893 1.25 72.5 7.85697 72.5 16H74.5C74.5 6.7524 66.9976 -0.75 57.75 -0.75V1.25Z" fill="#1D8F2C" mask="url(#path-1-inside-1_2078_1170)"/>
</svg>
