<svg width="56" height="63" viewBox="0 0 56 63" fill="none" xmlns="http://www.w3.org/2000/svg">
<path id="Icon metro-mail-read" d="M47 15V15.5L47.4 15.8L55 21.5V62H1V21.5L8.6 15.8L9 15.5V15V9H17H17.3252L17.5882 8.80874L28 1.2365L38.4118 8.80874L38.6748 9H39H47V15ZM12 12H11V13V29V29.4538L11.3415 29.7526L27.3415 43.7526L28 44.3288L28.6585 43.7526L44.6585 29.7526L45 29.4538V29V13V12H44H12ZM4.63059 28.2239L3 26.899V29V55V57.101L4.63059 55.7761L20.6306 42.7761L21.5858 42L20.6306 41.2239L4.63059 28.2239ZM7.3415 58.2474L5.33855 60H8H48H50.6614L48.6585 58.2474L32.6585 44.2474L31.9544 43.6314L31.2929 44.2929L28 47.5858L24.7071 44.2929L24.0456 43.6314L23.3415 44.2474L7.3415 58.2474ZM51.3694 55.7761L53 57.101V55V29V26.899L51.3694 28.2239L35.3694 41.2239L34.4142 42L35.3694 42.7761L51.3694 55.7761ZM17 28V26H35V28H17ZM17 20V18H23V20H17Z" stroke="#1D8F2C" stroke-width="2"/>
</svg>
