<svg width="42" height="45" viewBox="0 0 42 45" fill="none" xmlns="http://www.w3.org/2000/svg">
<g id="Frame" clip-path="url(#clip0_2077_691)">
<g id="Group">
<g id="Group_2">
<path id="Vector" d="M39.1169 6.78304H28.2192C27.8813 6.78304 27.6075 7.05684 27.6075 7.39476C27.6075 7.73267 27.8813 8.00647 28.2192 8.00647H39.1168C39.955 8.00647 40.637 8.68841 40.637 9.52671V30.808H36.162C35.8241 30.808 35.5502 31.0818 35.5502 31.4197C35.5502 31.7576 35.8241 32.0314 36.162 32.0314H40.637V32.4963C40.637 33.3345 39.9551 34.0166 39.1168 34.0166H20.7636C20.4257 34.0166 20.1519 34.2904 20.1519 34.6283C20.1519 34.9662 20.4257 35.24 20.7636 35.24H25.2751V38.9598C25.2751 39.1461 25.36 39.3222 25.5057 39.4382L28.2185 41.5992H13.6419L16.1875 39.5715H22.3996C22.7375 39.5715 23.0113 39.2977 23.0113 38.9598C23.0113 38.6219 22.7375 38.3481 22.3996 38.3481H16.5853V35.24H18.1567C18.4946 35.24 18.7684 34.9662 18.7684 34.6283C18.7684 34.2904 18.4946 34.0166 18.1567 34.0166H2.74367C1.90545 34.0166 1.22343 33.3346 1.22343 32.4963V32.0314H33.555C33.8929 32.0314 34.1667 31.7576 34.1667 31.4197C34.1667 31.0818 33.8929 30.808 33.555 30.808H1.22343V9.52663C1.22343 8.68841 1.90537 8.00639 2.74367 8.00639H13.4379C13.7758 8.00639 14.0496 7.73259 14.0496 7.39468C14.0496 7.05676 13.7758 6.78296 13.4379 6.78296H2.74367C1.23077 6.78304 0 8.01381 0 9.52663V32.4962C0 34.0091 1.23077 35.2399 2.74367 35.2399H15.3619V38.6649L12.7137 40.7745C12.3261 41.0832 12.1813 41.5849 12.3449 42.0527C12.5085 42.5204 12.9342 42.8226 13.4297 42.8226H28.4309C28.9264 42.8226 29.3522 42.5204 29.5157 42.0527C29.6793 41.5849 29.5345 41.0832 29.147 40.7745L26.4987 38.6649V35.2399H39.117C40.6299 35.2399 41.8606 34.0091 41.8606 32.4962V9.52663C41.8605 8.01381 40.6298 6.78304 39.1169 6.78304Z" fill="#1D8F2C"/>
<path id="Vector_2" d="M16.2902 15.6436C16.5598 15.4399 16.6133 15.0563 16.4096 14.7868C15.9912 14.2329 15.6865 13.6177 15.5021 12.9651L20.2164 15.6768V16.9547C19.5063 16.8758 18.8153 16.661 18.1897 16.321C17.8925 16.1596 17.5214 16.2696 17.36 16.5664C17.1987 16.8632 17.3086 17.2346 17.6054 17.396C18.4097 17.8331 19.3021 18.1014 20.2164 18.1845V19.9573C20.2164 20.2952 20.4902 20.569 20.8281 20.569C21.1661 20.569 21.4399 20.2952 21.4399 19.9573V18.1837C24.8804 17.8733 27.5859 14.9748 27.5859 11.4549C27.5859 8.40101 23.3716 3.38665 21.5595 1.37239C21.3731 1.16539 21.1064 1.04663 20.8281 1.04663C20.5497 1.04663 20.2831 1.16539 20.0965 1.37263C18.2845 3.38665 14.0703 8.40093 14.0703 11.4549C14.0703 12.9368 14.5416 14.3439 15.4333 15.5242C15.6371 15.7938 16.0208 15.8473 16.2902 15.6436ZM15.2947 11.4345C15.3007 10.7436 15.62 9.84621 16.1369 8.84984L20.2164 11.1963V14.2654L15.2947 11.4345ZM18.0314 5.85578L20.2164 7.11257V9.78504L16.7389 7.78489C17.1214 7.15629 17.5603 6.50583 18.0314 5.85578ZM24.9173 7.78489L21.4399 9.78504V7.11257L23.6249 5.85586C24.096 6.50591 24.5349 7.15637 24.9173 7.78489ZM26.3616 11.4345L21.4399 14.2654V11.1963L25.5194 8.84984C26.0364 9.84629 26.3557 10.7437 26.3616 11.4345ZM21.4399 16.9547V15.6768L26.1507 12.9673C25.5449 15.096 23.6951 16.7054 21.4399 16.9547ZM22.8861 4.86945L21.4399 5.70122V3.09205C21.926 3.66078 22.4147 4.25936 22.8861 4.86945ZM20.2164 3.09213V5.7013L18.7702 4.86945C19.2416 4.25936 19.7304 3.6607 20.2164 3.09213Z" fill="#1D8F2C"/>
<path id="Vector_3" d="M9.88889 10.6196H6.10677C5.24229 10.6196 4.53906 11.3229 4.53906 12.1873V16.4258C4.53906 17.2902 5.24229 17.9934 6.10677 17.9934H9.88889C10.7533 17.9934 11.4565 17.2902 11.4565 16.4258V12.1873C11.4565 11.3229 10.7533 10.6196 9.88889 10.6196ZM10.2331 16.4257C10.2331 16.6155 10.0787 16.7699 9.88889 16.7699H6.10677C5.91697 16.7699 5.76249 16.6155 5.76249 16.4257V12.1872C5.76249 11.9974 5.91697 11.843 6.10677 11.843H9.88889C10.0787 11.843 10.2331 11.9974 10.2331 12.1872V16.4257Z" fill="#1D8F2C"/>
<path id="Vector_4" d="M30.768 12.5555H37.979C38.3169 12.5555 38.5908 12.2817 38.5908 11.9437C38.5908 11.6058 38.3169 11.332 37.979 11.332H30.768C30.4301 11.332 30.1562 11.6058 30.1562 11.9437C30.1562 12.2817 30.4301 12.5555 30.768 12.5555Z" fill="#1D8F2C"/>
<path id="Vector_5" d="M30.768 15.3567H37.979C38.3169 15.3567 38.5908 15.0829 38.5908 14.745C38.5908 14.4071 38.3169 14.1333 37.979 14.1333H30.768C30.4301 14.1333 30.1562 14.4071 30.1562 14.745C30.1562 15.0829 30.4301 15.3567 30.768 15.3567Z" fill="#1D8F2C"/>
<path id="Vector_6" d="M30.768 18.1568H37.979C38.3169 18.1568 38.5908 17.883 38.5908 17.5451C38.5908 17.2072 38.3169 16.9333 37.979 16.9333H30.768C30.4301 16.9333 30.1562 17.2072 30.1562 17.5451C30.1562 17.883 30.4301 18.1568 30.768 18.1568Z" fill="#1D8F2C"/>
<path id="Vector_7" d="M13.2243 24.6391C14.2753 24.6391 15.1303 23.7841 15.1303 22.7331C15.1303 21.6822 14.2753 20.8271 13.2243 20.8271C12.1734 20.8271 11.3184 21.6822 11.3184 22.7331C11.3183 23.7841 12.1734 24.6391 13.2243 24.6391ZM13.2243 22.0506C13.6007 22.0506 13.9069 22.3568 13.9069 22.7331C13.9069 23.1095 13.6007 23.4157 13.2243 23.4157C12.848 23.4157 12.5418 23.1095 12.5418 22.7331C12.5417 22.3568 12.8479 22.0506 13.2243 22.0506Z" fill="#1D8F2C"/>
<path id="Vector_8" d="M6.91054 22.1221C6.57263 22.1221 6.29883 22.3959 6.29883 22.7338C6.29883 23.0717 6.57263 23.3455 6.91054 23.3455H9.75038C10.0883 23.3455 10.3621 23.0717 10.3621 22.7338C10.3621 22.3959 10.0883 22.1221 9.75038 22.1221H6.91054Z" fill="#1D8F2C"/>
<path id="Vector_9" d="M16.1855 22.7338C16.1855 23.0717 16.4594 23.3455 16.7973 23.3455H34.8594C35.1973 23.3455 35.4711 23.0717 35.4711 22.7338C35.4711 22.3959 35.1973 22.1221 34.8594 22.1221H16.7973C16.4594 22.1221 16.1855 22.396 16.1855 22.7338Z" fill="#1D8F2C"/>
<path id="Vector_10" d="M26.6387 27.0755C26.6387 28.1265 27.4937 28.9815 28.5447 28.9815C29.5957 28.9815 30.4507 28.1265 30.4507 27.0755C30.4507 26.0244 29.5957 25.1694 28.5447 25.1694C27.4937 25.1694 26.6387 26.0244 26.6387 27.0755ZM29.2273 27.0755C29.2273 27.4519 28.9211 27.7581 28.5447 27.7581C28.1683 27.7581 27.8621 27.4519 27.8621 27.0755C27.8621 26.699 28.1683 26.3929 28.5447 26.3929C28.9211 26.3929 29.2273 26.699 29.2273 27.0755Z" fill="#1D8F2C"/>
<path id="Vector_11" d="M34.8578 26.4644H32.018C31.6801 26.4644 31.4062 26.7382 31.4062 27.0761C31.4062 27.414 31.6801 27.6878 32.018 27.6878H34.8578C35.1957 27.6878 35.4695 27.414 35.4695 27.0761C35.4695 26.7382 35.1956 26.4644 34.8578 26.4644Z" fill="#1D8F2C"/>
<path id="Vector_12" d="M6.91054 27.688H24.9726C25.3106 27.688 25.5844 27.4142 25.5844 27.0763C25.5844 26.7384 25.3106 26.4646 24.9726 26.4646H6.91054C6.57263 26.4646 6.29883 26.7384 6.29883 27.0763C6.29883 27.4142 6.57263 27.688 6.91054 27.688Z" fill="#1D8F2C"/>
</g>
</g>
</g>
<defs>
<clipPath id="clip0_2077_691">
<rect width="41.8605" height="45" fill="white"/>
</clipPath>
</defs>
</svg>
