<svg width="35" height="45" viewBox="0 0 35 45" fill="none" xmlns="http://www.w3.org/2000/svg">
<g id="solar-energy" clip-path="url(#clip0_2077_706)">
<g id="Solar Power">
<path id="Vector" d="M17.5 23.22C17.494 23.0263 17.4299 22.8432 17.3211 22.709C17.2124 22.5747 17.0675 22.4998 16.9167 22.5H1.16701C1.01626 22.4998 0.871321 22.5747 0.762573 22.709C0.653826 22.8432 0.589717 23.0263 0.583687 23.22L0.000365161 39.7197C-0.00240694 39.8204 0.0106269 39.9207 0.0386889 40.0148C0.0667509 40.1089 0.109266 40.1947 0.163695 40.2672C0.217745 40.3406 0.282862 40.399 0.355072 40.439C0.427282 40.479 0.505069 40.4996 0.583687 40.4997H7.58355V43.4996H6.41691V44.9996H12.2501V43.4996H11.0835V40.4997H17.5C17.5786 40.4996 17.6564 40.479 17.7286 40.439C17.8009 40.399 17.866 40.3406 17.92 40.2672C17.9745 40.1947 18.017 40.1089 18.045 40.0148C18.0731 39.9207 18.0861 39.8204 18.0834 39.7197L17.5 23.22ZM5.2736 38.9997H1.19618L1.35367 34.4998H5.43693L5.2736 38.9997ZM5.48943 32.9998H1.40617L1.56367 28.4999H5.64692L5.48943 32.9998ZM5.69942 26.9999H1.61617L1.727 24H5.80442L5.69942 26.9999ZM6.9769 24H11.1068L11.2177 26.9999H6.86607L6.9769 24ZM6.81357 28.4999H11.2701L11.4276 32.9998H6.65607L6.81357 28.4999ZM9.91684 43.4996H8.7502V40.4997H9.91684V43.4996ZM6.44607 38.9997L6.60357 34.4998H11.4801L11.6376 38.9997H6.44607ZM12.2793 24H16.3567L16.4676 26.9999H12.3843L12.2793 24ZM12.4368 28.4999H16.52L16.6775 32.9998H12.5943L12.4368 28.4999ZM12.8101 38.9997L12.6468 34.4998H16.73L16.8875 38.9997H12.8101Z" fill="#1D8F2C"/>
<path id="Vector_2" d="M34.416 25.4625C34.4076 25.2706 34.3425 25.0901 34.2341 24.9577C34.1257 24.8253 33.9822 24.751 33.8327 24.75H19.833C19.6835 24.751 19.5399 24.8253 19.4315 24.9577C19.3231 25.0901 19.2581 25.2706 19.2496 25.4625L18.6663 39.7122C18.6614 39.9164 18.7178 40.1151 18.8238 40.2672C18.879 40.3408 18.9452 40.3993 19.0183 40.4392C19.0915 40.4791 19.1702 40.4997 19.2496 40.4997H25.0829V43.4996H23.9162V44.9996H29.7494V43.4996H28.5828V40.4997H34.416C34.4955 40.4997 34.5742 40.4791 34.6473 40.4392C34.7205 40.3993 34.7867 40.3408 34.8418 40.2672C34.9479 40.1151 35.0043 39.9164 34.9993 39.7122L34.416 25.4625ZM23.9162 38.9997H19.8621L19.9846 35.9998H23.9162V38.9997ZM23.9162 34.4998H20.0488L20.2005 30.7499H23.9162V34.4998ZM23.9162 29.2499H20.2646L20.3871 26.25H23.9162V29.2499ZM27.4162 43.4996H26.2495V40.4997H27.4162V43.4996ZM28.5828 38.9997H25.0829V35.9998H28.5828V38.9997ZM28.5828 34.4998H25.0829V30.7499H28.5828V34.4998ZM28.5828 29.2499H25.0829V26.25H28.5828V29.2499ZM29.7494 26.25H33.2785L33.401 29.2499H29.7494V26.25ZM29.7494 30.7499H33.4652L33.6169 34.4998H29.7494V30.7499ZM29.7494 38.9997V35.9998H33.681L33.8035 38.9997H29.7494Z" fill="#1D8F2C"/>
<path id="Vector_3" d="M26.834 14.25L25.084 17.9999H26.834V14.25Z" fill="#1D8F2C"/>
<path id="Vector_4" d="M28.584 18H26.834V21.7499L28.584 18Z" fill="#1D8F2C"/>
<path id="Vector_5" d="M8.16598 12.75L6.41602 16.4999H8.16598V12.75Z" fill="#1D8F2C"/>
<path id="Vector_6" d="M9.91598 16.5H8.16602V20.2499L9.91598 16.5Z" fill="#1D8F2C"/>
<path id="Vector_7" d="M17.4993 13.5C18.3069 13.5 19.0963 13.1921 19.7678 12.6153C20.4393 12.0384 20.9627 11.2185 21.2717 10.2592C21.5808 9.2999 21.6616 8.24432 21.5041 7.22594C21.3465 6.20756 20.9576 5.27212 20.3866 4.53791C19.8155 3.8037 19.0879 3.30369 18.2959 3.10112C17.5038 2.89855 16.6828 3.00252 15.9367 3.39987C15.1906 3.79722 14.5528 4.47012 14.1042 5.33346C13.6555 6.1968 13.416 7.21181 13.416 8.25015C13.4173 9.64202 13.8478 10.9764 14.6133 11.9606C15.3788 12.9448 16.4167 13.4985 17.4993 13.5ZM17.4993 4.50022C18.0761 4.50022 18.64 4.72015 19.1197 5.1322C19.5993 5.54424 19.9731 6.1299 20.1939 6.81511C20.4146 7.50032 20.4724 8.25431 20.3598 8.98172C20.2473 9.70914 19.9695 10.3773 19.5616 10.9017C19.1537 11.4262 18.634 11.7833 18.0683 11.928C17.5025 12.0727 16.9161 11.9985 16.3831 11.7146C15.8502 11.4308 15.3947 10.9502 15.0742 10.3335C14.7537 9.71682 14.5827 8.99181 14.5827 8.25015C14.5836 7.25597 14.8912 6.30285 15.4379 5.59986C15.9847 4.89687 16.726 4.50141 17.4993 4.50022Z" fill="#1D8F2C"/>
<path id="Vector_8" d="M16.916 0.000244141H18.0827V1.50022H16.916V0.000244141Z" fill="#1D8F2C"/>
<path id="Vector_9" d="M20.7969 2.94971L21.6218 1.88907L22.4468 2.94971L21.6218 4.01035L20.7969 2.94971Z" fill="#1D8F2C"/>
<path id="Vector_10" d="M22.75 7.50024H23.9166V9.00022H22.75V7.50024Z" fill="#1D8F2C"/>
<path id="Vector_11" d="M20.7949 13.5496L21.6199 12.4889L22.4448 13.5496L21.6199 14.6102L20.7949 13.5496Z" fill="#1D8F2C"/>
<path id="Vector_12" d="M16.916 15H18.0827V16.5H16.916V15Z" fill="#1D8F2C"/>
<path id="Vector_13" d="M12.5469 13.5537L13.3718 12.4931L14.1968 13.5537L13.3718 14.6144L12.5469 13.5537Z" fill="#1D8F2C"/>
<path id="Vector_14" d="M11.084 7.50024H12.2506V9.00022H11.084V7.50024Z" fill="#1D8F2C"/>
<path id="Vector_15" d="M12.5469 2.94556L13.3718 1.88492L14.1968 2.94556L13.3718 4.0062L12.5469 2.94556Z" fill="#1D8F2C"/>
</g>
</g>
<defs>
<clipPath id="clip0_2077_706">
<rect width="35" height="45" fill="white"/>
</clipPath>
</defs>
</svg>
