<svg width="45" height="45" viewBox="0 0 45 45" fill="none" xmlns="http://www.w3.org/2000/svg">
<g id="Frame" clip-path="url(#clip0_2077_681)">
<g id="Group">
<g id="Group_2">
<path id="Vector" d="M41.0288 28.0535C41.1515 27.8716 41.1758 27.6405 41.0936 27.4369L35.0508 12.4673C34.9499 12.2176 34.7077 12.0542 34.4384 12.0542H10.5626C10.2934 12.0542 10.0511 12.2176 9.95028 12.4673L3.90739 27.4369C3.82525 27.6405 3.84955 27.8716 3.97227 28.0535C4.09509 28.2354 4.30023 28.3445 4.51963 28.3445H40.4812C40.7008 28.3445 40.9059 28.2355 41.0288 28.0535ZM17.4492 21.7458L17.9074 18.6529H27.0937L27.5518 21.7458H17.4492ZM27.7476 23.0664L28.3338 27.0239H16.6674L17.2537 23.0664H27.7476ZM8.87758 18.6529H16.5725L16.1143 21.7458H7.62907L8.87758 18.6529ZM26.3119 13.3748L26.8981 17.3323H18.1031L18.6893 13.3748H26.3119ZM28.4287 18.6529H36.1236L37.3721 21.7458H28.8869L28.4287 18.6529ZM35.5904 17.3323H28.233L27.6467 13.3748H33.9928L35.5904 17.3323ZM11.0082 13.3748H17.3543L16.768 17.3323H9.41058L11.0082 13.3748ZM7.09589 23.0664H15.9185L15.3322 27.0239H5.49838L7.09589 23.0664ZM29.6688 27.0239L29.0825 23.0664H37.9051L39.5026 27.0239H29.6688Z" fill="#1D8F2C"/>
<path id="Vector_2" d="M42.9298 37.6946H41.1412V36.4473C41.1412 35.5037 40.3735 34.7361 39.43 34.7361H38.9911V30.9855H43.107C43.6162 30.9855 44.0902 30.7335 44.3749 30.3114C44.6597 29.8893 44.716 29.3555 44.5253 28.8834L37.0519 10.3698C36.8172 9.78838 36.2605 9.41271 35.6336 9.41271H22.1674C21.8378 6.4525 19.3214 4.14282 16.2748 4.14282C13.2281 4.14282 10.7118 6.45258 10.3822 9.41271H9.36636C8.73942 9.41271 8.18264 9.78838 7.94801 10.3697L0.474719 28.8835C0.284109 29.3555 0.340368 29.8894 0.625093 30.3115C0.909818 30.7336 1.38383 30.9855 1.89298 30.9855H6.09695V34.7362H5.57002C4.62648 34.7362 3.85885 35.5038 3.85885 36.4474V37.6947H2.0702C0.928659 37.6946 0 38.6233 0 39.7648V43.2437C0 43.8626 0.503508 44.3661 1.12244 44.3661H43.8777C44.4966 44.3661 45.0001 43.8626 45.0001 43.2437V39.7648C45 38.6233 44.0713 37.6946 42.9298 37.6946ZM37.6705 34.7362H36.0888V30.9855H37.6705V34.7362ZM7.41756 30.9855H8.99923V34.7362H7.41756V30.9855ZM5.17956 36.4473C5.17956 36.232 5.35476 36.0567 5.57011 36.0567H12.3952C12.7599 36.0567 13.0556 35.7612 13.0556 35.3964C13.0556 35.0317 12.7599 34.7361 12.3952 34.7361H10.3199V30.9855H29.0985C29.4632 30.9855 29.7588 30.6899 29.7588 30.3251C29.7588 29.9604 29.4632 29.6648 29.0985 29.6648H1.89298C1.79631 29.6648 1.74295 29.6072 1.7198 29.5727C1.69664 29.5383 1.6631 29.4674 1.69928 29.3777L9.17276 10.864C9.2048 10.7847 9.28087 10.7333 9.36645 10.7333H13.8147C14.1794 10.7333 14.475 10.4378 14.475 10.073C14.475 9.70826 14.1794 9.41271 13.8147 9.41271H11.7133C12.0346 7.18271 13.9574 5.46344 16.2749 5.46344C18.5924 5.46344 20.5151 7.1828 20.8365 9.41271H16.6287C16.264 9.41271 15.9684 9.70826 15.9684 10.073C15.9684 10.4378 16.264 10.7333 16.6287 10.7333H35.6336C35.7192 10.7333 35.7952 10.7847 35.8273 10.8641L43.3007 29.3777C43.3369 29.4674 43.3034 29.5383 43.2802 29.5727C43.2571 29.6072 43.2036 29.6648 43.107 29.6648H31.9126C31.5479 29.6648 31.2523 29.9604 31.2523 30.3251C31.2523 30.6899 31.5479 30.9855 31.9126 30.9855H34.7682V34.7361H15.2092C14.8446 34.7361 14.5489 35.0317 14.5489 35.3964C14.5489 35.7612 14.8446 36.0567 15.2092 36.0567H39.4299C39.6452 36.0567 39.8204 36.2319 39.8204 36.4473V37.6946H5.17956V36.4473ZM43.6794 43.0454H1.32062V39.7648C1.32062 39.3515 1.65685 39.0152 2.0702 39.0152H42.9298C43.3432 39.0152 43.6794 39.3514 43.6794 39.7648V43.0454Z" fill="#1D8F2C"/>
<path id="Vector_3" d="M16.2755 2.10119C16.6402 2.10119 16.9359 1.80564 16.9359 1.44088V0.660309C16.9359 0.295555 16.6402 0 16.2755 0C15.9109 0 15.6152 0.295555 15.6152 0.660309V1.44088C15.6152 1.80555 15.9109 2.10119 16.2755 2.10119Z" fill="#1D8F2C"/>
<path id="Vector_4" d="M11.1981 3.14371C11.3229 3.34594 11.5392 3.45722 11.7606 3.45722C11.8789 3.45722 11.9987 3.42544 12.1068 3.3587C12.4171 3.16712 12.5134 2.76029 12.3218 2.44994L11.9117 1.78567C11.7202 1.47541 11.3133 1.37909 11.003 1.57076C10.6927 1.76234 10.5964 2.16918 10.788 2.47952L11.1981 3.14371Z" fill="#1D8F2C"/>
<path id="Vector_5" d="M7.63614 6.56382L8.33405 6.91352C8.42904 6.96116 8.52994 6.98369 8.62934 6.98369C8.87136 6.98369 9.10441 6.85005 9.22018 6.61894C9.3835 6.29292 9.25161 5.89621 8.9256 5.73289L8.22769 5.38319C7.9015 5.21961 7.50487 5.35167 7.34156 5.67778C7.17824 6.00379 7.31013 6.40051 7.63614 6.56382Z" fill="#1D8F2C"/>
<path id="Vector_6" d="M20.4444 3.35869C20.5525 3.42542 20.6723 3.45721 20.7907 3.45721C21.0121 3.45721 21.2283 3.34583 21.3532 3.1436L21.7633 2.47933C21.9548 2.16907 21.8586 1.76215 21.5483 1.57066C21.2379 1.37917 20.8311 1.4754 20.6395 1.78565L20.2294 2.44993C20.0378 2.76027 20.1341 3.16711 20.4444 3.35869Z" fill="#1D8F2C"/>
<path id="Vector_7" d="M23.9207 6.98385C24.0201 6.98385 24.121 6.96131 24.216 6.91368L24.9139 6.56398C25.24 6.40066 25.3719 6.00395 25.2085 5.67793C25.0451 5.35191 24.6486 5.21994 24.3224 5.38334L23.6245 5.73304C23.2984 5.89636 23.1665 6.29307 23.3299 6.61909C23.4457 6.8502 23.6787 6.98385 23.9207 6.98385Z" fill="#1D8F2C"/>
</g>
</g>
</g>
<defs>
<clipPath id="clip0_2077_681">
<rect width="45" height="45" fill="white"/>
</clipPath>
</defs>
</svg>
