<svg width="42" height="45" viewBox="0 0 42 45" fill="none" xmlns="http://www.w3.org/2000/svg">
<g id="Frame">
<g id="Group">
<g id="Group_2">
<path id="Vector" d="M16.8952 34.8006H8.80773C7.66268 34.8006 6.73106 33.869 6.73106 32.7239V30.4497C6.91275 30.492 7.09928 30.5155 7.28862 30.5155C7.37477 30.5155 7.46149 30.511 7.5483 30.502C7.69082 30.4872 7.83004 30.4598 7.96523 30.422V32.7239C7.96523 33.1884 8.34316 33.5664 8.80765 33.5664H16.7331C17.074 33.5664 17.3502 33.2901 17.3502 32.9492C17.3502 32.6083 17.074 32.3321 16.7331 32.3321H9.1994V29.6163C9.20352 29.6112 9.20796 29.6066 9.21199 29.6015C10.025 28.6002 9.92325 27.1501 9.01336 26.2691C9.41079 26.1202 9.77514 25.868 10.0614 25.5155C10.8744 24.5143 10.7727 23.0641 9.86277 22.1832C10.2601 22.0343 10.6245 21.7821 10.9108 21.4296C11.7699 20.3715 11.6082 18.8117 10.5501 17.9526L9.19932 16.8557V9.19854C9.19932 8.85764 8.92309 8.58141 8.58219 8.58141C8.24129 8.58141 7.96507 8.85764 7.96507 9.19854V15.8567C7.60047 15.585 7.17605 15.4218 6.73082 15.3793V4.35739C6.73106 3.21225 7.66268 2.28064 8.80773 2.28064H22.5418C23.687 2.28064 24.6186 3.21225 24.6186 4.35739V15.7451C24.6186 16.086 24.8948 16.3622 25.2357 16.3622C25.5766 16.3622 25.8528 16.086 25.8528 15.7451V4.35739C25.8528 2.53168 24.3676 1.04639 22.5418 1.04639H8.80773C6.98211 1.04639 5.49681 2.53168 5.49681 4.35739V9.09206C4.46128 8.47946 3.10179 8.70056 2.32084 9.66212C1.90465 10.1747 1.71293 10.8186 1.78106 11.4753C1.84919 12.132 2.16894 12.7229 2.68148 13.1391L5.49673 15.4253V15.576C5.14044 15.7319 4.82382 15.9711 4.57162 16.2817C4.15534 16.7943 3.96371 17.4382 4.03176 18.0949C4.09232 18.6783 4.35184 19.2096 4.76827 19.6127C4.36253 19.765 4.00254 20.0223 3.72212 20.3677C2.90916 21.3688 3.01078 22.8189 3.92043 23.6999C3.52316 23.8489 3.15889 24.1012 2.87271 24.4537C2.45652 24.9663 2.2648 25.6102 2.33285 26.2669C2.40098 26.9235 2.72073 27.5145 3.23328 27.9308L5.49665 29.7687V32.7239C5.49665 34.5497 6.98195 36.035 8.80757 36.035H16.895C17.2359 36.035 17.5122 35.7587 17.5122 35.4178C17.5122 35.0769 17.2361 34.8006 16.8952 34.8006ZM3.45956 12.1809C3.203 11.9726 3.04287 11.6767 3.00873 11.3479C2.97458 11.0191 3.0706 10.6968 3.27894 10.4402C3.70912 9.91045 4.48999 9.82957 5.01981 10.2597L5.49673 10.647V13.8354L3.45956 12.1809ZM5.52981 17.0597C5.73815 16.8031 6.03404 16.643 6.36284 16.6089C6.69132 16.5748 7.01395 16.6709 7.2706 16.8792L9.77226 18.9107C10.0288 19.119 10.1889 19.4148 10.2231 19.7437C10.2572 20.0725 10.1612 20.3948 9.95279 20.6515C9.74445 20.908 9.44864 21.0681 9.11983 21.1023C8.8051 21.1349 8.49629 21.0469 8.24508 20.8563L5.71034 18.8004C5.45378 18.5921 5.29374 18.2963 5.25951 17.9675C5.22544 17.6387 5.32147 17.3163 5.52981 17.0597ZM4.6804 21.1458C5.1021 20.6262 5.86059 20.5393 6.38951 20.942L8.92285 22.9967C9.45259 23.4269 9.53356 24.2078 9.10338 24.7375C8.68176 25.2566 7.92368 25.3435 7.39509 24.9419L4.86093 22.8865C4.33118 22.4564 4.25022 21.6754 4.6804 21.1458ZM3.5606 26.1395C3.52654 25.8107 3.62248 25.4884 3.8309 25.2317C4.25252 24.7126 5.01035 24.6257 5.53919 25.0274L8.07344 27.0828C8.60318 27.5129 8.68414 28.2938 8.25397 28.8235C8.04562 29.0801 7.74973 29.2402 7.42093 29.2744C7.09237 29.3084 6.76974 29.2124 6.51309 29.0041L4.01151 26.9726C3.75487 26.7642 3.59483 26.4683 3.5606 26.1395Z" fill="#1D8F2C"/>
<path id="Vector_2" d="M39.9442 41.8905L32.4326 33.054C32.2985 32.8964 32.2247 32.6956 32.2247 32.4888V29.3115C32.2247 27.0859 31.384 24.9682 29.8575 23.3485L22.1437 15.1645C21.8431 14.8455 21.4198 14.6679 20.9809 14.6758C20.5427 14.6843 20.126 14.8785 19.8379 15.2089L19.6851 15.3842C18.4031 16.8541 18.343 19.0375 19.5422 20.5758L22.4016 24.2435C22.5857 24.4798 22.6089 24.8006 22.4606 25.0609L20.8516 27.8837C20.6827 28.1798 20.786 28.5567 21.0821 28.7254C21.3782 28.8941 21.7551 28.7909 21.9238 28.4948L23.5328 25.672C23.9298 24.9755 23.8679 24.117 23.375 23.4846L20.5156 19.8169C19.6791 18.7439 19.721 17.2208 20.6153 16.1954L20.7681 16.0201C20.8498 15.9264 20.9515 15.9108 21.0047 15.9097C21.0586 15.9077 21.1603 15.9205 21.2455 16.0109L28.9593 24.1951C30.2691 25.5848 30.9905 27.4017 30.9905 29.3115V32.4887C30.9905 32.9881 31.1686 33.4727 31.4922 33.8533L39.004 42.6898C39.126 42.8334 39.2997 42.9073 39.4745 42.9073C39.6158 42.9073 39.7578 42.8591 39.8739 42.7604C40.1335 42.5397 40.1651 42.1501 39.9442 41.8905Z" fill="#1D8F2C"/>
<path id="Vector_3" d="M24.8335 40.1749C24.7378 40.0498 24.5978 39.9662 24.4423 39.941C22.2967 39.5942 20.5614 37.9308 20.1241 35.8018L19.8967 34.6942C19.6393 33.4411 19.8465 32.1388 20.4801 31.0273L20.6113 30.797C20.7802 30.5009 20.6769 30.124 20.3808 29.9554C20.0847 29.7866 19.7078 29.8898 19.5391 30.1859L19.4079 30.4161C18.6258 31.7883 18.37 33.3958 18.6877 34.9426L18.9151 36.0503C19.438 38.5962 21.4646 40.6028 23.9988 41.1148L25.1873 42.6653C25.3088 42.8238 25.4921 42.907 25.6775 42.907C25.8084 42.907 25.9405 42.8655 26.0525 42.7796C26.323 42.5723 26.3742 42.1849 26.1669 41.9144L24.8335 40.1749Z" fill="#1D8F2C"/>
<path id="Vector_4" d="M22.7666 13.9308C23.1075 13.9308 23.3837 13.6546 23.3837 13.3137V4.35788C23.3837 3.89331 23.0058 3.51538 22.5413 3.51538H20.8943C20.3586 3.51538 19.8693 3.78198 19.5852 4.2287C19.2927 4.68858 18.7933 4.96308 18.2492 4.96308H13.1512C12.607 4.96308 12.1076 4.68858 11.8151 4.22861C11.5311 3.78198 11.0417 3.51538 10.5061 3.51538H8.80726C8.34269 3.51538 7.96484 3.89339 7.96484 4.35788V6.569C7.96484 6.9099 8.24107 7.18613 8.58197 7.18613C8.92287 7.18613 9.1991 6.9099 9.1991 6.569V4.74963H10.5062C10.6158 4.74963 10.7183 4.80377 10.7738 4.891C11.2939 5.70898 12.1827 6.19733 13.1513 6.19733H18.2494C19.2179 6.19733 20.1068 5.70898 20.6269 4.89108C20.6824 4.80378 20.7849 4.74963 20.8945 4.74963H22.1497V13.3137C22.1494 13.6546 22.4257 13.9308 22.7666 13.9308Z" fill="#1D8F2C"/>
<path id="Vector_5" d="M19.2872 12.608C19.2716 12.2745 18.9935 12.016 18.6569 12.0203C18.3162 12.0279 18.0462 12.3103 18.0539 12.6512C18.0541 12.6588 18.0544 12.6666 18.0548 12.6745C18.0478 13.7661 17.3017 14.685 16.2929 14.9563V9.47263C16.5576 9.80711 16.8402 10.184 17.1026 10.5733C17.293 10.856 17.6765 10.9308 17.9593 10.7402C18.2419 10.5498 18.3166 10.1662 18.1261 9.88355C17.425 8.84299 16.5942 7.89147 16.2697 7.5309C16.1183 7.36263 15.9019 7.26611 15.6757 7.26611C15.4496 7.26611 15.2331 7.36263 15.0821 7.53065C14.1741 8.53986 12.0625 11.0597 12.0625 12.659C12.0625 14.4408 13.3594 15.9246 15.0586 16.2184V16.8038C15.0586 17.1447 15.3348 17.421 15.6757 17.421C16.0166 17.421 16.2929 17.1447 16.2929 16.8038V16.2184C17.9922 15.9246 19.289 14.4408 19.289 12.659C19.289 12.6426 19.2884 12.6256 19.2872 12.608ZM13.2968 12.6591C13.2968 11.9749 14.0868 10.7011 15.0586 9.47156V14.9564C14.0451 14.6838 13.2968 13.7574 13.2968 12.6591Z" fill="#1D8F2C"/>
<path id="Vector_6" d="M19.4437 27.6139V25.4182C19.4437 24.6977 18.8576 24.1116 18.1371 24.1116H13.2109C12.4904 24.1116 11.9043 24.6977 11.9043 25.4182V27.6139C11.9043 28.3344 12.4904 28.9205 13.2109 28.9205H18.1371C18.8576 28.9205 19.4437 28.3344 19.4437 27.6139ZM18.2094 27.6139C18.2094 27.6537 18.1769 27.6862 18.1371 27.6862H13.2109C13.1711 27.6862 13.1385 27.6537 13.1385 27.6139V25.4182C13.1385 25.3783 13.1711 25.3458 13.2109 25.3458H18.1371C18.1769 25.3458 18.2094 25.3783 18.2094 25.4182V27.6139Z" fill="#1D8F2C"/>
<path id="Vector_7" d="M12.0625 21.8559C12.0625 22.1968 12.3387 22.473 12.6796 22.473H18.4084C18.7493 22.473 19.0256 22.1968 19.0256 21.8559C19.0256 21.515 18.7493 21.2388 18.4084 21.2388H12.6796C12.3387 21.2388 12.0625 21.515 12.0625 21.8559Z" fill="#1D8F2C"/>
<path id="Vector_8" d="M17.4273 4.12439C17.7682 4.12439 18.0445 3.84816 18.0445 3.50726C18.0445 3.16636 17.7682 2.89014 17.4273 2.89014H13.996C13.6551 2.89014 13.3789 3.16636 13.3789 3.50726C13.3789 3.84816 13.6551 4.12439 13.996 4.12439H17.4273Z" fill="#1D8F2C"/>
</g>
</g>
</g>
</svg>
