<svg width="45" height="45" viewBox="0 0 45 45" fill="none" xmlns="http://www.w3.org/2000/svg">
<g id="033-energy management" clip-path="url(#clip0_2120_3893)">
<g id="Group">
<g id="Group_2">
<path id="Vector" d="M40.0227 24.9237C40.1294 24.1211 40.1808 23.3081 40.1755 22.501C40.1809 21.6932 40.1295 20.8796 40.0227 20.0762L43.85 15.6622C44.0955 15.3791 44.1344 14.9716 43.947 14.647L40.0245 7.85285C39.8372 7.52845 39.4646 7.35803 39.0967 7.42939L33.3602 8.5369C32.718 8.04287 32.0393 7.59164 31.3376 7.19262C30.6412 6.78445 29.9112 6.42234 29.1624 6.11332L27.2534 0.59168C27.1309 0.237568 26.7975 0 26.4228 0H18.5776C18.203 0 17.8694 0.237568 17.747 0.59168L15.8379 6.11314C15.0887 6.42234 14.3585 6.78472 13.6622 7.19288C12.9604 7.59199 12.2818 8.04305 11.6401 8.53682L5.90365 7.42939C5.53582 7.35811 5.16326 7.52836 4.97587 7.85285L1.05331 14.647C0.865932 14.9715 0.904956 15.3791 1.15043 15.6622L4.97763 20.0763C4.87084 20.8796 4.81952 21.6932 4.82488 22.5008C4.8196 23.308 4.87093 24.1211 4.97772 24.9237L1.15052 29.3377C0.905043 29.6208 0.86602 30.0284 1.0534 30.3529L4.97596 37.1471C5.16326 37.4715 5.53609 37.6421 5.90373 37.5705L11.64 36.463C12.282 36.957 12.9605 37.408 13.6622 37.8071C14.3588 38.2155 15.0891 38.5777 15.8379 38.8868L17.747 44.4082C17.8694 44.7623 18.203 44.9999 18.5776 44.9999H26.4229C26.7976 44.9999 27.1311 44.7623 27.2535 44.4082L29.1626 38.8868C29.9113 38.5777 30.6413 38.2155 31.338 37.8072C32.0399 37.408 32.7186 36.9569 33.3605 36.463L39.0969 37.5705C39.4646 37.6419 39.8372 37.4715 40.0246 37.1471L43.9472 30.3529C44.1346 30.0284 44.0955 29.6208 43.8502 29.3377L40.0227 24.9237ZM38.8153 35.7259L33.2988 34.6609C33.0444 34.6117 32.7815 34.6774 32.5799 34.8402C31.9165 35.3761 31.2046 35.8611 30.4642 36.2819C30.4607 36.2838 30.4572 36.2858 30.4537 36.2878C29.7192 36.7187 28.9431 37.0927 28.1473 37.3993C27.9056 37.4925 27.7172 37.6874 27.6327 37.9322L25.7968 43.2422H19.2037L17.3678 37.9324C17.2832 37.6875 17.0948 37.4925 16.8531 37.3995C16.057 37.0927 15.281 36.7188 14.5465 36.2879C14.5429 36.286 14.5395 36.2839 14.536 36.282C13.7958 35.8614 13.084 35.3763 12.4206 34.8404C12.2191 34.6776 11.9561 34.6117 11.7016 34.6611L6.18525 35.726L2.88873 30.0163L6.56924 25.7715C6.73896 25.5757 6.81367 25.3152 6.7735 25.0592C6.64105 24.2168 6.57689 23.3581 6.58278 22.5068C6.58278 22.5027 6.58278 22.4987 6.58278 22.4946C6.57689 21.6431 6.64105 20.7838 6.7735 19.9408C6.81375 19.6849 6.73896 19.4243 6.56924 19.2285L2.88882 14.9837L6.18534 9.27395L11.7018 10.3389C11.9561 10.3883 12.2192 10.3224 12.4207 10.1596C13.084 9.62376 13.7959 9.13878 14.5363 8.71805C14.5399 8.71611 14.5434 8.714 14.5468 8.71198C15.2809 8.28141 16.0569 7.90743 16.8533 7.60052C17.095 7.50735 17.2834 7.31241 17.368 7.06764L19.2037 1.75781H25.7967L27.6327 7.06764C27.7173 7.31241 27.9056 7.50744 28.1473 7.60052C28.9435 7.90734 29.7194 8.28123 30.4535 8.71189C30.457 8.71392 30.4605 8.71594 30.464 8.71787C31.2042 9.13843 31.916 9.62358 32.5799 10.1597C32.7815 10.3226 33.0444 10.3882 33.2988 10.3389L38.8153 9.27395L42.1118 14.9837L38.4312 19.2285C38.2615 19.4243 38.1868 19.6848 38.227 19.9408C38.3595 20.7838 38.4237 21.643 38.4178 22.4948V22.5069C38.4236 23.3583 38.3595 24.2169 38.227 25.0592C38.1868 25.315 38.2615 25.5757 38.4312 25.7715L42.1118 30.0163L38.8153 35.7259Z" fill="#1D8F2C"/>
<path id="Vector_2" d="M30.3126 19.2383H23.606V11.0153C23.606 10.1277 22.3788 9.8137 21.9544 10.5965L14.2754 24.7604C13.9636 25.3356 14.3951 26.0583 15.0481 26.0583H21.8482V33.9847C21.8482 34.8696 23.071 35.1874 23.4982 34.4065L31.0836 20.539C31.3982 19.9637 30.967 19.2383 30.3126 19.2383ZM23.606 30.5464V25.1794C23.606 24.6941 23.2124 24.3005 22.7271 24.3005H16.5243L21.8482 14.4806V20.1172C21.8482 20.6025 22.2417 20.9961 22.7271 20.9961H28.83L23.606 30.5464Z" fill="#1D8F2C"/>
<path id="Vector_3" d="M32.0789 14.0243H32.6959C33.1813 14.0243 33.5748 13.6307 33.5748 13.1454C33.5748 12.6601 33.1813 12.2665 32.6959 12.2665H29.7949C29.3096 12.2665 28.916 12.6601 28.916 13.1454V15.935C28.916 16.4204 29.3096 16.8139 29.7949 16.8139C30.2803 16.8139 30.6738 16.4204 30.6738 15.935V15.1482C32.9405 16.9156 34.3001 19.6419 34.3001 22.5679C34.3001 24.7645 33.5266 26.9019 32.1221 28.5863C31.8112 28.959 31.8613 29.5133 32.2341 29.8241C32.602 30.1309 33.1654 30.0797 33.472 29.7121C35.1396 27.7124 36.0579 25.1752 36.0579 22.568C36.0579 19.2367 34.5738 16.1236 32.0789 14.0243Z" fill="#1D8F2C"/>
<path id="Vector_4" d="M15.1149 28.186C14.6294 28.186 14.236 28.5796 14.236 29.0649V29.7704C12.1227 27.9937 10.877 25.33 10.877 22.5679C10.877 19.2819 12.6477 16.1735 15.4665 14.4883C15.8832 14.2392 16.019 13.6996 15.77 13.283C15.5209 12.8662 14.9812 12.7304 14.5647 12.9796C11.2253 14.9758 9.11914 18.6764 9.11914 22.5679C9.11914 25.7723 10.5312 28.868 12.9429 30.9756H12.2139C11.7284 30.9756 11.335 31.3692 11.335 31.8545C11.335 32.3399 11.7284 32.7335 12.2139 32.7335H15.1149C15.6003 32.7335 15.9938 32.3399 15.9938 31.8545V29.0649C15.9938 28.5796 15.6003 28.186 15.1149 28.186Z" fill="#1D8F2C"/>
<path id="Vector_5" d="M30.6342 31.2644C30.3287 30.5317 29.2463 30.5683 28.9905 31.3183C28.7321 32.0761 29.5878 32.7644 30.2736 32.3543C30.6422 32.1338 30.7997 31.6613 30.6342 31.2644Z" fill="#1D8F2C"/>
</g>
</g>
</g>
<defs>
<clipPath id="clip0_2120_3893">
<rect width="45" height="45" fill="white"/>
</clipPath>
</defs>
</svg>
