<svg width="45" height="45" viewBox="0 0 45 45" fill="none" xmlns="http://www.w3.org/2000/svg">
<g id="017-waste" clip-path="url(#clip0_2120_3877)">
<g id="Group">
<g id="Group_2">
<path id="Vector" d="M44.1181 0H39.5017C39.0163 0 38.6228 0.393486 38.6228 0.878906V1.3957H34.6697C34.1843 1.3957 33.7908 1.78919 33.7908 2.27461C33.7908 2.76003 34.1843 3.15352 34.6697 3.15352H38.6228V13.0197H32.8638C30.5964 13.0197 28.7517 14.8643 28.7517 17.1318V20.0145H16.2493V18.0105C16.2493 15.7431 14.4046 13.8984 12.1371 13.8984H6.37817V3.15352H26.757C27.3244 3.27217 27.8343 2.81092 27.816 2.24385C27.7995 1.77073 27.4111 1.3957 26.9376 1.3957H6.37817V0.878906C6.37817 0.393486 5.98469 0 5.49927 0H0.882812C0.397393 0 0.00390625 0.393486 0.00390625 0.878906V16.1731C0.00390625 16.6585 0.397393 17.052 0.882812 17.052H5.49927C5.98469 17.052 6.37817 16.6585 6.37817 16.1731V15.6563H12.1371C13.4353 15.6563 14.4914 16.7125 14.4914 18.0106V20.0145H14.0893C13.6039 20.0145 13.2104 20.4079 13.2104 20.8934V25.4965C13.2104 25.982 13.6039 26.3754 14.0893 26.3754H16.9421V30.7025C16.9421 32.2025 18.1625 33.423 19.6626 33.423C21.1626 33.423 22.3831 32.2026 22.3831 30.7025C22.3831 30.0481 22.9154 29.5159 23.5697 29.5159H24.8407C26.7549 29.5159 28.3599 28.1703 28.762 26.3755H31.25C31.7354 26.3755 32.1289 25.982 32.1289 25.4966V20.8934C32.1289 20.4079 31.7354 20.0145 31.25 20.0145H30.5096V17.1318C30.5096 15.8337 31.5658 14.7775 32.8639 14.7775H38.6229V15.2943C38.6229 15.7797 39.0164 16.1732 39.5018 16.1732H44.1182C44.6037 16.1732 44.9971 15.7797 44.9971 15.2943V0.878906C44.9971 0.393486 44.6036 0 44.1181 0ZM4.62036 15.2942H1.76172V1.75781H4.62036V15.2942ZM24.8406 27.758H23.5696C21.946 27.758 20.6252 29.0789 20.6252 30.7024C20.6252 31.2333 20.1933 31.6651 19.6625 31.6651C19.1316 31.6651 18.6998 31.2333 18.6998 30.7024V26.3754H26.9243C26.5806 27.1871 25.7761 27.758 24.8406 27.758ZM30.371 24.6176H14.9683V21.7723H30.371V24.6176ZM43.2392 14.4155H40.3806V1.75781H43.2392V14.4155Z" fill="#1D8F2C"/>
<path id="Vector_2" d="M44.3141 37.3249L41.4116 36.6609C40.129 36.3675 38.9507 36.2407 37.8081 36.2742C37.303 36.2889 36.8033 36.1767 36.3636 35.9496L34.8075 35.1461C33.5102 34.4762 31.9465 34.4497 30.6245 35.0752C29.9518 35.3935 29.1561 35.4444 28.4411 35.2145L27.964 35.0612C26.0785 34.4553 24.035 34.5352 22.2101 35.2866L20.3105 36.0687C17.9118 37.0564 15.1064 36.7791 12.9892 35.345C11.8331 34.5619 10.3333 34.3384 8.97719 34.7476C8.94265 34.758 8.9089 34.7705 8.87594 34.785L0.527822 38.4711C0.209395 38.6117 0.00390625 38.9269 0.00390625 39.2751V44.1211C0.00390625 44.6065 0.397393 45 0.882812 45H6.87774C7.36316 45 7.75665 44.6065 7.75665 44.1211C7.75665 43.6357 7.36316 43.2422 6.87774 43.2422H1.76172V39.8478L9.53345 36.4164C10.375 36.1782 11.2948 36.3203 12.0036 36.8004C14.603 38.5611 18.0424 38.9037 20.9799 37.6943L22.8795 36.9121C24.3209 36.3186 25.9356 36.2557 27.4263 36.7348L27.9034 36.8881C29.0388 37.2531 30.3047 37.1713 31.3764 36.6642C32.2064 36.2715 33.1876 36.2879 34.0011 36.708L35.5571 37.5115C36.2609 37.8749 37.0568 38.0547 37.8594 38.0313C38.8509 38.0029 39.8843 38.1148 41.0196 38.3745L43.2393 38.8822V43.2422H14.5991C14.1137 43.2422 13.7202 43.6357 13.7202 44.1211C13.7202 44.6065 14.1137 45 14.5991 45H44.1182C44.6037 45 44.9971 44.6065 44.9971 44.1211V38.1816C44.9971 37.7717 44.7138 37.4163 44.3141 37.3249Z" fill="#1D8F2C"/>
<path id="Vector_3" d="M30.0688 2.61123C30.3785 3.35443 31.4866 3.30345 31.7212 2.52958C31.9516 1.76923 31.0936 1.1177 30.421 1.52648C30.0554 1.74876 29.9074 2.21695 30.0688 2.61123Z" fill="#1D8F2C"/>
<path id="Vector_4" d="M11.5537 43.7853C11.3722 43.3426 10.8471 43.1263 10.4058 43.3099C9.96374 43.4938 9.74744 44.014 9.93034 44.4568C10.1131 44.8992 10.6364 45.1158 11.0782 44.9323C11.5198 44.749 11.738 44.2278 11.5537 43.7853Z" fill="#1D8F2C"/>
<path id="Vector_5" d="M22.3736 5.50906C19.3578 5.50906 16.9043 7.96253 16.9043 10.9783C16.9043 13.9941 19.3578 16.4476 22.3736 16.4476C23.7532 16.4476 25.0707 15.9324 26.0836 14.9969C26.4402 14.6674 26.4622 14.1114 26.1329 13.7549C25.8035 13.3983 25.2475 13.3762 24.8909 13.7056C24.2038 14.3402 23.3098 14.6898 22.3736 14.6898C20.3271 14.6898 18.6621 13.0249 18.6621 10.9783C18.6621 8.93179 20.327 7.26688 22.3736 7.26688C23.9507 7.26688 25.3003 8.25617 25.8368 9.64643L25.3447 9.47205C24.8872 9.30998 24.3848 9.5494 24.2227 10.0069C24.0605 10.4644 24.3 10.9667 24.7575 11.1289L26.6703 11.8067C26.991 11.9202 27.3586 11.8342 27.5952 11.5897L29.1047 10.031C29.4423 9.68229 29.4335 9.12594 29.0847 8.78817C28.736 8.4505 28.1796 8.45946 27.8418 8.80813L27.5231 9.13736C26.7655 7.02474 24.7436 5.50906 22.3736 5.50906Z" fill="#1D8F2C"/>
</g>
</g>
</g>
<defs>
<clipPath id="clip0_2120_3877">
<rect width="45" height="45" fill="white"/>
</clipPath>
</defs>
</svg>
