<svg width="45" height="45" viewBox="0 0 45 45" fill="none" xmlns="http://www.w3.org/2000/svg">
<g id="025-environment">
<g id="Group">
<g id="Group_2">
<path id="Vector" d="M9.35156 22.503C9.35156 29.8311 15.3134 35.793 22.6416 35.793C29.9697 35.793 35.9316 29.8311 35.9316 22.503C35.9316 15.1749 29.9697 9.21301 22.6416 9.21301C15.3134 9.21301 9.35156 15.1749 9.35156 22.503ZM34.1733 22.503C34.1733 28.8617 29.0002 34.0347 22.6416 34.0347C16.283 34.0347 11.1099 28.8616 11.1099 22.503C11.1099 16.1445 16.283 10.9713 22.6416 10.9713C29.0002 10.9713 34.1733 16.1444 34.1733 22.503Z" fill="#1D8F2C"/>
<path id="Vector_2" d="M21.9267 13.0956L16.985 21.7552C16.6154 22.403 16.4199 23.1398 16.4199 23.8859C16.4199 27.0448 18.7682 29.6641 21.8104 30.0933V31.4957C21.8104 31.9813 22.2041 32.3749 22.6896 32.3749C23.175 32.3749 23.5687 31.9813 23.5687 31.4957V30.0935C26.6116 29.6648 28.9606 27.0452 28.9606 23.8859C28.9606 23.1398 28.7652 22.403 28.3955 21.7552L23.4538 13.0956C23.2973 12.8215 23.0059 12.6522 22.6902 12.6522C22.3747 12.6521 22.0833 12.8215 21.9267 13.0956ZM26.8684 22.6267C27.0869 23.0095 27.2024 23.4449 27.2024 23.8859C27.2024 26.0733 25.6376 27.9015 23.5688 28.3116V25.0179L25.0926 23.4942C25.4359 23.1509 25.4359 22.5942 25.0926 22.2508C24.7492 21.9075 24.1927 21.9075 23.8492 22.2508L23.5688 22.5311V20.3295C23.5688 19.8439 23.1751 19.4503 22.6897 19.4503C22.2042 19.4503 21.8105 19.8439 21.8105 20.3295V24.3566L21.2856 23.8535C20.9351 23.5175 20.3785 23.5292 20.0425 23.8798C19.7065 24.2304 19.7183 24.7869 20.0688 25.1229L21.8105 26.7921V28.3112C19.7424 27.9007 18.1783 26.0727 18.1783 23.8858C18.1783 23.4448 18.2937 23.0094 18.5123 22.6266L22.6904 15.305L26.8684 22.6267Z" fill="#1D8F2C"/>
<path id="Vector_3" d="M5.21027 17.2386C5.44536 17.2386 5.67068 17.1444 5.83588 16.9771L10.1729 12.5846C10.7123 12.0382 10.3106 11.0878 9.5473 11.0878H8.17969V9.80061C8.17969 8.38105 9.33463 7.2262 10.7541 7.2262H36.8805V15.949C36.8805 16.4345 37.2742 16.8281 37.7597 16.8281H41.8289C42.3144 16.8281 42.708 16.4345 42.708 15.949V9.24666C42.708 5.04749 39.1994 1.54724 35.0086 1.54724H18.2414C17.7559 1.54724 17.3622 1.94084 17.3622 2.42639C17.3622 2.91195 17.7559 3.30554 18.2414 3.30554H35.0086C36.554 3.30554 38.0179 3.89607 39.1308 4.96828C39.2948 5.12635 39.449 5.29304 39.593 5.4679H37.7597H10.7542C8.3651 5.4679 6.42148 7.41152 6.42148 9.80061V11.9669C6.42148 12.544 6.9167 12.8608 7.44384 12.8461L5.21036 15.1081L2.97697 12.8461C3.50376 12.8608 3.99933 12.5454 3.99933 11.9669V9.80061C3.99933 6.21922 6.91301 3.30554 10.4944 3.30554H10.5012C10.9866 3.30554 11.377 2.91195 11.377 2.42639C11.377 1.94084 10.9799 1.54724 10.4944 1.54724C5.94349 1.54724 2.24103 5.24969 2.24103 9.80061V11.0878H0.873338C0.11006 11.0878 -0.291711 12.0382 0.247735 12.5846L4.58467 16.9771C4.74986 17.1444 4.97519 17.2386 5.21027 17.2386ZM40.5937 7.22629C40.8276 7.87396 40.9498 8.56295 40.9498 9.24675V15.0699H38.6389V7.22629H40.5937Z" fill="#1D8F2C"/>
<path id="Vector_4" d="M44.7525 31.5445L40.4156 27.152C40.0765 26.8086 39.5035 26.8086 39.1644 27.152L34.8274 31.5445C34.29 32.0887 34.6897 33.0413 35.453 33.0413H36.8206V34.3285C36.8206 36.2282 35.275 37.7738 33.3753 37.7738H8.1791V29.016C8.1791 28.5305 7.78541 28.1369 7.29995 28.1369H3.23071C2.74525 28.1369 2.35156 28.5305 2.35156 29.016V35.7534C2.35156 39.9514 5.85902 43.4528 10.051 43.4528H33.6351C38.6663 43.4528 42.7593 39.3596 42.7593 34.3285V33.0413H44.1269C44.8899 33.0413 45.2902 32.0891 44.7525 31.5445ZM4.10986 29.8951H6.4208V37.7738H4.46601C4.23206 37.1263 4.10986 36.4371 4.10986 35.7533V29.8951ZM41.8802 31.283C41.3947 31.283 41.001 31.6766 41.001 32.1621V34.3285C41.001 38.39 37.6966 41.6944 33.6351 41.6945H10.051C8.50561 41.6945 7.04174 41.104 5.92874 40.0318C5.76469 39.8737 5.61057 39.707 5.46657 39.5321H7.29995H33.3752C36.2445 39.5321 38.5788 37.1977 38.5788 34.3285V32.1621C38.5788 31.576 38.0832 31.283 37.5564 31.283L39.7899 29.0209L42.0233 31.283H41.8802Z" fill="#1D8F2C"/>
<path id="Vector_5" d="M13.522 2.76296C13.8275 3.49626 14.9094 3.45881 15.1651 2.70863C15.4237 1.94992 14.5681 1.26348 13.8817 1.67273C13.5111 1.89374 13.3591 2.36567 13.522 2.76296Z" fill="#1D8F2C"/>
</g>
</g>
</g>
</svg>
