<svg width="65" height="66" viewBox="0 0 65 66" fill="none" xmlns="http://www.w3.org/2000/svg">
<g id="Solar panel" clip-path="url(#clip0_2077_779)">
<g id="Group">
<g id="Group_2">
<path id="Vector" d="M14.2627 38.2852C13.7369 38.2852 13.3105 38.7113 13.3105 39.2373V58.6806C13.3105 59.2065 13.7369 59.6327 14.2627 59.6327C14.7885 59.6327 15.2148 59.2065 15.2148 58.6806V39.2373C15.2148 38.7115 14.7885 38.2852 14.2627 38.2852Z" fill="#CBC4CC"/>
<path id="Vector_2" d="M34.3506 38.2852C33.8247 38.2852 33.3984 38.7113 33.3984 39.2373V58.6806C33.3984 59.2065 33.8247 59.6327 34.3506 59.6327C34.8764 59.6327 35.3027 59.2065 35.3027 58.6806V39.2373C35.3027 38.7115 34.8764 38.2852 34.3506 38.2852Z" fill="#CBC4CC"/>
<path id="Vector_3" d="M54.4385 38.2852C53.9126 38.2852 53.4863 38.7113 53.4863 39.2373V58.6806C53.4863 59.2065 53.9126 59.6327 54.4385 59.6327C54.9643 59.6327 55.3906 59.2065 55.3906 58.6806V39.2373C55.3906 38.7115 54.9643 38.2852 54.4385 38.2852Z" fill="#CBC4CC"/>
</g>
<g id="Group_3">
<path id="Vector_4" d="M17.2701 62.496H11.2539V60.4304C11.2539 58.7691 12.6006 57.4224 14.2619 57.4224C15.9232 57.4224 17.27 58.7691 17.27 60.4304L17.2701 62.496Z" fill="#7A6D79"/>
<path id="Vector_5" d="M37.3579 62.496H31.3418V60.4304C31.3418 58.7691 32.6885 57.4224 34.3498 57.4224C36.0111 57.4224 37.3579 58.7691 37.3579 60.4304V62.496Z" fill="#7A6D79"/>
<path id="Vector_6" d="M57.4477 62.496H51.4316V60.4304C51.4316 58.7691 52.7784 57.4224 54.4397 57.4224C56.101 57.4224 57.4477 58.7691 57.4477 60.4304V62.496Z" fill="#7A6D79"/>
<path id="Vector_7" d="M24.2492 30.1746L3.34893 51.0748C2.58277 51.8409 1.34066 51.8409 0.574622 51.0748C-0.191541 50.3086 -0.191541 49.0665 0.574622 48.3005L21.4748 27.4003C22.2409 26.6341 23.4831 26.6341 24.2491 27.4003C25.0153 28.1663 25.0153 29.4085 24.2492 30.1746Z" fill="#7A6D79"/>
<path id="Vector_8" d="M44.337 30.1746L23.4368 51.0748C22.6707 51.8409 21.4285 51.8409 20.6625 51.0748C19.8964 50.3086 19.8964 49.0665 20.6625 48.3005L41.5627 27.4003C42.3288 26.6341 43.5709 26.6341 44.337 27.4003C45.1031 28.1663 45.1031 29.4085 44.337 30.1746Z" fill="#7A6D79"/>
<path id="Vector_9" d="M64.4249 30.1746L43.5247 51.0748C42.7585 51.8409 41.5164 51.8409 40.7504 51.0748C39.9842 50.3086 39.9842 49.0665 40.7504 48.3005L61.6506 27.4003C62.4167 26.6341 63.6588 26.6341 64.4249 27.4003C65.191 28.1663 65.191 29.4085 64.4249 30.1746Z" fill="#7A6D79"/>
</g>
<path id="Vector_10" d="M14.0317 20.316C17.3543 20.316 20.0477 17.6226 20.0477 14.3C20.0477 10.9774 17.3543 8.28394 14.0317 8.28394C10.7091 8.28394 8.01562 10.9774 8.01562 14.3C8.01562 17.6226 10.7091 20.316 14.0317 20.316Z" fill="#FFD15B"/>
<path id="Vector_11" d="M14.0302 8.28394C13.343 8.28394 12.6834 8.40073 12.0684 8.61287C14.4274 9.42651 16.1227 11.6646 16.1227 14.3C16.1227 16.9354 14.4274 19.1735 12.0684 19.9871C12.6834 20.1992 13.343 20.316 14.0302 20.316C17.3528 20.316 20.0462 17.6225 20.0462 14.3C20.0462 10.9775 17.3528 8.28394 14.0302 8.28394Z" fill="#FFC344"/>
<g id="Group_4">
<path id="Vector_12" d="M14.0303 0.269287C13.5044 0.269287 13.0781 0.695469 13.0781 1.22144V2.79083C13.0781 3.3168 13.5044 3.74298 14.0303 3.74298C14.5561 3.74298 14.9824 3.3168 14.9824 2.79083V1.22144C14.9824 0.695469 14.5561 0.269287 14.0303 0.269287Z" fill="#FFC344"/>
<path id="Vector_13" d="M14.0303 24.8567C13.5044 24.8567 13.0781 25.2829 13.0781 25.8088V27.3782C13.0781 27.9042 13.5044 28.3304 14.0303 28.3304C14.5561 28.3304 14.9824 27.9042 14.9824 27.3782V25.8088C14.9824 25.2829 14.5561 24.8567 14.0303 24.8567Z" fill="#FFC344"/>
<path id="Vector_14" d="M22.6053 4.3788L21.4956 5.48863C21.1238 5.86047 21.1239 6.46337 21.4956 6.83509C21.6816 7.02095 21.9252 7.11388 22.1689 7.11388C22.4125 7.11388 22.6562 7.02095 22.8422 6.83496L23.9519 5.72514C24.3238 5.35329 24.3236 4.75039 23.9519 4.37867C23.58 4.00696 22.9772 4.00683 22.6053 4.3788Z" fill="#FFC344"/>
<path id="Vector_15" d="M5.21861 21.7647L4.10891 22.8745C3.73707 23.2464 3.7372 23.8493 4.10891 24.221C4.2949 24.4068 4.53852 24.4998 4.78215 24.4998C5.02577 24.4998 5.26952 24.4068 5.45551 24.2209L6.5652 23.111C6.93705 22.7392 6.93692 22.1363 6.5652 21.7646C6.19323 21.393 5.59046 21.3928 5.21861 21.7647Z" fill="#FFC344"/>
<path id="Vector_16" d="M27.1094 13.3479H25.54C25.0142 13.3479 24.5879 13.7741 24.5879 14.3C24.5879 14.826 25.0142 15.2522 25.54 15.2522H27.1094C27.6353 15.2522 28.0616 14.826 28.0616 14.3C28.0616 13.7741 27.6353 13.3479 27.1094 13.3479Z" fill="#FFC344"/>
<path id="Vector_17" d="M2.52154 13.3479H0.952148C0.426309 13.3479 0 13.7741 0 14.3C0 14.826 0.426309 15.2522 0.952148 15.2522H2.52154C3.04738 15.2522 3.47369 14.826 3.47369 14.3C3.47369 13.7741 3.04738 13.3479 2.52154 13.3479Z" fill="#FFC344"/>
<path id="Vector_18" d="M22.8423 21.7648C22.4703 21.3928 21.8675 21.3929 21.4957 21.7647C21.1238 22.1365 21.1238 22.7394 21.4957 23.1111L22.6054 24.2209C22.7914 24.4069 23.035 24.4999 23.2787 24.4999C23.5225 24.4999 23.7661 24.4069 23.952 24.2211C24.3238 23.8492 24.3238 23.2463 23.952 22.8746L22.8423 21.7648Z" fill="#FFC344"/>
<path id="Vector_19" d="M5.45555 4.3788C5.08358 4.00683 4.48081 4.00696 4.10896 4.37867C3.73712 4.75052 3.73712 5.35342 4.10896 5.72514L5.21866 6.83496C5.40465 7.02095 5.64827 7.11388 5.89202 7.11388C6.13577 7.11388 6.37939 7.02095 6.56525 6.83509C6.9371 6.46324 6.9371 5.86034 6.56525 5.48863L5.45555 4.3788Z" fill="#FFC344"/>
</g>
<path id="Vector_20" d="M63.0382 65.2693H1.96181C0.878262 65.2693 0 64.3911 0 63.3075C0 62.2241 0.878262 61.3457 1.96181 61.3457H63.0383C64.1217 61.3457 65.0001 62.224 65.0001 63.3075C65 64.3911 64.1217 65.2693 63.0382 65.2693Z" fill="#97DA7B"/>
<path id="Vector_21" d="M63.0387 61.3457H59.1152C60.1987 61.3457 61.077 62.2241 61.077 63.3075C61.077 64.3909 60.1987 65.2693 59.1152 65.2693H63.0387C64.1221 65.2693 65.0005 64.3909 65.0005 63.3075C65.0005 62.224 64.1221 61.3457 63.0387 61.3457Z" fill="#80D261"/>
</g>
</g>
<defs>
<clipPath id="clip0_2077_779">
<rect width="65" height="65" fill="white" transform="translate(0 0.269287)"/>
</clipPath>
</defs>
</svg>
