<svg width="65" height="66" viewBox="0 0 65 66" fill="none" xmlns="http://www.w3.org/2000/svg">
<g id="Solar panel" clip-path="url(#clip0_2077_815)">
<g id="Group">
<g id="Group_2">
<g id="Group_3">
<path id="Vector" d="M8.09287 9.10502C8.88937 9.07214 9.2277 8.03392 8.68549 7.487C7.63457 6.42695 6.58175 5.36854 5.52575 4.31356C4.65688 3.44545 3.31537 4.78595 4.17814 5.65723C5.22842 6.71792 6.28239 7.77506 7.33585 8.83258C7.52018 9.01768 7.74603 9.10731 8.09287 9.10502ZM23.3163 4.15156C23.0248 4.15537 22.7968 4.23967 22.6111 4.42388C21.6231 5.40294 20.6347 6.3815 19.6494 7.36323C18.736 8.27335 20.0822 9.62261 21.0012 8.70817C21.7857 7.92753 23.7683 5.9755 23.9612 5.76717C24.5179 5.16592 24.1251 4.20603 23.3163 4.15156ZM27.0705 15.2781C28.236 15.2617 28.2713 13.4011 27.1007 13.3845C25.9699 13.3684 24.8389 13.3595 23.7081 13.3644C22.4603 13.3699 22.5005 15.2671 23.7378 15.2697C24.2856 15.2709 26.5075 15.286 27.0705 15.2781ZM4.34559 15.1263C5.49718 15.0975 5.53946 13.2527 4.37695 13.2339C3.24631 13.2155 2.11528 13.2073 0.984509 13.2122C-0.271565 13.2178 -0.232337 15.1161 1.01295 15.1176C1.56088 15.1182 4.47064 15.1231 4.34559 15.1263Z" fill="#FF9626"/>
<path id="Vector_2" d="M4.05985 22.7257C5.03244 21.7531 6.00693 20.7824 6.98435 19.8148C7.88825 18.9199 9.22824 20.2698 8.32548 21.1691C7.36901 22.1219 6.41014 23.0721 5.45558 24.0268C4.69056 24.7917 3.26513 23.5203 4.05985 22.7257Z" fill="#FF9626"/>
<path id="Vector_3" d="M14.2688 0.284424C14.7429 0.422295 14.9986 0.729141 15.0361 1.20509C15.0334 2.31694 15.0343 3.4288 15.0296 4.54065C15.0243 5.79038 13.1256 5.78353 13.127 4.53037C13.1281 3.45419 13.1318 2.37788 13.137 1.3017C13.1405 0.5754 13.6619 0.284424 14.2688 0.284424Z" fill="#FF9626"/>
<path id="Vector_4" d="M8.09322 9.10502C7.74639 9.10731 7.52054 9.01768 7.3362 8.83258C6.28275 7.77506 5.22878 6.71792 4.1785 5.65723C3.31572 4.78595 4.65724 3.44545 5.52611 4.31356C6.5821 5.36866 7.63492 6.42695 8.68584 7.487C9.22806 8.03392 8.8896 9.07214 8.09322 9.10502Z" fill="#FF9626"/>
<path id="Vector_5" d="M23.3171 4.15161C24.1259 4.2062 24.5187 5.16609 23.962 5.76722C23.962 5.76722 21.7864 7.92758 21.002 8.70821C20.083 9.62278 18.7367 8.2734 19.6502 7.36327C20.6355 6.38154 22.6119 4.42393 22.6119 4.42393C22.7977 4.23972 23.0256 4.15529 23.3171 4.15161Z" fill="#FF9626"/>
<path id="Vector_6" d="M23.738 15.2697C22.5007 15.2671 22.4604 13.3699 23.7083 13.3644C24.839 13.3595 25.9701 13.3683 27.1008 13.3845C28.2715 13.4011 28.2362 15.2617 27.0706 15.2781C26.5077 15.286 24.2858 15.2709 23.738 15.2697Z" fill="#FF9626"/>
<path id="Vector_7" d="M1.01295 15.1175C-0.232337 15.1161 -0.271565 13.2177 0.984509 13.2121C2.11528 13.2072 3.24631 13.2154 4.37695 13.2338C5.53946 13.2527 5.49718 15.0974 4.34559 15.1262C4.47051 15.1231 1.56075 15.1182 1.01295 15.1175Z" fill="#FF9626"/>
</g>
</g>
<path id="Vector_8" d="M13.9777 24.8671C19.8657 24.8671 24.6389 20.099 24.6389 14.2173C24.6389 8.33567 19.8657 3.56763 13.9777 3.56763C8.08962 3.56763 3.31641 8.33567 3.31641 14.2173C3.31641 20.099 8.08962 24.8671 13.9777 24.8671Z" fill="#FFC103"/>
<g id="Group_4">
<g id="Group_5">
<path id="Vector_9" d="M46.218 13.3713C44.9049 12.0646 42.7687 12.0648 41.4559 13.3713C41.0829 13.7423 40.48 13.7408 40.1093 13.3681C39.7383 12.9954 39.7398 12.3925 40.1125 12.0217C42.1663 9.97786 45.5076 9.97774 47.5614 12.0217C47.9342 12.3926 47.9381 12.998 47.5646 13.3681C47.0051 13.9227 46.4039 13.5562 46.218 13.3713Z" fill="#C7CBD9"/>
<path id="Vector_10" d="M49.0493 10.1353C46.1745 7.27452 41.4979 7.27478 38.6238 10.1353C38.2508 10.5062 37.6481 10.5047 37.2772 10.1321C36.9063 9.75938 36.9078 9.15648 37.2805 8.78565C40.8958 5.18792 46.7778 5.18805 50.3926 8.78565C50.7654 9.15661 50.7685 9.76128 50.3958 10.1321C49.84 10.6854 49.2351 10.3203 49.0493 10.1353Z" fill="#C7CBD9"/>
</g>
<path id="Vector_11" d="M22.0059 31.3503H26.4892V64.3019H22.0059V31.3503Z" fill="#C9EEFA"/>
<path id="Vector_12" d="M38.4355 31.3503H42.9189V64.3019H38.4355V31.3503Z" fill="#C9EEFA"/>
<g id="Group_6">
<path id="Vector_13" d="M52.9126 47.8953H9.2711C7.51559 47.8953 6.29684 46.147 6.90406 44.4999L15.228 21.9202H61.5225C63.278 21.9202 64.4967 23.6684 63.8895 25.3155L56.4832 45.406C55.932 46.9017 54.5068 47.8953 52.9126 47.8953Z" fill="#65B7C7"/>
<path id="Vector_14" d="M52.7784 44.0655H3.91211L13.287 18.6353H62.1533L52.7784 44.0655Z" fill="#C9EEFA"/>
<path id="Vector_15" d="M57.076 18.6353L47.7012 44.0655H52.7793L62.1542 18.6353H57.076Z" fill="#B4E4F2"/>
<path id="Vector_16" d="M57.8153 30.3982H46.7298L51.0663 18.6353H49.0367L44.7002 30.3982H34.3988L38.7352 18.6353H36.7056L32.3692 30.3982H22.0677L26.4041 18.6353H24.3745L20.0381 30.3982H8.95087L8.23828 32.3025H19.3361L14.9794 44.0655H17.0293L21.3657 32.3025H31.6672L27.3308 44.0655H29.3604L33.6967 32.3025H43.9982L39.6575 44.0655H41.6914L46.0278 32.3025H57.1151L57.8153 30.3982Z" fill="white"/>
</g>
<path id="Vector_17" d="M63.6831 56.2395C62.9029 55.4592 61.073 55.9731 59.2678 57.3699C58.9746 55.1216 58.0476 53.4792 56.9492 53.4792C55.8701 53.4792 54.9562 55.0645 54.6465 57.252C52.8926 55.9448 51.1444 55.4816 50.3864 56.2393C49.4432 57.1826 50.3914 59.6603 52.5044 61.7733C53.5754 62.8443 55.2724 64.236 56.8956 64.2995C58.6305 64.3673 60.4303 62.9082 61.5652 61.7733C63.6782 59.6605 64.6264 57.1828 63.6831 56.2395Z" fill="#B8CB56"/>
<g id="Group_7">
<path id="Vector_18" d="M63.6825 56.2395C62.9022 55.4592 61.0723 55.9731 59.2672 57.3699C59.263 57.3378 59.2581 57.3062 59.2537 57.2742C59.2496 58.4673 58.3267 60.2187 56.772 61.7734C56.1982 62.3472 55.4542 63.0037 54.6348 63.504C55.3562 63.948 56.1337 64.2698 56.8949 64.2995C58.6299 64.3673 60.4297 62.9082 61.5645 61.7734C63.6775 59.6605 64.6257 57.1829 63.6825 56.2395Z" fill="#A7BD39"/>
<path id="Vector_19" d="M54.4355 57.1021C54.4494 57.1905 54.4626 57.2795 54.4744 57.3701C54.5287 57.328 54.5831 57.2869 54.6374 57.2465C54.57 57.1964 54.5028 57.1497 54.4355 57.1021Z" fill="#A7BD39"/>
</g>
<path id="Vector_20" d="M47.3257 56.2395C46.5455 55.4592 44.7156 55.9731 42.9104 57.3699C42.6171 55.1216 41.6901 53.4792 40.5917 53.4792C39.5126 53.4792 38.5988 55.0645 38.2891 57.252C36.5352 55.9448 34.7869 55.4816 34.029 56.2393C33.0858 57.1826 34.034 59.6603 36.147 61.7733C37.218 62.8443 38.9149 64.236 40.5382 64.2995C42.2731 64.3673 44.0729 62.9082 45.2078 61.7733C47.3208 59.6605 48.269 57.1828 47.3257 56.2395Z" fill="#B8CB56"/>
<path id="Vector_21" d="M47.327 56.2395C46.5467 55.4592 44.7168 55.9731 42.9117 57.3699C42.9075 57.3378 42.9027 57.3062 42.8982 57.2742C42.8942 58.4673 41.9712 60.2187 40.4166 61.7734C39.8427 62.3472 39.0988 63.0037 38.2793 63.504C39.0008 63.948 39.7782 64.2698 40.5394 64.2995C42.2744 64.3673 44.0742 62.9082 45.209 61.7734C47.322 59.6605 48.2703 57.1829 47.327 56.2395Z" fill="#A7BD39"/>
<path id="Vector_22" d="M30.9702 56.2395C30.19 55.4592 28.3601 55.9731 26.5549 57.3699C26.2617 55.1216 25.3347 53.4792 24.2363 53.4792C23.1572 53.4792 22.2434 55.0645 21.9336 57.252C20.1797 55.9448 18.4315 55.4816 17.6736 56.2393C16.7303 57.1826 17.6785 59.6603 19.7915 61.7733C20.8625 62.8443 22.5595 64.236 24.1828 64.2995C25.9178 64.3673 27.7176 62.9082 28.8524 61.7733C30.9653 59.6605 31.9135 57.1828 30.9702 56.2395Z" fill="#B8CB56"/>
<path id="Vector_23" d="M30.9696 56.2395C30.1893 55.4592 28.3594 55.9731 26.5543 57.3699C26.5501 57.3378 26.5453 57.3062 26.5408 57.2742C26.5367 58.4673 25.6138 60.2187 24.0591 61.7734C23.4853 62.3472 22.7414 63.0037 21.9219 63.504C22.6433 63.948 23.4208 64.2698 24.182 64.2995C25.917 64.3673 27.7168 62.9082 28.8516 61.7734C30.9646 59.6605 31.9128 57.1829 30.9696 56.2395Z" fill="#A7BD39"/>
<path id="Vector_24" d="M14.6148 56.2395C13.8345 55.4592 12.0046 55.9731 10.1995 57.3699C9.90621 55.1216 8.9792 53.4792 7.8808 53.4792C6.8017 53.4792 5.88789 55.0645 5.57812 57.252C3.82427 55.9448 2.07599 55.4816 1.31808 56.2393C0.374823 57.1826 1.32304 59.6603 3.43604 61.7733C4.50702 62.8443 6.204 64.236 7.82735 64.2995C9.56229 64.3673 11.3621 62.9082 12.4969 61.7733C14.6098 59.6605 15.558 57.1828 14.6148 56.2395Z" fill="#B8CB56"/>
<path id="Vector_25" d="M14.6141 56.2395C13.8338 55.4592 12.0039 55.9731 10.1988 57.3699C10.1946 57.3378 10.1898 57.3062 10.1853 57.2742C10.1813 58.4673 9.25833 60.2187 7.70366 61.7734C7.12983 62.3472 6.38589 63.0037 5.56641 63.504C6.28788 63.948 7.06534 64.2698 7.82655 64.2995C9.56149 64.3673 11.3613 62.9082 12.4961 61.7734C14.6093 59.6605 15.5575 57.1829 14.6141 56.2395Z" fill="#A7BD39"/>
<path id="Vector_26" d="M64.0479 63.3496H0.952148C0.426182 63.3496 0 63.7759 0 64.3018C0 64.8276 0.426182 65.2539 0.952148 65.2539H64.0479C64.5738 65.2539 65 64.8276 65 64.3018C65 63.7759 64.5738 63.3496 64.0479 63.3496Z" fill="#8BA120"/>
</g>
</g>
</g>
<defs>
<clipPath id="clip0_2077_815">
<rect width="65" height="65" fill="white" transform="translate(0 0.269287)"/>
</clipPath>
</defs>
</svg>
