<svg width="65" height="66" viewBox="0 0 65 66" fill="none" xmlns="http://www.w3.org/2000/svg">
<g id="Windmill" clip-path="url(#clip0_2077_859)">
<path id="Vector" d="M58.9348 32.2328C59.3191 31.5668 59.0905 30.7158 58.425 30.3315L49.7768 25.3381C49.7446 26.323 49.2224 27.228 48.3848 27.7488L57.0334 32.7421C57.699 33.1264 58.5504 32.8983 58.9348 32.2328Z" fill="#E4E3E1"/>
<path id="Vector_2" d="M48.3675 22.7207V12.6398C48.3675 11.8712 47.7447 11.2478 46.976 11.2478C46.2068 11.2483 45.584 11.8717 45.584 12.6398V22.5526C46.4493 22.1554 47.4843 22.1777 48.3675 22.7207Z" fill="#E4E3E1"/>
<path id="Vector_3" d="M34.7826 32.3687C35.1669 33.0342 36.0179 33.2623 36.6839 32.878L45.4139 27.8376C44.4995 27.3426 43.9654 26.4564 43.8766 25.5107L35.2919 30.4674C34.6254 30.8522 34.3983 31.7037 34.7826 32.3687Z" fill="#E4E3E1"/>
<g id="Group">
<path id="Vector_4" d="M51.272 28.2268C50.8985 28.0111 50.8227 27.5107 51.1063 27.1864C51.3136 26.9498 51.4812 26.6821 51.6037 26.3934L49.7763 25.3381C49.7441 26.323 49.2219 27.228 48.3848 27.7488L57.0329 32.7421C57.5899 33.0634 58.2762 32.9553 58.7106 32.5214L51.272 28.2268Z" fill="#D1D0CF"/>
<path id="Vector_5" d="M47.644 12.6398C47.644 12.2803 47.7819 11.953 48.006 11.706C47.7511 11.4253 47.3846 11.2483 46.976 11.2483C46.2068 11.2483 45.584 11.8717 45.584 12.6398V22.5531C46.2202 22.261 46.9517 22.1965 47.644 22.3969V12.6398Z" fill="#D1D0CF"/>
<path id="Vector_6" d="M36.8426 32.3687C36.4588 31.7037 36.6854 30.8522 37.3519 30.4674L44.1628 26.5353C44.0065 26.2139 43.9103 25.8668 43.8766 25.5107L35.2919 30.4674C34.6254 30.8522 34.3983 31.7037 34.7826 32.3687C35.1669 33.0342 36.0179 33.2623 36.6834 32.878L37.0658 32.6573C36.9815 32.5725 36.9051 32.4773 36.8426 32.3687Z" fill="#D1D0CF"/>
<path id="Vector_7" d="M48.9068 51.8331V37.1953H44.8105V51.8435C46.2254 51.6878 47.5366 51.6898 48.9068 51.8331Z" fill="#D1D0CF"/>
</g>
<path id="Vector_8" d="M47.4265 37.1953H44.8105V51.8435C45.7012 51.7453 46.5671 51.7091 47.4265 51.7339V37.1953Z" fill="#C1C1C1"/>
<path id="Vector_9" d="M45.2772 27.6143L44.8105 37.1952H48.9068L48.4406 27.6148C47.5098 28.2103 46.2824 28.2579 45.2772 27.6143Z" fill="#E4E3E1"/>
<path id="Vector_10" d="M45.2772 27.6138L44.8105 37.1953H47.4265L47.8792 27.894C47.0496 28.2029 46.091 28.135 45.2772 27.6138Z" fill="#D1D0CF"/>
<path id="Vector_11" d="M1.25231 65.2692H34.9256C35.8098 65.2692 36.4178 64.374 36.0861 63.5543C33.2068 56.4415 26.2343 51.4238 18.089 51.4238C9.94364 51.4238 2.97164 56.4415 0.0918835 63.5543C-0.239881 64.374 0.368106 65.2692 1.25231 65.2692Z" fill="#B5E563"/>
<path id="Vector_12" d="M15.6625 65.2692H49.3358C50.22 65.2692 50.828 64.374 50.4962 63.5543C47.617 56.4415 40.6445 51.4238 32.4991 51.4238C24.3538 51.4238 17.3818 56.4415 14.502 63.5543C14.1703 64.374 14.7783 65.2692 15.6625 65.2692Z" fill="#9AD14B"/>
<path id="Vector_13" d="M30.0746 65.2692H63.7479C64.6321 65.2692 65.2401 64.374 64.9083 63.5543C62.0286 56.4415 55.0566 51.4238 46.9112 51.4238C38.7659 51.4238 31.7934 56.4415 28.9141 63.5543C28.5824 64.374 29.1904 65.2692 30.0746 65.2692Z" fill="#7FBB37"/>
<path id="Vector_14" d="M2.70781 63.5545C5.43185 56.826 11.8192 51.975 19.3967 51.4702C10.809 50.8984 3.16554 55.9631 0.0918835 63.5545C-0.239881 64.3743 0.368106 65.2694 1.25231 65.2694H3.86824C2.98403 65.2694 2.37605 64.3743 2.70781 63.5545Z" fill="#9AD14B"/>
<path id="Vector_15" d="M17.118 63.5543C19.842 56.8258 26.2293 51.9748 33.8068 51.4699C33.3744 51.4412 32.939 51.4238 32.4991 51.4238C24.3538 51.4238 17.3818 56.4415 14.502 63.5543C14.1703 64.374 14.7783 65.2692 15.6625 65.2692H18.2784C17.3942 65.2692 16.7862 64.374 17.118 63.5543Z" fill="#7FBB37"/>
<path id="Vector_16" d="M31.5301 63.5545C34.2541 56.826 40.6414 51.975 48.219 51.4702C39.6308 50.8984 31.9873 55.9636 28.9141 63.5545C28.5824 64.3743 29.1904 65.2694 30.0746 65.2694H32.6905C31.8063 65.2694 31.1983 64.3743 31.5301 63.5545Z" fill="#6C9B1B"/>
<path id="Vector_17" d="M49.8416 24.4389C49.127 21.7704 45.5471 21.3305 44.1823 23.6935C43.3288 25.1723 43.8347 27.0598 45.3135 27.9137C47.6993 29.2909 50.5483 27.0756 49.8416 24.4389Z" fill="#D1D0CF"/>
<path id="Vector_18" d="M48.1498 22.4321C45.7709 21.3327 43.2016 23.5261 43.8746 26.0379C44.0883 26.8348 44.5991 27.5013 45.3137 27.9139C46.1895 28.4192 47.2378 28.4589 48.1459 28.0438C45.7486 26.9409 45.7506 23.5251 48.1498 22.4321Z" fill="#C1C1C1"/>
<path id="Vector_19" d="M17.4343 16.1945V1.577C17.4343 0.854957 16.8486 0.269287 16.1261 0.269287C15.404 0.269287 14.8184 0.854957 14.8184 1.577V16.1945C15.6351 15.7581 16.617 15.7581 17.4343 16.1945Z" fill="#E4E3E1"/>
<path id="Vector_20" d="M13.3502 18.5708L0.689086 25.8805C0.063743 26.242 -0.15049 27.0419 0.210532 27.6673C0.572051 28.2931 1.37195 28.5074 1.9973 28.1463L14.5215 20.915C13.791 20.3972 13.3234 19.5448 13.3502 18.5708Z" fill="#E4E3E1"/>
<path id="Vector_21" d="M31.5629 25.8805L18.9023 18.5708C18.9286 19.5438 18.4619 20.3967 17.7305 20.915L30.2552 28.1463C30.8815 28.5079 31.6814 28.2921 32.0419 27.6673C32.403 27.0419 32.1887 26.242 31.5629 25.8805Z" fill="#E4E3E1"/>
<path id="Vector_22" d="M16.6929 1.5775C16.6929 1.22292 16.8347 0.901573 17.0633 0.666511C16.8258 0.421532 16.494 0.269287 16.1261 0.269287C15.404 0.269287 14.8184 0.854957 14.8184 1.577V16.1945C15.3787 15.8954 16.0363 15.7898 16.6929 15.9267V1.5775Z" fill="#D1D0CF"/>
<path id="Vector_23" d="M2.08507 27.6673C1.72405 27.0419 1.93828 26.242 2.56412 25.8805L13.5034 19.5651C13.3844 19.2264 13.3412 18.911 13.3502 18.5708L0.689086 25.8805C0.063743 26.242 -0.15049 27.0419 0.210532 27.6673C0.572051 28.2931 1.37195 28.5074 1.9973 28.1463L2.31716 27.9614C2.22839 27.8771 2.14954 27.7789 2.08507 27.6673Z" fill="#D1D0CF"/>
<path id="Vector_24" d="M20.5512 21.4615C20.1153 21.2095 19.9988 20.6412 20.2854 20.2276C20.4262 20.0248 20.5408 19.8021 20.6236 19.5651L18.9023 18.5708C18.9286 19.5443 18.4614 20.3972 17.7305 20.9155L30.2552 28.1463C30.7699 28.4434 31.4007 28.3502 31.8099 27.9614L20.5512 21.4615Z" fill="#D1D0CF"/>
<path id="Vector_25" d="M13.5762 36.9414H18.6731V65.2693H13.5762V36.9414Z" fill="#D1D0CF"/>
<path id="Vector_26" d="M14.5581 20.7256L13.5762 36.9414H18.6731L17.6917 20.7256C16.7475 21.3797 15.5033 21.3807 14.5581 20.7256Z" fill="#E4E3E1"/>
<path id="Vector_27" d="M13.5762 36.9414H16.1247V65.2693H13.5762V36.9414Z" fill="#C1C1C1"/>
<path id="Vector_28" d="M14.5581 20.7256L13.5762 36.9414H16.1247L17.0877 21.0405C16.2338 21.3608 15.2955 21.2369 14.5581 20.7256Z" fill="#D1D0CF"/>
<path id="Vector_29" d="M16.1253 15.7368C14.5206 15.7368 13.2148 17.0425 13.2148 18.6478C13.2148 20.2526 14.5206 21.5583 16.1253 21.5583C17.7306 21.5583 19.0363 20.2526 19.0363 18.6478C19.0363 17.0425 17.7306 15.7368 16.1253 15.7368Z" fill="#D1D0CF"/>
<path id="Vector_30" d="M17.3998 16.0309C15.4712 15.0877 13.2148 16.503 13.2148 18.6473C13.2148 20.7902 15.4697 22.208 17.3998 21.2643C15.2198 20.198 15.2228 17.0956 17.3998 16.0309Z" fill="#C1C1C1"/>
</g>
<defs>
<clipPath id="clip0_2077_859">
<rect width="65" height="65" fill="white" transform="translate(0 0.269287)"/>
</clipPath>
</defs>
</svg>
