<svg width="40" height="40" viewBox="0 0 40 40" fill="none" xmlns="http://www.w3.org/2000/svg">
<g clip-path="url(#clip0_2167_67)">
<path d="M36.4691 24.9364C36.5782 24.7748 36.5998 24.5693 36.5268 24.3884L31.1554 11.082C31.0657 10.8601 30.8505 10.7148 30.6111 10.7148H9.38811C9.1488 10.7148 8.93343 10.8601 8.84382 11.082L3.47237 24.3884C3.39935 24.5693 3.42095 24.7748 3.53004 24.9364C3.63921 25.0981 3.82156 25.1951 4.01658 25.1951H35.9824C36.1776 25.1951 36.36 25.0982 36.4691 24.9364ZM15.5095 19.3296L15.9168 16.5803H24.0824L24.4897 19.3296H15.5095ZM24.6636 20.5035L25.1847 24.0212H14.8146L15.3357 20.5035H24.6636ZM7.89032 16.5803H14.7302L14.323 19.3296H6.78053L7.89032 16.5803ZM23.3875 11.8887L23.9086 15.4065H16.0908L16.6119 11.8887H23.3875ZM25.2691 16.5803H32.109L33.2188 19.3296H25.6764L25.2691 16.5803ZM31.6351 15.4065H25.0951L24.574 11.8887H30.215L31.6351 15.4065ZM9.78418 11.8887H15.4252L14.904 15.4065H8.36409L9.78418 11.8887ZM6.30659 20.5035H14.1489L13.6278 24.0212H4.88658L6.30659 20.5035ZM26.3714 24.0212L25.8503 20.5035H33.6926L35.1126 24.0212H26.3714Z" fill="#1D8F2C"/>
<path d="M38.1598 33.5065H36.5699V32.3977C36.5699 31.559 35.8876 30.8766 35.0489 30.8766H34.6588V27.5427H38.3174C38.7699 27.5427 39.1913 27.3188 39.4444 26.9436C39.6975 26.5684 39.7475 26.0939 39.578 25.6742L32.935 9.21771C32.7264 8.70089 32.2316 8.36696 31.6743 8.36696H19.7043C19.4113 5.73566 17.1746 3.68262 14.4665 3.68262C11.7583 3.68262 9.5216 5.73574 9.2286 8.36696H8.32565C7.76837 8.36696 7.27346 8.70089 7.0649 9.21763L0.421972 25.6743C0.252541 26.0939 0.302549 26.5685 0.555638 26.9437C0.808728 27.3188 1.23007 27.5428 1.68264 27.5428H5.41951V30.8767H4.95113C4.11243 30.8767 3.43009 31.5591 3.43009 32.3978V33.5065H1.84018C0.825475 33.5065 0 34.3319 0 35.3466V38.439C0 38.9891 0.447563 39.4367 0.997723 39.4367H39.0024C39.5525 39.4367 40.0001 38.9891 40.0001 38.439V35.3466C40 34.3319 39.1745 33.5065 38.1598 33.5065ZM33.4849 30.8767H32.0789V27.5428H33.4849V30.8767ZM6.59339 27.5428H7.99931V30.8767H6.59339V27.5428ZM4.60405 32.3977C4.60405 32.2063 4.75978 32.0505 4.95121 32.0505H11.018C11.3421 32.0505 11.6049 31.7878 11.6049 31.4636C11.6049 31.1394 11.3421 30.8766 11.018 30.8766H9.17327V27.5427H25.8654C26.1895 27.5427 26.4523 27.28 26.4523 26.9558C26.4523 26.6316 26.1895 26.3689 25.8654 26.3689H1.68264C1.59672 26.3689 1.54929 26.3176 1.52871 26.287C1.50813 26.2564 1.47831 26.1933 1.51048 26.1137L8.15356 9.65698C8.18205 9.58647 8.24966 9.54084 8.32573 9.54084H12.2798C12.6039 9.54084 12.8667 9.27813 12.8667 8.9539C12.8667 8.62967 12.6039 8.36696 12.2798 8.36696H10.4118C10.6974 6.38474 12.4065 4.8565 14.4665 4.8565C16.5266 4.8565 18.2357 6.38482 18.5213 8.36696H14.7811C14.4569 8.36696 14.1941 8.62967 14.1941 8.9539C14.1941 9.27813 14.4569 9.54084 14.7811 9.54084H31.6743C31.7504 9.54084 31.818 9.58647 31.8465 9.65706L38.4895 26.1137C38.5217 26.1933 38.4919 26.2564 38.4713 26.287C38.4507 26.3176 38.4032 26.3689 38.3174 26.3689H28.3667C28.0426 26.3689 27.7798 26.6316 27.7798 26.9558C27.7798 27.28 28.0426 27.5427 28.3667 27.5427H30.9051V30.8766H13.5193C13.1952 30.8766 12.9324 31.1394 12.9324 31.4636C12.9324 31.7878 13.1952 32.0505 13.5193 32.0505H35.0488C35.2402 32.0505 35.396 32.2063 35.396 32.3977V33.5065H4.60405V32.3977ZM38.8261 38.2627H1.17388V35.3466C1.17388 34.9792 1.47275 34.6803 1.84018 34.6803H38.1598C38.5272 34.6803 38.8261 34.9791 38.8261 35.3466V38.2627Z" fill="#1D8F2C"/>
<path d="M14.4658 1.86773C14.79 1.86773 15.0528 1.60501 15.0528 1.28079V0.586942C15.0528 0.262715 14.79 0 14.4658 0C14.1417 0 13.8789 0.262715 13.8789 0.586942V1.28079C13.8789 1.60493 14.1417 1.86773 14.4658 1.86773Z" fill="#1D8F2C"/>
<path d="M9.95211 2.7944C10.0631 2.97417 10.2554 3.07308 10.4521 3.07308C10.5573 3.07308 10.6638 3.04483 10.7599 2.98551C11.0357 2.81522 11.1213 2.45359 10.951 2.17772L10.5865 1.58726C10.4162 1.31148 10.0546 1.22586 9.77869 1.39623C9.5029 1.56652 9.41729 1.92816 9.58758 2.20402L9.95211 2.7944Z" fill="#1D8F2C"/>
<path d="M6.78703 5.83451L7.40739 6.14536C7.49183 6.18769 7.58152 6.20773 7.66987 6.20773C7.885 6.20773 8.09215 6.08893 8.19506 5.8835C8.34024 5.59371 8.223 5.24107 7.93321 5.0959L7.31285 4.78506C7.0229 4.63965 6.67035 4.75704 6.52518 5.04691C6.38001 5.33671 6.49724 5.68934 6.78703 5.83451Z" fill="#1D8F2C"/>
<path d="M18.1732 2.9855C18.2693 3.04482 18.3758 3.07307 18.481 3.07307C18.6779 3.07307 18.8701 2.97407 18.981 2.79431L19.3456 2.20385C19.5158 1.92807 19.4303 1.56635 19.1544 1.39614C18.8786 1.22593 18.517 1.31146 18.3467 1.58725L17.9821 2.17771C17.8118 2.45357 17.8974 2.81521 18.1732 2.9855Z" fill="#1D8F2C"/>
<path d="M21.2614 6.20789C21.3497 6.20789 21.4394 6.18785 21.5238 6.14552L22.1442 5.83467C22.4341 5.6895 22.5513 5.33687 22.4061 5.04708C22.2608 4.75728 21.9083 4.63997 21.6184 4.78522L20.998 5.09607C20.7081 5.24124 20.5909 5.59387 20.7362 5.88366C20.8391 6.08909 21.0462 6.20789 21.2614 6.20789Z" fill="#1D8F2C"/>
</g>
<defs>
<clipPath id="clip0_2167_67">
<rect width="40" height="40" fill="white"/>
</clipPath>
</defs>
</svg>
