<svg width="36" height="36" viewBox="0 0 36 36" fill="none" xmlns="http://www.w3.org/2000/svg">
<g clip-path="url(#clip0_2167_47)">
<path d="M7.49935 26.2214C6.88051 26.2214 6.28702 26.4673 5.84943 26.9049C5.41185 27.3424 5.16602 27.9359 5.16602 28.5548V30.8881C5.16602 31.0428 5.22747 31.1912 5.33687 31.3006C5.44627 31.41 5.59464 31.4714 5.74935 31.4714H9.24935C9.40406 31.4714 9.55243 31.41 9.66183 31.3006C9.77122 31.1912 9.83268 31.0428 9.83268 30.8881V28.5548C9.83268 27.9359 9.58685 27.3424 9.14926 26.9049C8.71168 26.4673 8.11819 26.2214 7.49935 26.2214ZM8.66602 30.3048H6.33268V28.5548C6.33268 28.2453 6.4556 27.9486 6.67439 27.7298C6.89318 27.511 7.18993 27.3881 7.49935 27.3881C7.80877 27.3881 8.10551 27.511 8.32431 27.7298C8.5431 27.9486 8.66602 28.2453 8.66602 28.5548V30.3048Z" fill="#1D8F2C"/>
<path d="M14.4993 26.2214C13.8805 26.2214 13.287 26.4673 12.8494 26.9049C12.4118 27.3424 12.166 27.9359 12.166 28.5548V30.8881C12.166 31.0428 12.2275 31.1912 12.3369 31.3006C12.4463 31.41 12.5946 31.4714 12.7493 31.4714H16.2493C16.4041 31.4714 16.5524 31.41 16.6618 31.3006C16.7712 31.1912 16.8327 31.0428 16.8327 30.8881V28.5548C16.8327 27.9359 16.5868 27.3424 16.1493 26.9049C15.7117 26.4673 15.1182 26.2214 14.4993 26.2214ZM15.666 30.3048H13.3327V28.5548C13.3327 28.2453 13.4556 27.9486 13.6744 27.7298C13.8932 27.511 14.1899 27.3881 14.4993 27.3881C14.8088 27.3881 15.1055 27.511 15.3243 27.7298C15.5431 27.9486 15.666 28.2453 15.666 28.5548V30.3048Z" fill="#1D8F2C"/>
<path d="M8.08333 11.0546C8.89094 11.0546 9.68041 10.8151 10.3519 10.3664C11.0234 9.91776 11.5468 9.28003 11.8558 8.5339C12.1649 7.78777 12.2458 6.96674 12.0882 6.17466C11.9307 5.38257 11.5417 4.65499 10.9707 4.08392C10.3996 3.51286 9.67204 3.12396 8.87995 2.9664C8.08786 2.80885 7.26684 2.88971 6.52071 3.19877C5.77458 3.50782 5.13685 4.0312 4.68817 4.7027C4.23948 5.3742 4 6.16367 4 6.97127C4.00139 8.05382 4.43204 9.09162 5.19752 9.85709C5.96299 10.6226 7.00079 11.0532 8.08333 11.0546ZM8.08333 4.05461C8.6602 4.05461 9.2241 4.22567 9.70375 4.54616C10.1834 4.86664 10.5572 5.32216 10.778 5.85511C10.9987 6.38807 11.0565 6.97451 10.944 7.54029C10.8314 8.10607 10.5536 8.62577 10.1457 9.03367C9.73782 9.44157 9.21812 9.71936 8.65235 9.8319C8.08657 9.94444 7.50012 9.88668 6.96717 9.66592C6.43422 9.44517 5.9787 9.07133 5.65821 8.59169C5.33773 8.11204 5.16667 7.54814 5.16667 6.97127C5.16759 6.19801 5.47518 5.45668 6.02196 4.9099C6.56874 4.36312 7.31007 4.05553 8.08333 4.05461Z" fill="#1D8F2C"/>
<path d="M7.5 0.554688H8.66667V1.72135H7.5V0.554688Z" fill="#1D8F2C"/>
<path d="M11.3809 2.84766L12.2058 2.0227L13.0308 2.84766L12.2058 3.67261L11.3809 2.84766Z" fill="#1D8F2C"/>
<path d="M13.332 6.38794H14.4987V7.55461H13.332V6.38794Z" fill="#1D8F2C"/>
<path d="M11.3809 11.0967L12.2058 10.2717L13.0308 11.0967L12.2058 11.9216L11.3809 11.0967Z" fill="#1D8F2C"/>
<path d="M7.5 12.2214H8.66667V13.3881H7.5V12.2214Z" fill="#1D8F2C"/>
<path d="M3.13086 11.0952L3.95582 10.2703L4.78078 11.0952L3.95582 11.9202L3.13086 11.0952Z" fill="#1D8F2C"/>
<path d="M1.66602 6.38794H2.83268V7.55461H1.66602V6.38794Z" fill="#1D8F2C"/>
<path d="M3.13281 2.84668L3.95777 2.02172L4.78273 2.84668L3.95777 3.67164L3.13281 2.84668Z" fill="#1D8F2C"/>
<path d="M32.5829 6.3881H24.3637C24.2252 5.5735 23.8032 4.83406 23.1724 4.30037C22.5416 3.76668 21.7425 3.47309 20.9162 3.47144H18.5829C18.4282 3.47144 18.2798 3.53289 18.1704 3.64229C18.061 3.75169 17.9995 3.90006 17.9995 4.05477V4.6381H15.6662V5.80477H17.9995V8.1381H15.6662V9.30477H17.9995V9.8881C17.9995 10.0428 18.061 10.1912 18.1704 10.3006C18.2798 10.41 18.4282 10.4714 18.5829 10.4714H20.9162C21.7425 10.4698 22.5416 10.1762 23.1724 9.6425C23.8032 9.10881 24.2252 8.36937 24.3637 7.55477H32.5829C33.0466 7.55615 33.4909 7.74097 33.8188 8.06886C34.1467 8.39675 34.3315 8.84107 34.3329 9.30477V29.7214C34.3315 30.1851 34.1467 30.6295 33.8188 30.9573C33.4909 31.2852 33.0466 31.47 32.5829 31.4714H28.4995V25.0548C28.5958 25.0547 28.6906 25.0308 28.7754 24.9852C28.8602 24.9396 28.9323 24.8737 28.9855 24.7934C29.0386 24.7131 29.0711 24.6209 29.0799 24.525C29.0888 24.4292 29.0737 24.3326 29.0362 24.2439L25.5362 16.0773H25.5304C25.5208 16.0435 25.5049 16.0119 25.4837 15.9839C25.4315 15.903 25.3598 15.8366 25.2752 15.7907C25.1906 15.7448 25.0958 15.721 24.9995 15.7214H4.58286C4.46836 15.7215 4.35641 15.7553 4.26098 15.8186C4.16555 15.8819 4.09085 15.9718 4.04619 16.0773L0.546192 24.2439C0.508642 24.3326 0.493621 24.4292 0.502468 24.525C0.511316 24.6209 0.543756 24.7131 0.596897 24.7934C0.650037 24.8737 0.722224 24.9396 0.807018 24.9852C0.891813 25.0308 0.986577 25.0547 1.08286 25.0548H1.66619V34.9714C1.66619 35.1261 1.72765 35.2745 1.83705 35.3839C1.94644 35.4933 2.09482 35.5548 2.24953 35.5548H27.9162C28.0709 35.5548 28.2193 35.4933 28.3287 35.3839C28.4381 35.2745 28.4995 35.1261 28.4995 34.9714V32.6381H32.5829C33.3564 32.6381 34.0983 32.3308 34.6453 31.7838C35.1922 31.2368 35.4995 30.495 35.4995 29.7214V9.30477C35.4995 8.53122 35.1922 7.78936 34.6453 7.24237C34.0983 6.69539 33.3564 6.3881 32.5829 6.3881ZM20.9162 9.30477H19.1662V4.6381H20.9162C21.535 4.6381 22.1285 4.88393 22.5661 5.32152C23.0037 5.7591 23.2495 6.3526 23.2495 6.97144C23.2495 7.59027 23.0037 8.18377 22.5661 8.62135C22.1285 9.05894 21.535 9.30477 20.9162 9.30477ZM19.1662 34.3881H2.83286V25.0548H19.1662V34.3881ZM1.96952 23.8881L4.96786 16.8881H24.1129L21.1145 23.8881H1.96952ZM24.9995 34.3881H22.6662V29.7214C22.6662 29.412 22.7891 29.1153 23.0079 28.8965C23.2267 28.6777 23.5234 28.5548 23.8329 28.5548C24.1423 28.5548 24.439 28.6777 24.6578 28.8965C24.8766 29.1153 24.9995 29.412 24.9995 29.7214V34.3881ZM27.3329 34.3881H26.1662V29.7214C26.1662 29.1026 25.9204 28.5091 25.4828 28.0715C25.0452 27.6339 24.4517 27.3881 23.8329 27.3881C23.214 27.3881 22.6205 27.6339 22.1829 28.0715C21.7454 28.5091 21.4995 29.1026 21.4995 29.7214V34.3881H20.3329V25.0548H27.3329V34.3881ZM22.3862 23.8881L24.9995 17.7864L27.6129 23.8881H22.3862Z" fill="#1D8F2C"/>
</g>
<defs>
<clipPath id="clip0_2167_47">
<rect width="35" height="35" fill="white" transform="translate(0.5 0.554688)"/>
</clipPath>
</defs>
</svg>
