<svg width="40" height="43" viewBox="0 0 40 43" fill="none" xmlns="http://www.w3.org/2000/svg">
<path d="M16.1447 33.254H8.41671C7.32255 33.254 6.43234 32.3638 6.43234 31.2696V29.0965C6.60595 29.1369 6.78419 29.1593 6.96511 29.1593C7.04743 29.1593 7.13031 29.1551 7.21326 29.1464C7.34944 29.1323 7.48247 29.1062 7.61166 29.07V31.2696C7.61166 31.7135 7.97279 32.0746 8.41663 32.0746H15.9899C16.3156 32.0746 16.5795 31.8107 16.5795 31.4849C16.5795 31.1592 16.3156 30.8953 15.9899 30.8953H8.79097V28.3001C8.79491 28.2953 8.79915 28.2908 8.803 28.286C9.57991 27.3292 9.48265 25.9435 8.6132 25.1017C8.99297 24.9594 9.34112 24.7184 9.61466 24.3816C10.3916 23.4249 10.2943 22.0392 9.42486 21.1974C9.80455 21.0551 10.1527 20.8141 10.4263 20.4773C11.2473 19.4662 11.0927 17.9758 10.0816 17.1548L8.7909 16.1066V8.78983C8.7909 8.46408 8.52695 8.20013 8.2012 8.20013C7.87545 8.20013 7.6115 8.46408 7.6115 8.78983V15.152C7.26311 14.8924 6.85755 14.7365 6.4321 14.6959V4.16385C6.43234 3.0696 7.32255 2.1794 8.41671 2.1794H21.5404C22.6346 2.1794 23.5249 3.0696 23.5249 4.16385V15.0454C23.5249 15.3712 23.7888 15.6351 24.1146 15.6351C24.4403 15.6351 24.7042 15.3712 24.7042 15.0454V4.16385C24.7042 2.41929 23.285 1 21.5404 1H8.41671C6.67223 1 5.25294 2.41929 5.25294 4.16385V8.68809C4.26343 8.10272 2.96436 8.31399 2.21812 9.23281C1.82043 9.72258 1.63723 10.3379 1.70233 10.9654C1.76744 11.5929 2.07298 12.1576 2.56274 12.5553L5.25286 14.7398V14.8839C4.91241 15.0328 4.60986 15.2614 4.36887 15.5582C3.9711 16.048 3.78798 16.6633 3.853 17.2908C3.91087 17.8483 4.15886 18.3559 4.55679 18.7411C4.16908 18.8866 3.82509 19.1326 3.55713 19.4626C2.7803 20.4192 2.8774 21.8049 3.74662 22.6467C3.36701 22.789 3.01893 23.0302 2.74547 23.367C2.34778 23.8568 2.16458 24.4721 2.2296 25.0996C2.2947 25.7271 2.60025 26.2918 3.09001 26.6895L5.25279 28.4458V31.2697C5.25279 33.0142 6.67207 34.4335 8.41656 34.4335H16.1446C16.4703 34.4335 16.7343 34.1696 16.7343 33.8438C16.7343 33.5181 16.4705 33.254 16.1447 33.254ZM3.30623 11.6396C3.06108 11.4406 2.90807 11.1579 2.87544 10.8437C2.84281 10.5295 2.93457 10.2215 3.13365 9.97631C3.54471 9.47011 4.29087 9.39282 4.79715 9.8038L5.25286 10.1739V13.2206L3.30623 11.6396ZM5.28447 16.3016C5.48355 16.0564 5.76629 15.9035 6.08049 15.8708C6.39436 15.8383 6.70266 15.9301 6.94789 16.1291L9.33837 18.0703C9.58353 18.2694 9.73654 18.5521 9.76917 18.8663C9.8018 19.1805 9.71004 19.4885 9.51088 19.7338C9.3118 19.9789 9.02913 20.1318 8.71494 20.1646C8.4142 20.1957 8.11911 20.1116 7.87907 19.9295L5.45698 17.965C5.21182 17.7659 5.05889 17.4832 5.02618 17.169C4.99363 16.8549 5.08539 16.5468 5.28447 16.3016ZM4.47281 20.2061C4.87577 19.7096 5.60055 19.6266 6.10596 20.0114L8.52671 21.9748C9.03291 22.3858 9.11028 23.132 8.69922 23.6382C8.29634 24.1342 7.57195 24.2172 7.06685 23.8335L4.64532 21.8695C4.13912 21.4584 4.06175 20.7122 4.47281 20.2061ZM3.40279 24.9778C3.37023 24.6637 3.46191 24.3557 3.66107 24.1104C4.06396 23.6144 4.7881 23.5313 5.29344 23.9152L7.71505 25.8792C8.22125 26.2903 8.29862 27.0364 7.88756 27.5426C7.68847 27.7878 7.40573 27.9408 7.09154 27.9734C6.77759 28.0059 6.46929 27.9142 6.22406 27.7151L3.83366 25.7739C3.58842 25.5748 3.43549 25.292 3.40279 24.9778Z" fill="#1D8F2C"/>
<path d="M38.1691 40.0289L30.9913 31.5851C30.8633 31.4345 30.7927 31.2426 30.7927 31.045V28.009C30.7927 25.8822 29.9894 23.8587 28.5307 22.311L21.1597 14.4906C20.8725 14.1858 20.4681 14.0161 20.0487 14.0237C19.6299 14.0318 19.2317 14.2174 18.9564 14.5331L18.8104 14.7006C17.5854 16.1052 17.528 18.1915 18.6739 19.6614L21.4062 23.1662C21.5821 23.3919 21.6043 23.6985 21.4625 23.9472L19.9251 26.6446C19.7637 26.9275 19.8624 27.2876 20.1454 27.4488C20.4283 27.6101 20.7885 27.5115 20.9497 27.2285L22.4871 24.5312C22.8665 23.8657 22.8073 23.0453 22.3363 22.441L19.604 18.9363C18.8047 17.911 18.8447 16.4556 19.6993 15.4758L19.8453 15.3083C19.9233 15.2187 20.0205 15.2038 20.0714 15.2028C20.1229 15.2008 20.2201 15.2131 20.3015 15.2995L27.6724 23.1199C28.924 24.4478 29.6133 26.184 29.6133 28.0089V31.0449C29.6133 31.5221 29.7836 31.9852 30.0928 32.3489L37.2707 40.7927C37.3873 40.9299 37.5533 41.0005 37.7203 41.0005C37.8553 41.0005 37.991 40.9544 38.1019 40.8601C38.35 40.6492 38.3802 40.277 38.1691 40.0289Z" fill="#1D8F2C"/>
<path d="M23.7303 38.3894C23.6387 38.2699 23.505 38.19 23.3564 38.166C21.3062 37.8346 19.648 36.2451 19.2302 34.2108L19.0128 33.1524C18.7669 31.955 18.9649 30.7105 19.5703 29.6484L19.6957 29.4284C19.8571 29.1454 19.7584 28.7853 19.4754 28.6241C19.1925 28.4628 18.8323 28.5614 18.6711 28.8444L18.5457 29.0644C17.7984 30.3756 17.554 31.9116 17.8576 33.3897L18.0749 34.4481C18.5745 36.8809 20.5111 38.7984 22.9326 39.2876L24.0683 40.7691C24.1844 40.9207 24.3595 41.0001 24.5367 41.0001C24.6618 41.0001 24.788 40.9604 24.895 40.8784C25.1536 40.6803 25.2025 40.3101 25.0043 40.0517L23.7303 38.3894Z" fill="#1D8F2C"/>
<path d="M21.7552 13.3119C22.0809 13.3119 22.3449 13.048 22.3449 12.7222V4.16443C22.3449 3.72051 21.9838 3.35938 21.5399 3.35938H19.9661C19.4543 3.35938 18.9867 3.61412 18.7152 4.04099C18.4357 4.48043 17.9586 4.74273 17.4386 4.74273H12.5671C12.0472 4.74273 11.5699 4.48043 11.2905 4.04091C11.0191 3.61412 10.5514 3.35938 10.0396 3.35938H8.41631C7.97238 3.35938 7.61133 3.72058 7.61133 4.16443V6.27728C7.61133 6.60303 7.87528 6.86698 8.20103 6.86698C8.52678 6.86698 8.79072 6.60303 8.79072 6.27728V4.53877H10.0397C10.1444 4.53877 10.2424 4.59051 10.2954 4.67385C10.7924 5.45548 11.6417 5.92212 12.5673 5.92212H17.4388C18.3643 5.92212 19.2136 5.45548 19.7106 4.67393C19.7637 4.59051 19.8616 4.53877 19.9664 4.53877H21.1657V12.7222C21.1655 13.048 21.4295 13.3119 21.7552 13.3119Z" fill="#1D8F2C"/>
<path d="M18.431 12.0478C18.416 11.7292 18.1503 11.4821 17.8287 11.4862C17.5031 11.4935 17.2451 11.7634 17.2524 12.0891C17.2526 12.0964 17.2529 12.1038 17.2533 12.1114C17.2466 13.1545 16.5336 14.0326 15.5698 14.2918V9.0518C15.8226 9.37142 16.0927 9.73153 16.3434 10.1036C16.5254 10.3737 16.8918 10.4451 17.162 10.263C17.4321 10.0811 17.5035 9.71455 17.3215 9.44446C16.6515 8.45016 15.8576 7.54092 15.5475 7.19638C15.4029 7.03559 15.1961 6.94336 14.98 6.94336C14.7639 6.94336 14.5571 7.03559 14.4127 7.19614C13.5451 8.1605 11.5273 10.5684 11.5273 12.0965C11.5273 13.7992 12.7666 15.2171 14.3903 15.4978V16.0572C14.3903 16.3829 14.6542 16.6469 14.98 16.6469C15.3057 16.6469 15.5697 16.3829 15.5697 16.0572V15.4978C17.1935 15.217 18.4327 13.7992 18.4327 12.0965C18.4327 12.0809 18.4321 12.0647 18.431 12.0478ZM12.7067 12.0966C12.7067 11.4428 13.4616 10.2257 14.3903 9.05078V14.2919C13.4218 14.0314 12.7067 13.1461 12.7067 12.0966Z" fill="#1D8F2C"/>
<path d="M18.5793 26.3867V24.2885C18.5793 23.6001 18.0192 23.04 17.3308 23.04H12.6235C11.9351 23.04 11.375 23.6001 11.375 24.2885V26.3867C11.375 27.0751 11.9351 27.6352 12.6235 27.6352H17.3308C18.0192 27.6352 18.5793 27.0751 18.5793 26.3867ZM17.3999 26.3867C17.3999 26.4248 17.3688 26.4558 17.3308 26.4558H12.6235C12.5855 26.4558 12.5544 26.4248 12.5544 26.3867V24.2885C12.5544 24.2505 12.5855 24.2194 12.6235 24.2194H17.3308C17.3688 24.2194 17.3999 24.2505 17.3999 24.2885V26.3867Z" fill="#1D8F2C"/>
<path d="M11.5273 20.8846C11.5273 21.2104 11.7913 21.4743 12.117 21.4743H17.5912C17.917 21.4743 18.1809 21.2104 18.1809 20.8846C18.1809 20.5589 17.917 20.2949 17.5912 20.2949H12.117C11.7913 20.2949 11.5273 20.5589 11.5273 20.8846Z" fill="#1D8F2C"/>
<path d="M16.6537 3.94111C16.9794 3.94111 17.2434 3.67717 17.2434 3.35142C17.2434 3.02567 16.9794 2.76172 16.6537 2.76172H13.3749C13.0491 2.76172 12.7852 3.02567 12.7852 3.35142C12.7852 3.67717 13.0491 3.94111 13.3749 3.94111H16.6537Z" fill="#1D8F2C"/>
</svg>
