<svg width="40" height="43" viewBox="0 0 40 43" fill="none" xmlns="http://www.w3.org/2000/svg">
<g clip-path="url(#clip0_2167_26)">
<path d="M37.3783 6.48152H26.965C26.6421 6.48152 26.3805 6.74316 26.3805 7.06605C26.3805 7.38895 26.6421 7.65058 26.965 7.65058H37.3783C38.1792 7.65058 38.8309 8.30221 38.8309 9.10325V29.4387H34.5548C34.2319 29.4387 33.9702 29.7003 33.9702 30.0232C33.9702 30.3461 34.2319 30.6077 34.5548 30.6077H38.8309V31.052C38.8309 31.853 38.1793 32.5047 37.3783 32.5047H19.8408C19.5179 32.5047 19.2562 32.7663 19.2562 33.0892C19.2562 33.4121 19.5179 33.6737 19.8408 33.6737H24.1518V37.2282C24.1518 37.4062 24.2329 37.5745 24.3721 37.6854L26.9644 39.7503H13.0356L15.468 37.8127H21.404C21.7269 37.8127 21.9886 37.5511 21.9886 37.2282C21.9886 36.9053 21.7269 36.6437 21.404 36.6437H15.8482V33.6737H17.3497C17.6726 33.6737 17.9343 33.4121 17.9343 33.0892C17.9343 32.7663 17.6726 32.5047 17.3497 32.5047H2.62173C1.82077 32.5047 1.16906 31.853 1.16906 31.052V30.6077H32.0637C32.3866 30.6077 32.6482 30.3461 32.6482 30.0232C32.6482 29.7003 32.3866 29.4387 32.0637 29.4387H1.16906V9.10317C1.16906 8.30221 1.82069 7.6505 2.62173 7.6505H12.8406C13.1635 7.6505 13.4251 7.38887 13.4251 7.06597C13.4251 6.74308 13.1635 6.48145 12.8406 6.48145H2.62173C1.17607 6.48152 0 7.65759 0 9.10317V31.0519C0 32.4976 1.17607 33.6736 2.62173 33.6736H14.6792V36.9465L12.1486 38.9622C11.7783 39.2572 11.6399 39.7367 11.7963 40.1837C11.9525 40.6305 12.3594 40.9193 12.8328 40.9193H27.1673C27.6408 40.9193 28.0476 40.6305 28.2039 40.1837C28.3602 39.7367 28.2218 39.2572 27.8515 38.9622L25.321 36.9465V33.6736H37.3784C38.8241 33.6736 40.0002 32.4976 40.0002 31.0519V9.10317C40 7.65759 38.824 6.48152 37.3783 6.48152Z" fill="#1D8F2C"/>
<path d="M15.5665 14.9482C15.8242 14.7536 15.8752 14.387 15.6806 14.1294C15.2808 13.6002 14.9896 13.0124 14.8134 12.3888L19.3183 14.9799V16.201C18.6397 16.1257 17.9794 15.9204 17.3816 15.5955C17.0976 15.4413 16.743 15.5463 16.5888 15.83C16.4347 16.1137 16.5397 16.4685 16.8233 16.6227C17.5919 17.0404 18.4446 17.2968 19.3183 17.3762V19.0702C19.3183 19.3931 19.5799 19.6547 19.9028 19.6547C20.2257 19.6547 20.4873 19.3931 20.4873 19.0702V17.3754C23.7749 17.0788 26.3602 14.3092 26.3602 10.9456C26.3602 8.02752 22.3332 3.23602 20.6017 1.31128C20.4235 1.11348 20.1687 1 19.9027 1C19.6367 1 19.3819 1.11348 19.2036 1.31151C17.4722 3.23602 13.4453 8.02744 13.4453 10.9456C13.4453 12.3617 13.8956 13.7063 14.7477 14.8342C14.9425 15.0917 15.3091 15.1429 15.5665 14.9482ZM14.6153 10.9262C14.621 10.266 14.9261 9.40848 15.42 8.4564L19.3183 10.6986V13.6313L14.6153 10.9262ZM17.2303 5.59541L19.3183 6.79634V9.35003L15.9953 7.43878C16.3608 6.83812 16.7802 6.21657 17.2303 5.59541ZM23.8103 7.43878L20.4873 9.35003V6.79634L22.5753 5.59549C23.0254 6.21665 23.4448 6.83819 23.8103 7.43878ZM25.1904 10.9262L20.4873 13.6313V10.6986L24.3856 8.4564C24.8796 9.40856 25.1847 10.2661 25.1904 10.9262ZM20.4873 16.201V14.9799L24.9888 12.3908C24.4099 14.425 22.6423 15.9628 20.4873 16.201ZM21.8693 4.65291L20.4873 5.44772V2.95451C20.9518 3.49796 21.4188 4.06994 21.8693 4.65291ZM19.3183 2.95459V5.4478L17.9363 4.65291C18.3868 4.06994 18.8538 3.49789 19.3183 2.95459Z" fill="#1D8F2C"/>
<path d="M9.44994 10.1475H5.83592C5.00987 10.1475 4.33789 10.8194 4.33789 11.6454V15.6956C4.33789 16.5216 5.00987 17.1935 5.83592 17.1935H9.44994C10.2759 17.1935 10.9479 16.5216 10.9479 15.6956V11.6454C10.9479 10.8194 10.2759 10.1475 9.44994 10.1475ZM9.77884 15.6955C9.77884 15.8769 9.6313 16.0244 9.44994 16.0244H5.83592C5.65456 16.0244 5.50695 15.8769 5.50695 15.6955V11.6453C5.50695 11.464 5.65456 11.3164 5.83592 11.3164H9.44994C9.6313 11.3164 9.77884 11.464 9.77884 11.6453V15.6955Z" fill="#1D8F2C"/>
<path d="M29.4009 11.9972H36.2915C36.6144 11.9972 36.876 11.7355 36.876 11.4127C36.876 11.0898 36.6144 10.8281 36.2915 10.8281H29.4009C29.078 10.8281 28.8164 11.0898 28.8164 11.4127C28.8164 11.7355 29.0781 11.9972 29.4009 11.9972Z" fill="#1D8F2C"/>
<path d="M29.4009 14.6739H36.2915C36.6144 14.6739 36.876 14.4123 36.876 14.0894C36.876 13.7665 36.6144 13.5049 36.2915 13.5049H29.4009C29.078 13.5049 28.8164 13.7665 28.8164 14.0894C28.8164 14.4123 29.0781 14.6739 29.4009 14.6739Z" fill="#1D8F2C"/>
<path d="M29.4009 17.3497H36.2915C36.6144 17.3497 36.876 17.0881 36.876 16.7652C36.876 16.4423 36.6144 16.1807 36.2915 16.1807H29.4009C29.078 16.1807 28.8164 16.4423 28.8164 16.7652C28.8164 17.0881 29.0781 17.3497 29.4009 17.3497Z" fill="#1D8F2C"/>
<path d="M12.6376 23.5439C13.6419 23.5439 14.459 22.7269 14.459 21.7226C14.459 20.7184 13.6419 19.9014 12.6376 19.9014C11.6334 19.9014 10.8164 20.7184 10.8164 21.7226C10.8163 22.7269 11.6334 23.5439 12.6376 23.5439ZM12.6376 21.0704C12.9973 21.0704 13.2899 21.363 13.2899 21.7226C13.2899 22.0823 12.9973 22.3749 12.6376 22.3749C12.278 22.3749 11.9855 22.0823 11.9855 21.7226C11.9854 21.363 12.278 21.0704 12.6376 21.0704Z" fill="#1D8F2C"/>
<path d="M6.60406 21.1387C6.28117 21.1387 6.01953 21.4003 6.01953 21.7232C6.01953 22.0461 6.28117 22.3077 6.60406 22.3077H9.31768C9.64057 22.3077 9.9022 22.0461 9.9022 21.7232C9.9022 21.4003 9.64057 21.1387 9.31768 21.1387H6.60406Z" fill="#1D8F2C"/>
<path d="M15.4648 21.7232C15.4648 22.0461 15.7265 22.3077 16.0494 22.3077H33.3087C33.6316 22.3077 33.8932 22.0461 33.8932 21.7232C33.8932 21.4003 33.6316 21.1387 33.3087 21.1387H16.0494C15.7265 21.1387 15.4648 21.4004 15.4648 21.7232Z" fill="#1D8F2C"/>
<path d="M25.4531 25.8721C25.4531 26.8764 26.2701 27.6934 27.2744 27.6934C28.2787 27.6934 29.0958 26.8764 29.0958 25.8721C29.0958 24.8678 28.2787 24.0508 27.2744 24.0508C26.2701 24.0508 25.4531 24.8678 25.4531 25.8721ZM27.9267 25.8721C27.9267 26.2318 27.6341 26.5244 27.2744 26.5244C26.9148 26.5244 26.6222 26.2318 26.6222 25.8721C26.6222 25.5124 26.9148 25.2198 27.2744 25.2198C27.6341 25.2198 27.9267 25.5124 27.9267 25.8721Z" fill="#1D8F2C"/>
<path d="M33.3099 25.2881H30.5962C30.2734 25.2881 30.0117 25.5497 30.0117 25.8726C30.0117 26.1955 30.2734 26.4571 30.5962 26.4571H33.3099C33.6328 26.4571 33.8944 26.1955 33.8944 25.8726C33.8944 25.5497 33.6327 25.2881 33.3099 25.2881Z" fill="#1D8F2C"/>
<path d="M6.60211 26.4574H23.8614C24.1843 26.4574 24.446 26.1958 24.446 25.8729C24.446 25.55 24.1843 25.2883 23.8614 25.2883H6.60211C6.27921 25.2883 6.01758 25.55 6.01758 25.8729C6.01758 26.1958 6.27921 26.4574 6.60211 26.4574Z" fill="#1D8F2C"/>
</g>
<defs>
<clipPath id="clip0_2167_26">
<rect width="40" height="43" fill="white"/>
</clipPath>
</defs>
</svg>
